<svg xmlns="http://www.w3.org/2000/svg" viewBox="0 270 896.3579 305">
  <g>
    <g>
      <path style="fill: #132448;" d="M754.4897,505.0328c-8.7868,7.9874-18.0368,14.5707-29.3319,16.1778-10.1587,1.4455-18.9377-3.8211-19.8864-14.278-1.6426-18.1057,11.9291-37.8712,22.3372-52.2467l-16.4489-2.4659c-8.699,17.3346-18.1246,33.8992-30.2491,48.8204-15.3556,18.8976-38.0544,33.9257-63.0422,29.4208-9.1009-1.6407-15.906-7.264-19.3758-16.2509-14.3127,12.6912-32.2533,25.9443-52.515,23.8581-16.0492-1.6524-26.0946-14.4796-27.5997-30.9974-8.0818,8.5924-13.8287,17.9779-17.5292,28.8246-1.3131,3.8488-5.7324,6.0768-9.343,6.1809-3.469.1-8.1006-2.0581-9.2374-6.296-1.0986-4.0953.6237-8.8869,1.4746-13.6821-16.8199,15.6122-43.2238,32.0459-66.0609,21.5232-7.3523-3.3877-11.5489-10.4203-14.6247-17.7934-16.5841,15.2643-37.6729,30.4032-61.0234,29.8884-16.0056-.3528-28.3062-11.8343-29.7312-27.7632-3.3244-37.1606,32.655-80.5983,65.7139-76.8112,8.9747,1.0281,16.4401,7.3248,17.4516,16.4886.8231,7.4578-1.0477,14.8478-4.9793,21.3902-11.9467,19.8799-32.3489,31.9402-55.1166,34.9395.355,8.2322,7.6237,13.5178,15.7698,13.2331,19.7999-.692,37.6568-17.0954,51.9459-29.9753,4.0261-29.2113,37.3214-64.1875,68.0452-59.385,9.9553,1.5562,16.3035,9.3552,14.5303,19.2842-2.8148,15.7612-16.9672,25.3792-23.6463,19.8032-1.5654-1.3069-2.4452-6.0109-1.1893-7.7803l6.6897-9.4243c.6946-.9786,1.2281-3.3273.8138-4.3243-2.2277-5.3613-16.1789,1.006-23.2082,7.9805-9.2344,9.1624-16.3998,20.0305-18.7483,32.9933-1.165,6.4304.1659,13.9888,5.6587,17.9159,19.5987,14.012,58.2147-26.6214,63.0341-36.8868l41.5059-88.4078c9.6004-20.4489,35.6472-60.5292,53.8055-75.3833,6.0095-4.9159,12.912-8.5785,20.5129-9.2675,9.8777-.8954,17.1292,6.1239,17.0654,16.0397-.0546,8.4815-2.381,16.8743-5.9078,24.8234-15.7517,35.5025-46.0241,70.2114-73.8827,97.1384-7.4827,7.2325-15.4172,13.0864-23.2357,19.4675-2.6733,5.2496-5.0577,10.8175-6.9648,17.1059l18.8988-18.8936c4.0852-4.0841,8.971-7.587,13.6642-11.165,7.5803-5.779,15.8444-10.7883,25.1419-12.9444,5.5355-1.2837,12.4927-1.0128,16.1743,3.5234,4.4974,5.5414,3.8206,13.9065.5012,20.2067-10.8292,20.5539-31.0314,33.6205-54.3174,36.9888,2.2229,7.9607,9.1904,13.3213,18.0949,12.8448,16.2962-.8719,28.6157-11.5,39.7877-22.1707,2.1087-28.4971,31.2418-66.3109,60.9007-64.7953,8.5201.4354,16.2017,5.6215,17.9554,13.9104,1.936,9.1502-1.194,17.6694-6.5065,25.2083-11.4372,16.2302-29.2951,26.2127-49.1285,28.3757-.3926,7.7044,5.5267,12.5126,13.0517,12.2884,19.7479-.5883,37.0619-19.8255,47.7704-34.9746,7.2892-10.3119,13.8938-20.3656,19.3866-31.8424-7.8593-9.4746-8.0226-22.8894.8565-30.9056,5.0459-4.5555,14.0353-5.2087,17.9888.5128,4.2551,6.1579,1.694,14.2021-.366,21.0678,12.4418,6.953,28.7437-4.0804,34.6684,4.0675,1.5685,2.157,1.7171,7.2285-.3882,9.9731-10.0428,13.0923-18.9735,26.1112-24.0246,42.0078-.5408,1.702.5284,5.5939,1.7646,6.5495,12.4753,9.6436,54.6194-48.4592,59.3686-59.3078-1.3238-7.4442-2.3318-15.6855,2.9077-22.1812,4.0284-4.9942,9.7898-10.2744,17.8962-10.0063,3.3031.1092,7.3899,1.674,8.8322,3.7914,5.6296,8.2649-4.6601,14.4901-7.4347,21.5465-1.0909,2.7745,2.2046,7.9672,3.84,10.3538,5.1009,7.4439,10.1538,14.2621,13.7971,22.2663,6.409,14.0803,5.0813,29.6557-3.602,41.9592,4.2959-1.0585,7.2772-2.9143,10.5487-4.9607,14.4781-9.0559,25.2552-21.806,30.8838-38.0486,1.1044-3.187,5.1194-5.5345,7.7212-5.8666,3.5703-.4558,8.2638.9687,9.2444,5.2231,6.2308,27.0347-44.0973,80.6306-103.5252,64.4951-12.2455-3.3248-21.292-11.7634-25.8299-22.9757ZM611.6612,338.6257c.4682-1.8908-.2235-5.6559-1.7765-6.1079-1.5691-.4567-4.2949-.1322-6.397.2387-7.9383,6.6662-14.3386,13.9596-20.122,22.9703-17.9436,27.9565-33.2147,57.2066-46.2948,88.3867,27.0309-24.468,66.1664-71.4722,74.5903-105.4877ZM710.724,422.906c-.0836-1.023-3.1921-1.2351-3.5933-.5626-.8884,1.4893-2.0221,4.5102-1.6239,5.9327.3778,1.3497,1.9198,3.0259,3.6818,4.4702,1.1644-2.9134,1.7899-6.7256,1.5354-9.8403ZM658.4205,457.8069c1.2192-3.2165-.1271-7.8598-3.842-8.1992-15.4469-1.4112-30.8856,23.605-34.0618,36.8521,15.2578-3.5511,32.3877-14.0999,37.9038-28.6529ZM804.9036,499.511c10.473-15.6249,2.1821-32.9969-7.8679-46.354-10.128,15.0158-20.0812,28.4431-31.5751,41.8765,2.9299,3.9425,6.1776,8.6214,10.2903,11.3987,9.8031,6.6201,22.5846,2.9399,29.1527-6.9212ZM573.9333,468.1338c.5245-1.0438.5639-4.4227-.5303-4.7954-10.5493-3.5935-37.4442,21.6439-43.1287,30.7126,15.3782,2.2322,37.2776-13.2171,43.659-25.9172ZM371.3807,489.3232c3.1999-4.8048,5.4041-8.9394,7.2805-13.9779-.5668-2.2681-1.1519-5.0359-2.3052-5.9434-.9885-.7778-3.4462-1.0258-5.4929-1.3556-17.3478,5.4873-30.7264,24.6326-35.1917,42.4038,14.5411-3.3407,26.0397-10.7959,35.7093-21.1269ZM269.8447,399.141c14.5349-15.8024,35.81-35.001,58.2494-34.4581,9.9662.2411,16.7566,7.4808,16.2162,17.7301-.6483,12.2947-4.4945,24.1993-10.9405,35.1828-17.9278,30.5475-46.5421,52.8161-80.0732,63.937-9.204,3.0526-17.7873,4.2733-27.3163,4.7463-4.0272.1999-6.6409,3.8753-6.724,7.581-.2571,11.4668,17.1833,10.513,25.0238,9.6673,36.3454-3.92,68.6023-23.5303,92.1633-50.8655,17.5864-20.4036,33.4298-51.593,28.1682-79.13-4.033-21.1069-22.5616-33.7073-43.7893-31.2655-38.3119,4.4071-67.7058,37.4717-89.3766,68.3915-10.6685-13.4963-25.7683-7.9882-39.6978-3.7544l-29.1329,13.7445c-5.6298,2.656-9.2697,8.8934-5.6111,14.9085,2.0803,3.4202,8.0699,4.5534,11.7621,2.4952l16.0332-8.9375c6.0722-3.3848,20.7636-11.8664,26.9337-7.01,6.0597,4.7695-2.7075,21.5032-5.8854,27.825-14.3239,28.495-32.5137,69.1064-40.4023,99.6054-1.2689,4.9056,1.2281,10.4978,5.8061,12.2698,6.197,2.3987,12.6219-1.097,14.9891-7.237,14.303-37.0984,28.1559-72.8898,48.8524-107.0746,10.4122-17.198,21.1391-33.5518,34.752-48.3519Z"/>
      <path style="fill: #bf203c;" d="M612.5724,314.2592c9.0087,0,15.4451,6.7721,15.3851,16.1166-.0546,8.4815-2.381,16.8743-5.9078,24.8234-15.7518,35.5023-46.024,70.2114-73.8826,97.1383-7.4828,7.2325-15.4172,13.0865-23.2358,19.4675-2.6733,5.2497-5.0578,10.8176-6.9648,17.1059l18.8989-18.8936c4.0851-4.0842,8.971-7.5871,13.6642-11.1651,7.5803-5.7791,15.8445-10.7882,25.142-12.9445,1.7839-.4137,3.716-.666,5.638-.666,4.042,0,8.0411,1.1151,10.5363,4.1894,4.4974,5.5414,3.8206,13.9064.5012,20.2067-10.8292,20.5539-31.0314,33.6205-54.3174,36.9887,2.131,7.6318,8.6238,12.8743,17.0024,12.8743.3611,0,.7246-.0097,1.0926-.0294,16.2961-.8719,28.6157-11.5001,39.7877-22.1708,2.0674-27.9405,30.1163-64.8394,59.166-64.8394.5787,0,1.1555.0146,1.7347.0442,8.5201.4354,16.2017,5.6214,17.9554,13.9103,1.936,9.1503-1.194,17.6694-6.5066,25.2084-11.4371,16.2302-29.2952,26.2126-49.1284,28.3756-.3839,7.5318,5.265,12.2959,12.5488,12.2959.1669,0,.3344-.0025.5029-.0075,19.7479-.5884,37.0619-19.8256,47.7703-34.9746,7.2892-10.3119,13.8938-20.3655,19.3866-31.8423-7.8593-9.4747-8.0226-22.8894.8564-30.9056,2.54-2.2931,6.0801-3.5977,9.4731-3.5977,3.3477,0,6.5522,1.269,8.5157,4.1105,4.2551,6.1579,1.694,14.2021-.366,21.0677,3.32,1.8554,6.916,2.4302,10.5153,2.4302,5.8549,0,11.722-1.5203,16.4355-1.5203,3.2474,0,5.9458.7209,7.7177,3.1577,1.5685,2.157,1.717,7.2285-.3882,9.9731-10.0428,13.0922-18.9735,26.1112-24.0247,42.0078-.5407,1.702.5285,5.5939,1.7647,6.5496.9487.7334,2.071,1.0753,3.3334,1.0753,15.3376,0,51.6472-50.3596,56.0352-60.3832-1.3237-7.4442-2.3317-15.6854,2.9079-22.1812,3.9295-4.8716,9.5095-10.0161,17.3051-10.0161.1961,0,.3922.0032.5911.0098,3.303.1092,7.3899,1.674,8.8321,3.7914,5.6297,8.2648-4.6601,14.4901-7.4347,21.5465-1.0909,2.7745,2.2046,7.967,3.84,10.3538,5.101,7.4438,10.1539,14.2621,13.7972,22.2664,6.4091,14.0802,5.0813,29.6556-3.6021,41.9592,4.2959-1.0585,7.2772-2.9144,10.5487-4.9606,14.4781-9.056,25.2552-21.8062,30.8838-38.0487,1.1045-3.187,5.1195-5.5345,7.7213-5.8666.4202-.0536.8561-.0812,1.2994-.0812,3.3242,0,7.0797,1.5506,7.9449,5.3043,5.4404,23.6059-32.2463,67.4659-81.4548,67.4659-7.1477,0-14.5331-.9243-22.0704-2.9708-12.2454-3.3248-21.292-11.7634-25.8299-22.9756-8.7868,7.9875-18.0368,14.5707-29.3319,16.1779-1.1074.1575-2.1988.2354-3.265.2354-8.715,0-15.7761-5.1964-16.6213-14.5134-1.6427-18.1058,11.9291-37.8712,22.3372-52.2467l-16.4489-2.466c-8.699,17.3346-18.1246,33.8993-30.249,48.8204-13.4943,16.607-32.6603,30.2259-54.0663,30.2259-2.9526,0-5.9471-.259-8.976-.8051-9.1008-1.6407-15.906-7.2641-19.3759-16.2509-13.3019,11.795-29.7393,24.0762-48.2595,24.0762-1.4072,0-2.8246-.0707-4.2554-.2181-16.0491-1.6525-26.0945-14.4795-27.5997-30.9973-8.0818,8.5923-13.8287,17.9778-17.5292,28.8246-1.3132,3.8488-5.7325,6.0767-9.3431,6.1808-.0768.0023-.1546.0034-.2325.0034-3.4403,0-7.8932-2.1553-9.0049-6.2993-1.0986-4.0953.6238-8.887,1.4745-13.6821-13.1169,12.1751-32.0626,24.8499-50.5996,24.8499-5.2331,0-10.4335-1.0101-15.4612-3.3267-7.3522-3.3878-11.549-10.4202-14.6248-17.7934-16.3088,15.0109-36.9756,29.9012-59.864,29.9012-.3864,0-.7717-.0042-1.1594-.0128-16.0056-.353-28.3062-11.8344-29.7312-27.7632-3.1878-35.6342,29.768-77.0425,61.6307-77.0425,1.3649,0,2.7253.0758,4.0832.2314,8.9746,1.0281,16.4401,7.3248,17.4515,16.4886.8232,7.4578-1.0476,14.8477-4.9792,21.3902-11.9466,19.8799-32.349,31.9402-55.1166,34.9396.3459,8.0201,7.2547,13.2439,15.1431,13.2439.2086,0,.4169-.0037.6267-.011,19.7999-.692,37.6569-17.0953,51.946-29.9753,3.7739-27.382,33.2673-59.8304,62.2519-59.8304,1.9363,0,3.8693.1447,5.7933.4454,9.9553,1.5561,16.3035,9.3552,14.5303,19.2842-2.2664,12.6905-11.8839,21.399-19.0315,21.399-1.7294,0-3.3136-.5095-4.6149-1.5958-1.5653-1.3069-2.4452-6.0109-1.1891-7.7802l6.6896-9.4244c.6947-.9786,1.2281-3.3273.8138-4.3243-.5809-1.3983-1.9594-1.9987-3.8044-1.9987-5.2295,0-14.2078,4.8237-19.4037,9.9793-9.2345,9.1624-16.3998,20.0305-18.7484,32.9933-1.1651,6.4304.1659,13.9888,5.6587,17.9159,2.8302,2.0234,6.0589,2.9077,9.5233,2.9077,20.5255,0,49.3874-31.0115,53.5109-39.7946l41.506-88.4077c9.6003-20.4489,35.6472-60.5293,53.8055-75.3834,6.0094-4.9159,12.9119-8.5785,20.5128-9.2674.5692-.0516,1.1296-.0769,1.6804-.0769M537.0709,444.1134c27.0308-24.468,66.1663-71.4721,74.5902-105.4877.4684-1.8907-.2235-5.6559-1.7764-6.1079-.549-.1598-1.2397-.224-1.9956-.224-1.4047,0-3.0348.2215-4.4015.4627-7.9382,6.6662-14.3384,13.9596-20.122,22.9702-17.9435,27.9566-33.2145,57.2067-46.2947,88.3867M709.1886,432.7463c1.1644-2.9135,1.7899-6.7255,1.5353-9.8404-.0513-.6277-1.2417-.9501-2.2466-.9501-.6326,0-1.1917.1278-1.3467.3877-.8885,1.4893-2.0221,4.5101-1.6239,5.9327.3779,1.3497,1.9198,3.0259,3.6819,4.4702M620.5167,486.4598c15.2579-3.551,32.3878-14.0999,37.9038-28.653,1.2192-3.2164-.1271-7.8597-3.842-8.1992-.4205-.0384-.8416-.0573-1.2618-.0573-15.0172,0-29.7103,24.0229-32.7999,36.9094M786.589,509.7751c7.0488,0,14.0135-3.8066,18.3146-10.2641,10.4731-15.6249,2.1821-32.9969-7.8679-46.354-10.1281,15.0157-20.0812,28.4431-31.5751,41.8765,2.9299,3.9424,6.1775,8.6214,10.2902,11.3987,3.3835,2.2849,7.1228,3.343,10.8381,3.343M533.3792,494.2678c15.0806,0,34.5911-14.2664,40.5541-26.134.5245-1.0438.5638-4.4227-.5303-4.7954-.6928-.236-1.4567-.3477-2.2798-.3477-11.7111,0-35.5377,22.5872-40.8489,31.0603,1.0081.1463,2.047.2168,3.1049.2168M335.6714,510.4502c14.5412-3.3407,26.0398-10.7959,35.7093-21.127,3.2-4.8048,5.4041-8.9394,7.2806-13.9778-.5668-2.2681-1.152-5.0359-2.3053-5.9434-.9886-.7778-3.4461-1.0258-5.4928-1.3555-17.3479,5.4873-30.7264,24.6324-35.1918,42.4037M326.0238,341.9655c18.9886.0014,34.8884,12.2051,38.5878,31.5663,5.2617,27.537-10.5818,58.7263-28.1682,79.13-23.561,27.3351-55.818,46.9455-92.1634,50.8655-2.1061.2272-4.9037.4621-7.8661.4621-8.0659,0-17.3458-1.7427-17.1577-10.1293.0831-3.7058,2.6967-7.3811,6.724-7.581,9.5289-.473,18.1122-1.6937,27.3163-4.7463,33.531-11.1209,62.1454-33.3894,80.0732-63.937,6.4459-10.9835,10.2921-22.8881,10.9404-35.1828.5404-10.2493-6.25-17.489-16.2162-17.7301-.3123-.0075-.6208-.0113-.9326-.0113-22.094.002-42.9841,18.887-57.3168,34.4694-13.6129,14.8002-24.3399,31.1539-34.752,48.3519-20.6965,34.1848-34.5493,69.9761-48.8524,107.0746-1.8551,4.8115-6.2016,7.9991-10.9778,7.9991-1.3188,0-2.6705-.2431-4.0113-.7621-4.5779-1.772-7.075-7.3643-5.806-12.2698,7.8886-30.4992,26.0783-71.1106,40.4022-99.6055,3.1779-6.3218,11.9452-23.0555,5.8854-27.8251-1.3181-1.0374-3.0236-1.4659-4.9522-1.4659-7.0999,0-17.2063,5.8143-21.9814,8.4761l-16.0332,8.9374c-1.2507.6972-2.7647,1.0281-4.3014,1.0281-2.9998,0-6.0851-1.2617-7.4607-3.5233-3.6586-6.0151-.0186-12.2526,5.6112-14.9086l29.1329-13.7444c7.3005-2.219,14.9208-4.788,22.0579-4.7875,6.4805.0004,12.5628,2.1191,17.6399,8.5419,21.6708-30.9197,51.0647-63.9843,89.3766-68.3914,1.7556-.2019,3.4895-.301,5.2015-.3009M612.5724,302.2592c-.9128,0-1.8431.0424-2.7648.126-9.2846.8415-18.3779,4.8555-27.0264,11.9302-21.309,17.4314-48.0737,60.4097-57.07,79.5719l-28.975,61.7167c-.8477-2.7739-2.1314-5.3961-3.8332-7.7822-4.5193-6.3369-11.5925-10.5433-19.9167-11.8445-2.5023-.3912-5.0748-.5894-7.6465-.5894-16.7906,0-34.2244,8.2344-49.0897,23.1863-3.1386,3.1568-6.0366,6.4885-8.6673,9.9443-.0438-.735-.1061-1.47-.1872-2.2042-1.572-14.2431-13.0916-25.3846-28.0133-27.094-1.7926-.2053-3.6257-.3094-5.4489-.3094-4.6788,0-9.4396.6954-14.1829,2.0363,12.5068-20.4826,21.2025-45.8303,16.6478-69.6675-2.3362-12.2275-8.5024-22.6519-17.832-30.1462-9.0939-7.3053-20.3466-11.1671-32.5415-11.168h-.0001c-2.1718-.0001-4.3835.1275-6.574.3796-40.0396,4.6058-69.9367,35.8784-90.3846,63.137-4.5586-2.2383-9.6566-3.3658-15.2595-3.3661-8.2665-.0006-16.3654,2.4874-23.511,4.6824-.6814.2094-1.3608.418-2.0373.6237l-.8382.2548-.7924.3738-29.1329,13.7445c-6.4071,3.0227-11.1708,8.3823-13.0697,14.7047-1.7461,5.8141-.92,11.9554,2.3263,17.2926,3.4845,5.7287,10.2718,9.2874,17.7132,9.2874,3.6476,0,7.1554-.8806,10.1441-2.5466l16.0332-8.9374.6121-.3417c3.2524-1.8177,6.0541-3.2646,8.394-4.3359-.9505,2.2887-2.2865,5.1901-4.142,8.8672l-.3801.7542c-9.2399,18.3813-31.7606,65.1151-41.2983,101.9902-2.8213,10.9067,2.9293,22.5319,13.0919,26.4656,2.6931,1.0425,5.5002,1.5712,8.343,1.5712,9.7975,0,18.5015-6.1556,22.1746-15.6823,6.2745-16.2746,12.3943-32.148,19.0216-47.6907,4.8951,3.2209,11.4746,4.7958,19.9554,4.7958,2.8452,0,5.8391-.1738,9.153-.5312,20.9981-2.2648,41.3994-9.4128,60.0478-20.8088-4.4235,11.5632-6.2434,23.4297-5.2644,34.3733,1.962,21.9332,19.3812,38.2052,41.4188,38.6911.4753.0106.9489.0156,1.424.0156,22.4605,0,41.9237-11.5309,56.7189-23.3466,3.1889,3.9753,7.3173,7.6351,12.7479,10.1375,6.3768,2.9382,13.2684,4.428,20.483,4.428,14.9707,0,29.1481-6.3902,40.5197-13.7606,4.2211,5.8594,11.352,8.8922,17.6104,8.8922.1951,0,.3895-.0028.5817-.0084,7.5241-.2169,17.1044-4.7848,20.3512-14.3008.8298-2.4324,1.7861-4.7863,2.8741-7.0707.7968,1.1304,1.6444,2.2196,2.5411,3.2635,6.9347,8.0729,16.3152,12.9286,27.1275,14.0419,1.8129.1866,3.658.2812,5.4845.2812,17.507,0,32.9412-8.5787,45.6102-18.2836,5.236,5.3141,11.9961,8.8438,19.8961,10.2679,3.6644.6605,7.4006.9954,11.105.9954,12.2604,0,24.4277-3.5628,36.1641-10.5895,9.7557-5.8408,19.1665-14.1636,27.2152-24.0688.9918-1.2206,1.9657-2.4512,2.9199-3.6871.0247,1.0306.0829,2.0614.1768,3.096,1.3582,14.9722,13.1075,25.4292,28.5723,25.4292,1.6318,0,3.299-.1194,4.955-.3551,9.5016-1.3519,17.6389-5.3929,24.4906-10.121,6.5872,7.9977,15.513,13.8161,25.8369,16.6191,8.285,2.2496,16.7686,3.3901,25.2148,3.3901,35.7025,0,64.3206-19.9779,79.1982-38.6741,11.8132-14.8458,16.8979-30.696,13.95-43.4868-2.014-8.7383-9.906-14.6093-19.6383-14.6093-.9462,0-1.8948.0599-2.8195.178-6.6254.8456-14.778,5.8714-17.5397,13.8405-2.4152,6.9695-5.981,13.2394-10.6625,18.7666-.5085-6.3327-2.1372-12.6715-4.9078-18.7585-3.5521-7.804-8.1561-14.4485-12.6085-20.8745-.7333-1.0583-1.472-2.1244-2.2117-3.2037-.4083-.5959-.7407-1.1129-1.0105-1.5557.3458-.467.6972-.9292.9976-1.3242,2.094-2.7538,4.7001-6.181,6.1802-10.4449,2.1945-6.3214,1.2877-12.9084-2.5536-18.5477-4.0543-5.9523-12.1393-8.8239-18.3534-9.0293-.3319-.011-.6597-.0164-.9875-.0164-9.9291,0-18.8939,4.8725-26.6452,14.482-7.5143,9.3157-7.1421,20.1404-6.0668,27.6661-3.0947,5.183-10.1712,15.5455-19.0588,26.4132-1.6495,2.017-3.2089,3.8672-4.6801,5.5631,2.6285-3.869,5.5202-7.7918,8.6508-11.873,5.1706-6.741,5.4273-17.6572.5723-24.334-2.687-3.6954-7.8911-8.1005-17.4233-8.1005-3.0455,0-6.0539.4113-8.9633.809-1.1917.1629-2.3541.3218-3.4773.4479.5596-5.8213-.1835-12.1399-4.2717-18.0564-4.0792-5.9031-10.7813-9.2887-18.3881-9.2887-6.4211,0-12.8048,2.4386-17.5145,6.6906-6.7325,6.0782-10.519,14.4684-10.6622,23.6252-.0195,1.2492.0294,2.4966.1452,3.7385-5.3279-7.2762-14.0696-11.9827-24.2146-12.5012-.7745-.0396-1.5645-.0598-2.3472-.0598-17.0309,0-34.3661,9.2805-48.8118,26.1319-.4545.5301-.9022,1.0636-1.3453,1.6029-.9426-2.2734-2.1963-4.4033-3.7578-6.3271-4.1669-5.1342-10.494-8.1397-17.9589-8.5729,22.8641-25.5945,39.5663-50.1328,49.8142-73.2303,4.5436-10.2408,6.8781-20.204,6.9387-29.6129.0506-7.8633-2.7856-15.0765-7.9863-20.3106-5.0509-5.0835-11.9402-7.8832-19.3986-7.8832h0ZM234.1657,473.5599c3.505-6.6698,7.2173-13.2866,11.1923-19.8522,9.4014-15.5286,19.9447-31.9027,33.3188-46.4431,18.6708-20.2988,34.9838-30.5919,48.4857-30.593.2141,0,.4269.0026.6423.0078,1.0997.0267,2.602.2636,3.5074,1.2415.7433.8029,1.1036,2.1738,1.0147,3.8604-.5336,10.1215-3.6648,20.1277-9.3065,29.7408-16.0916,27.4191-42.1951,48.2377-73.5013,58.6208-4.9231,1.6328-9.7912,2.7288-15.3535,3.4171h0ZM780.9485,495.2046c5.0975-6.259,10.0955-12.7723,15.1542-19.7521,3.6705,10.1614.2345,15.2863-1.1671,17.3773-2.0393,3.0616-5.2301,4.9454-8.3467,4.9454-1.4702,0-2.8571-.4333-4.1224-1.2877-.4875-.3293-.9966-.7673-1.5181-1.2829h0ZM441.5569,515.1892c-1.4251,0-2.1084-.3578-2.5443-.6696-.61-.436-1.4091-2.8189-.83-6.0147,1.3559-7.4838,4.8787-14.5803,10.7177-21.548.6913,2.739,2.1902,6.4737,5.4258,9.1751,3.436,2.8686,7.691,4.3845,12.3058,4.3845.3856,0,.7721-.011,1.1599-.033-.4236.3734-.8536.7473-1.2907,1.1218-11.6893,10.0154-20.5499,13.5839-24.9443,13.5839h0Z"/>
      <path style="fill: #fff;" d="M612.5725,314.2592c9.0087,0,15.4451,6.7721,15.3851,16.1166-.0546,8.4815-2.381,16.8743-5.9078,24.8234-15.7518,35.5023-46.0241,70.2114-73.8827,97.1384-7.4828,7.2325-15.4172,13.0864-23.2358,19.4674-2.6732,5.2498-5.0577,10.8176-6.9648,17.1059l18.8989-18.8936c4.0852-4.0841,8.9709-7.587,13.6642-11.165,7.5802-5.7791,15.8445-10.7883,25.1419-12.9446,1.7839-.4137,3.7161-.666,5.6381-.666,4.0421,0,8.0411,1.1151,10.5362,4.1894,4.4974,5.5414,3.8206,13.9065.5011,20.2067-10.8291,20.5539-31.0314,33.6205-54.3174,36.9888,2.131,7.6318,8.6237,12.8742,17.0023,12.8742.3611,0,.7248-.0097,1.0928-.0294,16.2961-.8719,28.6157-11.5,39.7875-22.1707,2.0675-27.9405,30.1165-64.8395,59.1661-64.8395.5787,0,1.1554.0145,1.7346.0441,8.5201.4355,16.2017,5.6216,17.9554,13.9105,1.936,9.1502-1.194,17.6693-6.5065,25.2083-11.4372,16.2302-29.2952,26.2127-49.1285,28.3757-.3838,7.5318,5.2651,12.2959,12.5489,12.2959.1669,0,.3343-.0025.5029-.0076,19.7479-.5883,37.0619-19.8254,47.7703-34.9745,7.2892-10.3119,13.8938-20.3655,19.3867-31.8424-7.8593-9.4745-8.0225-22.8893.8564-30.9056,2.54-2.293,6.0801-3.5976,9.4731-3.5976,3.3478,0,6.5522,1.2689,8.5157,4.1104,4.2551,6.1579,1.6941,14.2023-.3659,21.0679,3.32,1.8553,6.9159,2.4301,10.5151,2.4301,5.8549,0,11.7222-1.5204,16.4356-1.5204,3.2474,0,5.9457.7209,7.7177,3.1577,1.5684,2.1571,1.7171,7.2285-.3884,9.9731-10.0428,13.0923-18.9736,26.1112-24.0245,42.0078-.5408,1.702.5284,5.594,1.7645,6.5496.9488.7334,2.071,1.0753,3.3334,1.0753,15.3376,0,51.6472-50.3596,56.0353-60.3831-1.3238-7.4443-2.3318-15.6855,2.9078-22.1812,3.9296-4.8717,9.5095-10.0162,17.3052-10.0162.196,0,.3921.0032.591.0098,3.303.1092,7.3898,1.674,8.8322,3.7914,5.6296,8.2648-4.6602,14.49-7.4347,21.5464-1.0909,2.7744,2.2045,7.9672,3.84,10.3538,5.1009,7.444,10.1539,14.2621,13.7971,22.2664,6.409,14.0802,5.0812,29.6556-3.602,41.9592,4.2959-1.0585,7.2771-2.9144,10.5488-4.9607,14.4781-9.0559,25.2552-21.806,30.8837-38.0485,1.1045-3.187,5.1195-5.5346,7.7213-5.8667.4202-.0536.8561-.0812,1.2994-.0812,3.3243,0,7.0797,1.5505,7.9449,5.3044,5.4404,23.6058-32.2465,67.4659-81.4548,67.4659-7.1477,0-14.5331-.9243-22.0704-2.9708-12.2455-3.3249-21.2921-11.7635-25.83-22.9758-8.7868,7.9875-18.0368,14.5707-29.3319,16.1779-1.1074.1575-2.1989.2354-3.2651.2354-8.715,0-15.776-5.1964-16.6213-14.5134-1.6425-18.1058,11.9291-37.8711,22.3372-52.2466l-16.4487-2.466c-8.6992,17.3345-18.1247,33.8992-30.2491,48.8204-13.4942,16.607-32.6603,30.226-54.0663,30.226-2.9526,0-5.947-.259-8.976-.8051-9.1008-1.6408-15.9059-7.2641-19.3757-16.251-13.3021,11.795-29.7397,24.0763-48.2599,24.0763-1.4072,0-2.8243-.0707-4.2552-.218-16.0491-1.6526-26.0944-14.4797-27.5997-30.9975-8.0818,8.5923-13.8287,17.9779-17.5292,28.8247-1.3131,3.8488-5.7324,6.0768-9.343,6.1808-.0769.0023-.1544.0034-.2323.0034-3.4403,0-7.8936-2.1555-9.0052-6.2994-1.0985-4.0952.6238-8.8869,1.4746-13.6821-13.1169,12.1752-32.0627,24.8499-50.5998,24.8499-5.2331,0-10.4335-1.0101-15.4611-3.3267-7.3524-3.3878-11.549-10.4202-14.6248-17.7935-16.3088,15.0109-36.9754,29.9012-59.8638,29.9012-.3864,0-.7719-.0042-1.1595-.0128-16.0056-.3529-28.3062-11.8343-29.7312-27.7631-3.1878-35.6341,29.768-77.0425,61.6307-77.0425,1.3649,0,2.7252.0758,4.0831.2313,8.9747,1.0281,16.4401,7.3248,17.4516,16.4887.8231,7.4576-1.0477,14.8478-4.9794,21.3901-11.9465,19.8799-32.3489,31.9404-55.1165,34.9396.3458,8.0202,7.2548,13.244,15.1431,13.244.2086,0,.4169-.0036.6267-.011,19.7999-.692,37.6567-17.0953,51.946-29.9753,3.7739-27.382,33.2671-59.8304,62.2518-59.8304,1.9363,0,3.8694.1447,5.7934.4455,9.9552,1.5561,16.3034,9.3552,14.5302,19.2841-2.2664,12.6906-11.8838,21.399-19.0314,21.399-1.7295,0-3.3136-.5095-4.6149-1.5958-1.5653-1.3069-2.4452-6.0109-1.1893-7.7802l6.6898-9.4243c.6945-.9786,1.2281-3.3272.8137-4.3243-.5809-1.3982-1.9594-1.9987-3.8044-1.9987-5.2294,0-14.2076,4.8237-19.4036,9.9792-9.2344,9.1624-16.3999,20.0305-18.7485,32.9933-1.165,6.4304.1659,13.9888,5.6588,17.9158,2.8302,2.0235,6.059,2.9077,9.5233,2.9077,20.5255,0,49.3873-31.0115,53.5108-39.7945l41.506-88.4078c9.6003-20.4489,35.6471-60.5292,53.8054-75.3833,6.0095-4.9159,12.912-8.5785,20.5129-9.2675.5692-.0516,1.1296-.0769,1.6804-.0769M537.0709,444.1135c27.0309-24.468,66.1664-71.4721,74.5903-105.4878.4682-1.8908-.2236-5.6559-1.7766-6.1079-.549-.1598-1.2397-.224-1.9956-.224-1.4047,0-3.0347.2215-4.4014.4627-7.9384,6.6662-14.3386,13.9597-20.122,22.9703-17.9437,27.9566-33.2147,57.2067-46.2947,88.3867M709.1886,432.7462c1.1644-2.9133,1.7899-6.7255,1.5353-9.8403-.0513-.6277-1.2419-.9501-2.2467-.9501-.6326,0-1.1916.1277-1.3466.3876-.8884,1.4894-2.0221,4.5103-1.6239,5.9328.3779,1.3497,1.9198,3.0259,3.6819,4.4701M620.5167,486.4598c15.2579-3.5511,32.3878-14.0999,37.9038-28.6529,1.2192-3.2166-.1271-7.8597-3.842-8.1992-.4205-.0384-.8416-.0573-1.2618-.0573-15.0172,0-29.7103,24.0229-32.7999,36.9094M786.589,509.7751c7.0488,0,14.0135-3.8066,18.3147-10.2641,10.473-15.6249,2.1821-32.9969-7.8679-46.3541-10.1281,15.0157-20.0812,28.4431-31.5751,41.8765,2.9299,3.9424,6.1776,8.6215,10.2902,11.3987,3.3835,2.285,7.1228,3.343,10.8381,3.343M533.3792,494.2679c15.0806,0,34.591-14.2664,40.5541-26.134.5244-1.0438.5639-4.4228-.5303-4.7955-.6928-.236-1.4566-.3477-2.2798-.3477-11.7111,0-35.5377,22.5872-40.8489,31.0604,1.0081.1463,2.0469.2168,3.1049.2168M335.6714,510.4502c14.5411-3.3408,26.0397-10.7959,35.7094-21.1269,3.1999-4.8049,5.4041-8.9395,7.2805-13.978-.5668-2.268-1.152-5.0359-2.3052-5.9433-.9886-.7778-3.4461-1.0258-5.4929-1.3556-17.3478,5.4874-30.7263,24.6326-35.1917,42.4038M326.0238,341.9655c18.9886.0014,34.8884,12.205,38.5879,31.5663,5.2617,27.537-10.5818,58.7264-28.1683,79.13-23.561,27.3351-55.818,46.9456-92.1633,50.8654-2.1061.2272-4.9038.4621-7.8662.4621-8.0659,0-17.3456-1.7427-17.1576-10.1293.083-3.7056,2.6968-7.3811,6.724-7.581,9.5289-.473,18.1122-1.6937,27.3163-4.7463,33.5311-11.1208,62.1454-33.3893,80.0732-63.9369,6.446-10.9834,10.2922-22.8881,10.9406-35.1827.5403-10.2493-6.25-17.489-16.2162-17.7301-.3123-.0075-.6209-.0113-.9327-.0113-22.0941.002-42.9841,18.8868-57.3168,34.4692-13.6129,14.8002-24.3398,31.1541-34.752,48.3519-20.6964,34.1848-34.5493,69.9762-48.8524,107.0746-1.855,4.8115-6.2015,7.9991-10.9777,7.9991-1.3188,0-2.6705-.2431-4.0114-.7621-4.578-1.772-7.075-7.3641-5.8061-12.2698,7.8886-30.4991,26.0784-71.1105,40.4023-99.6054,3.1779-6.3218,11.9451-23.0556,5.8854-27.825-1.3181-1.0375-3.0237-1.4661-4.9524-1.4661-7.0999,0-17.2063,5.8143-21.9814,8.4761l-16.0331,8.9374c-1.2507.6971-2.7647,1.0281-4.3014,1.0281-2.9998,0-6.0851-1.2617-7.4607-3.5233-3.6586-6.0152-.0187-12.2524,5.6111-14.9086l29.133-13.7444c7.3005-2.219,14.9208-4.788,22.0579-4.7876,6.4804.0004,12.5628,2.1191,17.6399,8.5419,21.6708-30.9197,51.0647-63.9843,89.3766-68.3914,1.7556-.202,3.4895-.301,5.2015-.3009M612.5726,309.2593c-.7019,0-1.419.0328-2.1316.0973-7.8672.7131-15.6819,4.2044-23.2275,10.3769-18.7859,15.3674-45.2205,55.9451-55.1656,77.1285l-41.506,88.4078c-1.6176,3.4454-9.2377,12.842-19.3379,21.524-11.5497,9.9279-22.0785,15.3954-29.6469,15.3954-2.5925,0-4.7565-.646-6.6154-1.9752-3.9171-2.8003-4.4127-8.73-3.6469-12.957,1.9501-10.7637,7.6254-20.6865,17.3502-30.3353,3.7893-3.7598,9.5161-6.9369,13.3599-8.0775l-5.2543,7.402c-2.9363,4.1368-1.3275,11.6827,2.0621,14.5126,2.1609,1.8041,4.8647,2.7577,7.8193,2.7577,4.9808,0,10.4365-2.7314,14.9683-7.4939,4.5772-4.8104,7.7682-11.2122,8.9851-18.026,1.0471-5.8629-.1539-11.5844-3.3817-16.1104-3.4169-4.7912-8.85-7.9849-15.2985-8.9929-2.1453-.3354-4.3544-.5055-6.5656-.5055-14.6971,0-30.7803,7.6985-44.1258,21.1217-11.937,12.0063-20.3544,27.2637-22.7906,41.1822-13.4413,12.1176-30.0668,26.897-47.4561,27.5048-.1514.0053-.3016.008-.452.008-3.4203,0-6.9323-1.4384-8.7974-4.2252,22.6005-4.4875,41.7275-17.5308,53.0566-36.3829,4.6255-7.697,6.584-16.1739,5.6634-24.5141-1.2305-11.1491-10.0123-19.5512-21.8522-20.9077-1.5284-.175-3.0936-.2638-4.6522-.2638-14.8806,0-30.8932,8.1772-43.9325,22.4349-15.7605,17.2335-24.4504,40.2446-22.6784,60.0532.799,8.9313,4.6933,17.0753,10.9657,22.9316,6.2698,5.8541,14.6638,9.187,23.6354,9.3848.4245.0093.8466.014,1.2698.014,23.4286,0,43.7699-14.1544,58.2261-26.7215,2.9665,5.3832,7.3586,11.0162,14.17,14.1548,5.4517,2.5119,11.3576,3.7856,17.5536,3.7856,16.6095,0,32.4442-8.9883,43.8238-17.6246.0748.9136.2252,1.8313.4722,2.7523,1.7617,6.5676,8.293,10.004,13.8344,10.004.1265,0,.2521-.0018.3768-.0054,5.3537-.1544,11.858-3.4893,13.9307-9.5642,2.3748-6.9609,5.6781-13.3331,10.0111-19.2827,4.6338,13.965,15.5919,23.3441,29.8736,24.8146,1.575.1622,3.179.2444,4.7672.2444,17.9933,0,34.0342-10.5426,46.6984-21.1271,4.5389,7.0605,11.4707,11.6757,20.0503,13.2224,3.2552.5868,6.5735.8843,9.863.8843,10.9763,0,21.9338-3.2283,32.5685-9.5955,9.0632-5.4261,17.8389-13.1987,25.3783-22.4773,12.6262-15.5388,22.1451-32.6551,29.2003-46.4932l4.832.7244c-10.5227,15.2076-20.0528,32.1918-18.5316,48.9596,1.0344,11.4014,9.715,19.0616,21.6008,19.0616,1.3034,0,2.6389-.0959,3.9694-.2853,10.8385-1.5422,19.6484-7.0594,27.0161-13.1089,5.764,9.7947,14.8442,16.7173,26.1314,19.782,7.6873,2.0871,15.5536,3.1454,23.3804,3.1454,33.2137,0,59.8594-18.6135,73.7208-36.0329,10.4777-13.167,15.0724-26.8557,12.6063-37.5559-1.2659-5.4918-6.4167-9.1815-12.8173-9.1815-.6515,0-1.3018.0409-1.933.1216-4.4369.5663-10.0686,4.1583-11.8121,9.189-4.7535,13.7177-13.4585,24.9853-25.9006,33.5383,3.05-10.6359,2.218-22.2173-2.6547-32.9225-3.2919-7.2323-7.517-13.3301-11.99-19.786-.7405-1.0687-1.4865-2.1452-2.2333-3.2352-2.5214-3.6793-3.0456-5.5059-3.1537-6.0693.6853-1.5093,1.9792-3.2109,3.343-5.0045,3.6953-4.8594,9.2794-12.2032,3.4134-20.815-2.6577-3.9014-8.4978-5.8315-12.7994-5.9738-.2548-.0084-.5056-.0125-.7562-.0125-7.817,0-14.7505,3.885-21.197,11.877-6.0892,7.549-5.5449,16.5291-4.2164,24.5802-2.8908,5.4711-11.9698,18.799-22.5511,31.4883-15.0828,18.0876-24.6118,24.5668-28.2266,24.6343-.153-.4579-.2817-1.038-.2982-1.3967,4.6061-14.3258,12.5843-26.4377,23.1349-40.1922,3.3002-4.3022,3.5176-11.7587.4651-15.9568-3.7936-5.2172-9.7908-5.2172-11.7617-5.2172-2.5692,0-5.2147.3617-8.0152.7446-2.7898.3815-5.6746.7758-8.4205.7758-1.6484,0-3.1113-.1408-4.4346-.4325,1.7598-6.5245,2.9547-14.3149-1.6011-20.908-2.7524-3.9833-7.3555-6.268-12.6291-6.268-4.7099,0-9.384,1.781-12.8237,4.8864-9.8923,8.931-11.1102,23.562-3.34,35.1525-5.326,10.5642-11.6011,19.8839-17.6355,28.4207-18.8333,26.6431-34.2335,32.5768-43.8363,32.8629-.1182.0035-.2363.0053-.354.0053-2.4957,0-4.6147-.7836-5.9668-2.2062-.2623-.276-.4926-.5731-.6907-.8909,19.2994-3.4736,36.3364-14.1016,47.3243-29.6943,6.8757-9.7571,9.3354-19.5557,7.3112-29.1234-2.1384-10.1067-11.2173-17.2876-22.5919-17.8689-.6586-.0337-1.3279-.0507-1.9899-.0507-14.7382,0-30.5925,8.6339-43.4974,23.6877-11.3159,13.2003-18.8717,29.4289-20.473,43.82-10.5698,9.993-21.3343,18.765-35.2504,19.5095-.2778.0149-.5527.0223-.8256.0223-3.891,0-7.2397-1.5215-9.5308-4.1745,22.5146-5.0903,40.9692-18.8076,51.2695-38.3578,3.5966-6.8262,5.4816-17.6499-1.0425-25.6882-3.2061-3.9504-8.192-6.0386-14.4184-6.0386-2.2151,0-4.492.2676-6.7676.7952-4.1405.9603-8.2524,2.4561-12.4719,4.5573,30.6766-31.2224,52.3649-60.9039,64.5499-88.3672,4.1509-9.3558,6.283-18.379,6.3373-26.8191.0386-5.985-2.0753-11.43-5.952-15.3317-3.7271-3.7511-8.8528-5.817-14.4329-5.817h0ZM605.6575,337.4755c.4406-.0602.8217-.1017,1.1489-.1296-.0017.0445-.0048.0855-.0095.122-3.652,14.7034-13.8385,33.5448-29.4613,54.493-7.4576,9.9998-16.0634,20.2803-24.7903,29.7014,10.4275-22.0598,21.9894-42.9199,35.0283-63.2346,5.233-8.1532,11.0027-14.8423,18.084-20.9521h0ZM628.8144,478.492c1.9009-3.9419,4.4583-8.2495,7.573-12.2455,5.7936-7.433,11.964-11.696,16.9291-11.696.141,0,.2822.0033.4226.0099.1234.3573.1889.9914.0058,1.4743-3.8499,10.1572-14.3586,17.9927-24.9305,22.4573h0ZM771.8404,495.2375c8.5388-10.1829,16.7037-20.9472,25.2383-33.2792,8.8458,13.8555,10.0368,25.2725,3.6716,34.7688-3.3097,4.9688-8.7329,8.048-14.1614,8.048-2.8915,0-5.5966-.8367-8.0397-2.4867-2.4053-1.6242-4.655-4.3369-6.7088-7.051h0ZM542.3257,487.5764c2.6597-2.6828,5.7887-5.5838,9.1653-8.3846,7.1682-5.9459,12.6551-9.1361,16.2718-10.4567-5.0895,7.3911-15.5592,15.4241-25.4371,18.8413h0ZM343.4946,502.817c2.2639-5.3768,5.29-10.5453,8.8668-15.0779,5.621-7.123,12.1499-12.1383,18.9445-14.5668.5068.0762,1.1594.1766,1.6839.2792.1473.4546.3016,1.0292.4385,1.5664-1.5225,3.8038-3.3223,7.1624-5.9802,11.1885-7.2343,7.6543-15.1324,13.14-23.9536,16.6107h0ZM326.0242,336.9655c-1.9057-.0001-3.8482.1121-5.7734.3337-39.9806,4.599-69.7558,38.3643-89.4319,65.6126-4.7424-3.8502-10.4409-5.7955-17.0126-5.796-7.2157-.0003-14.4547,2.2234-21.4553,4.3741-.688.2113-1.3739.422-2.057.6296l-.3492.1061-.3301.1558-29.133,13.7444c-4.6148,2.1772-8.0234,5.9633-9.3522,10.3875-1.1677,3.888-.5985,8.0223,1.6027,11.6413,2.2228,3.6548,6.7184,5.9251,11.7326,5.9251,2.4576,0,4.7868-.5743,6.7359-1.6608l16.0331-8.9374.6052-.338c4.359-2.4361,13.4292-7.5053,18.9417-7.5053.8312,0,1.4908.1335,1.8232.3676.1065.2244.8486,2.1522-1.2516,8.3226-1.5899,4.6707-4.0981,9.6411-5.5966,12.6107l-.3752.7444c-9.1389,18.1803-31.4067,64.3765-40.7757,100.599-1.9464,7.5245,1.9375,15.5123,8.8419,18.1848,1.8846.7294,3.8413,1.0992,5.8162,1.0992,6.8795,0,13.0199-4.3965,15.6431-11.2004,7.4732-19.3837,15.0863-39.1299,23.8118-58.6033.5644,2.1256,1.6379,4.025,3.1867,5.6089,3.6962,3.78,9.7509,5.6176,18.5099,5.6176,2.5903,0,5.3387-.1605,8.4022-.4908,35.6192-3.8417,69.5048-22.5121,95.4146-52.5723,17.8919-20.7581,34.9828-53.5504,29.292-83.3329-4.0714-21.3085-21.5522-35.6263-43.4985-35.6279h0ZM222.0261,482.1056c5.2877-10.8516,11.0109-21.5631,17.3438-32.0233,9.59-15.8399,20.3652-32.5643,34.1548-47.5565,20.3331-22.1061,37.878-32.8528,53.6372-32.8541.2798,0,.544.0033.8113.0098,3.5132.085,6.4438,1.2896,8.4753,3.4835,2.0689,2.2343,3.0609,5.3412,2.8688,8.9849-.5933,11.252-4.0452,22.3262-10.2596,32.9152-16.9515,28.8842-44.4163,50.8041-77.3349,61.7219-7.9734,2.6444-15.7462,3.9897-25.9902,4.4982-1.2993.0645-2.5457.3498-3.7064.8205h0Z"/>
    </g>
    <g>
      <path style="fill: #132448;" d="M43.9774,421.0267c-.5899,0-1.1965-.1084-1.8026-.3219-1.8268-.6439-4.1661-3.5651-4.8771-5.5829,2.5043-7.5106,5.4362-14.0319,7.977-19.4259,8.9651-19.0317,19.2494-37.667,28.3233-54.1085l.3533-.6403-.7302.0379c-5.334.2763-17.1922,2.5122-27.803,5.7754-9.3188,2.8659-20.804,7.4487-22.5986,13.0054l-.103.3188.2934.162c1.468.8108,3.1243,1.2048,5.0639,1.2048,2.1865,0,4.3287-.5014,6.2187-.9438,1.4356-.336,2.6753-.6262,3.6265-.6262,1.101,0,1.4309.4111,1.5954.7693.3781.8233-.3694,3.2549-1.1266,3.6646-4.0175,2.1728-11.4608,4.5121-18.309,4.5125-4.2946,0-9.7751-.965-11.4961-5.5639-4.0608-10.8514,15.3717-19.4888,23.915-22.6989,17.7068-6.6525,39.3321-10.6242,57.8478-10.6242,10.1202,0,19.2222,1.129,27.053,3.3553l.2608.0742.1687-.2124c4.6874-5.9015,12.819-12.2531,19.5958-12.2531,2.1071,0,3.9939.6131,5.6081,1.8227,1.5367,1.1514,2.6184,4.3658,2.3149,6.879-1.7959,14.8689-22.4063,30.0284-36.5942,35.2551l-.1566.058-7.0019,14.935.632.4819c.6802-.5812,1.4781-1.2941,2.4022-2.1194,5.8273-5.2046,15.5803-13.9158,22.8501-13.9158,2.1295,0,3.8412.7409,5.2328,2.2653,1.964,2.1512,1.7663,6.3268.4567,8.9615l-9.3055,18.7217c-.5532,1.1131-.2549,3.8537.2322,4.8132.4075.8031,1.1589,1.2274,2.1736,1.2274,4.6298,0,14.2743-8.6864,15.6474-10.1996l.1082-.1191-.0028-.1612c-.1372-7.8794,4.0498-17.1215,10.9269-24.1192,6.1458-6.2538,13.5671-9.8404,20.3607-9.8404l.2461.0016c2.5235.0312,4.7818,1.0295,6.1962,2.7391,1.3132,1.5871,1.8179,3.691,1.4209,5.9239-1.9852,11.1654-15.5323,21.0376-26.5298,26.0993l-.3184.1465.0981.3362c.8894,3.0543,3.3097,4.6028,7.1938,4.6028,6.3659,0,14.8822-4.2793,17.79-6.2316,1.9096-1.2818,3.7204-2.7224,5.3177-3.9935,3.0951-2.4624,5.7679-4.5889,7.8349-4.5889.3872,0,.739.073,1.0748.2231.1407.0627.3559.3569.4998.9789.2394,1.0345.1389,2.358-.2106,2.7768-8.0159,9.5962-21.6828,19.8506-36.001,19.8506-1.7973,0-3.5828-.1655-5.3068-.4922-3.6711-.6959-6.7361-2.9161-9.11-6.5999l-.2672-.4144-.3559.3414c-1.9175,1.8407-5.8505,4.9581-10.6244,7.6872-3.6549,2.0892-8.9341,4.5798-13.3297,4.5798-3.2335,0-5.4793-1.3802-6.6748-4.103-2.14-4.8735-.3622-10.0595,1.5063-13.5516l7.6231-14.2483c.3644-.6808.0653-2.2857-.3229-2.9725-.187-.3307-.416-.5053-.6806-.5188-.0458-.0024-.0961-.0036-.1499-.0036-.5895,0-1.7429.1516-2.3278.5581-12.5125,8.6908-22.3589,20.8125-29.2655,36.0294-.9914,2.1841-3.059,3.6608-5.1449,3.6743h-.0419c-1.7308,0-3.8446-.7062-4.5238-1.5116-.8612-1.0214-1.4128-3.7946-.8187-5.3412,6.7149-17.4804,17.9391-43.2458,33.278-66.7221l.3618-.5538-.6576-.0726c-4.8285-.5329-9.4835-.7919-14.2316-.7919-3.641,0-7.3316.1506-11.2825.4609l-.2247.0177-.1042.1999c-12.4073,23.8253-24.0583,48.7392-35.6183,76.1659-.9156,2.1726-2.8804,4.494-5.6492,4.494ZM169.0847,363.3702c-8.3668,4.7842-13.3515,11.5731-14.8157,20.1769l-.1322.7765.7094-.3422c8.3496-4.0252,14.2548-9.3192,18.053-16.1843.4359-.788.5575-2.7954.0806-3.6924-.2136-.4015-.4998-.5073-.7022-.5252l-3.082-.2727-.1108.0633ZM136.6814,328.0209c-4.1963,0-9.7552,7.085-11.3717,9.5671l-.0762.1169.0117.1389c.2128,2.5374-.9206,4.0691-3.5667,4.8205l-.1459.0415-.0832.1268c-3.0082,4.5917-5.4605,8.5411-7.6501,12.8918l-.5196,1.0323,1.0514-.4797c9.0429-4.1263,14.801-10.3203,20.3697-16.3105l.0163-.0175.0139-.0191c1.0266-1.4023,5.0198-7.6614,4.3097-10.4076-.1477-.5704-.4752-.9765-.9738-1.2068-.4234-.1957-.8896-.2947-1.3854-.2947Z"/>
      <path style="fill: #bf203c;" d="M137.4233,320.9049c2.1071,0,3.9939.6131,5.6082,1.8227,1.5366,1.1514,2.6183,4.3658,2.3149,6.879-1.7959,14.8689-22.4063,30.0285-36.5942,35.2551l-.1566.058-7.0019,14.9351.632.4819c.6802-.5811,1.4781-1.2941,2.4023-2.1194,5.8272-5.2046,15.5803-13.9158,22.8501-13.9158,2.1295,0,3.8413.7409,5.2328,2.2653,1.964,2.1512,1.7663,6.3268.4567,8.9615l-9.3054,18.7217c-.5533,1.1131-.2549,3.8537.2322,4.8132.4075.8031,1.1589,1.2274,2.1736,1.2274,4.6298,0,14.2743-8.6864,15.6474-10.1996l.1082-.1191-.0028-.1611c-.1371-7.8794,4.0498-17.1215,10.9268-24.1192,6.1458-6.2538,13.567-9.8404,20.3607-9.8404l.2461.0015c2.5235.0312,4.7818,1.0295,6.1962,2.7391,1.3132,1.5871,1.8179,3.691,1.4209,5.9239-1.9852,11.1655-15.5322,21.0376-26.5298,26.0993l-.3184.1465.098.3362c.8894,3.0543,3.3098,4.6028,7.1938,4.6028,6.366,0,14.8822-4.2793,17.79-6.2316,1.9096-1.2818,3.7204-2.7224,5.3177-3.9935,3.0952-2.4624,5.7679-4.5889,7.8349-4.5889.3872,0,.739.0731,1.0748.2231.1407.0627.3559.3569.4998.9789.2393,1.0345.1389,2.358-.2106,2.7768-8.016,9.5962-21.6828,19.8506-36.001,19.8506-1.7973,0-3.5828-.1655-5.3068-.4922-3.6711-.6959-6.7361-2.9161-9.11-6.6l-.2672-.4144-.3559.3414c-1.9175,1.8408-5.8505,4.9581-10.6244,7.6873-3.6549,2.0892-8.9341,4.5798-13.3297,4.5798-3.2335,0-5.4793-1.3802-6.6748-4.103-2.14-4.8735-.3622-10.0595,1.5063-13.5516l7.6231-14.2483c.3644-.6808.0653-2.2857-.3229-2.9725-.187-.3307-.416-.5053-.6806-.5188-.0458-.0024-.096-.0036-.1498-.0036-.5896,0-1.7429.1517-2.3278.5581-12.5125,8.6908-22.3589,20.8125-29.2655,36.0294-.9914,2.1841-3.059,3.6608-5.1449,3.6743h-.0419c-1.7308,0-3.8446-.7062-4.5238-1.5116-.8612-1.0214-1.4128-3.7946-.8187-5.3412,6.7148-17.4803,17.939-43.2458,33.278-66.7221l.3618-.5538-.6576-.0727c-4.8285-.5329-9.4835-.7919-14.2316-.7919-3.6409,0-7.3315.1506-11.2825.4609l-.2247.0177-.1042.1999c-12.4073,23.8253-24.0583,48.7392-35.6183,76.1659-.9156,2.1726-2.8804,4.494-5.6492,4.494-.5899,0-1.1965-.1083-1.8026-.3219-1.8269-.6439-4.1662-3.5652-4.8771-5.5829,2.5043-7.5106,5.4362-14.0319,7.977-19.4259,8.9651-19.0317,19.2495-37.6671,28.3233-54.1086l.3533-.6403-.7302.0379c-5.334.2763-17.1922,2.5122-27.803,5.7755-9.3187,2.8659-20.804,7.4486-22.5986,13.0054l-.103.3188.2934.162c1.468.8108,3.1243,1.2048,5.0639,1.2048,2.1865,0,4.3287-.5013,6.2187-.9438,1.4356-.3361,2.6754-.6262,3.6264-.6262,1.101,0,1.4309.4111,1.5954.7693.3781.8233-.3694,3.2549-1.1266,3.6646-4.0175,2.1728-11.4608,4.5121-18.309,4.5125-4.2946,0-9.7751-.965-11.4961-5.5639-4.0607-10.8515,15.3717-19.4888,23.915-22.6989,17.7069-6.6525,39.3321-10.6242,57.8478-10.6242,10.1202,0,19.2222,1.129,27.053,3.3554l.2608.0742.1687-.2124c4.6874-5.9015,12.819-12.2531,19.5958-12.2531M113.2797,356.7568l1.0514-.4797c9.0429-4.1263,14.8011-10.3203,20.3697-16.3105l.0163-.0175.0139-.019c1.0265-1.4023,5.0198-7.6614,4.3097-10.4076-.1477-.5704-.4752-.9766-.9738-1.2068-.4234-.1957-.8896-.2947-1.3854-.2947-4.1963,0-9.7552,7.085-11.3717,9.567l-.0762.1169.0117.1389c.2128,2.5375-.9206,4.0691-3.5667,4.8206l-.1458.0415-.0832.1268c-3.0082,4.5917-5.4604,8.5411-7.6501,12.8919l-.5197,1.0323M154.1368,384.3236l.7094-.3422c8.3496-4.0252,14.2548-9.3192,18.053-16.1843.4359-.788.5576-2.7954.0805-3.6924-.2135-.4016-.4998-.5074-.7022-.5252l-3.0821-.2728-.1107.0634c-8.3668,4.7842-13.3515,11.5731-14.8157,20.1769l-.1322.7764M137.4233,312.9049c-8.3551,0-16.7104,5.5974-22.5229,11.5129-7.3947-1.6452-15.6296-2.477-24.5554-2.477-19.4256,0-42.1027,4.1628-60.6614,11.1353-31.2299,11.7345-31.3199,25.7071-28.5939,32.9916,1.5039,4.0186,5.9706,10.7601,18.9887,10.7601,8.2835-.0005,17.0757-2.7505,22.1147-5.4757,4.463-2.4146,6.7364-9.3689,4.5908-14.0403-.3659-.7966-.8278-1.5177-1.3721-2.1554.7489-.2462,1.535-.4963,2.3577-.7493,3.7143-1.1423,7.6187-2.1583,11.2984-2.9949-7.0399,12.9034-14.3777,26.7514-21.0306,40.8746-2.6386,5.6017-5.6915,12.3945-8.329,20.3046-.5624,1.6865-.5469,3.5123.0439,5.1891,1.3707,3.8901,5.2582,8.8814,9.7629,10.4694,1.4636.5156,2.9645.7769,4.4621.7769,5.5917,0,10.5811-3.597,13.0213-9.3872,10.8621-25.7709,21.8011-49.2994,33.378-71.7852,2.2119-.1112,4.3562-.1659,6.4796-.1659.3448,0,.6892.0015,1.0331.0044-12.2692,20.8206-21.427,42.1044-27.2517,57.2674-1.5971,4.1577-.6436,10.0291,2.1706,13.3668,2.7107,3.2144,7.4257,4.3547,10.6399,4.3547.0172,0,.0763,0,.0934-.0002,5.2274-.0337,10.086-3.3182,12.378-8.3676,2.146-4.728,4.5966-9.124,7.3424-13.1765.0277,2.7111.5814,5.3253,1.6653,7.7937,2.4795,5.6473,7.5822,8.8865,13.9997,8.8865,4.9388,0,10.7593-1.8957,17.2999-5.6344,2.2686-1.2969,4.3678-2.6693,6.2137-3.9921,2.5777,1.9711,5.5015,3.2893,8.6835,3.8925,2.2139.4195,4.5005.6321,6.7968.6321,8.0695,0,16.3161-2.5184,24.5106-7.4854,6.4039-3.8816,12.6651-9.2927,17.6302-15.2366,3.0638-3.6714,2.091-8.7318,1.8649-9.7089-.9507-4.1095-3.5626-5.8249-5.0349-6.4816-1.3613-.608-2.8205-.917-4.3338-.917-2.4897,0-4.7176.8062-6.8484,2.0302,1.6805-2.948,2.7968-5.9538,3.3385-9.0005.8033-4.5181-.3389-9.0466-3.1337-12.4243-2.9148-3.523-7.3839-5.5783-12.261-5.6386l-.2948-.002c-.0167,0-.0335-.0001-.0502-.0001-8.9258,0-18.4266,4.4588-26.0667,12.233-2.0891,2.1258-3.9644,4.4089-5.6003,6.793-.5383-2.084-1.5158-4.0541-3.0224-5.7043-1.0172-1.1143-2.1499-2.045-3.38-2.7842,9.2165-7.6642,16.7926-17.4135,18.0498-27.8226.5585-4.6252-1.1377-11.0017-5.4601-14.2404-2.9864-2.2377-6.5844-3.4205-10.4053-3.4205h0Z"/>
      <path style="fill: #fff;" d="M137.4234,320.9049c2.1071,0,3.9939.6131,5.6081,1.8227,1.5367,1.1514,2.6184,4.3658,2.3149,6.879-1.7959,14.8689-22.4063,30.0284-36.5942,35.2551l-.1566.058-7.0019,14.9351.632.4819c.6802-.5811,1.4781-1.2941,2.4023-2.1194,5.8272-5.2046,15.5803-13.9158,22.8501-13.9158,2.1295,0,3.8412.7409,5.2328,2.2653,1.964,2.1512,1.7663,6.3268.4567,8.9615l-9.3055,18.7217c-.5532,1.1131-.2549,3.8537.2322,4.8132.4075.8031,1.1589,1.2274,2.1736,1.2274,4.6298,0,14.2743-8.6864,15.6474-10.1996l.1082-.1191-.0028-.1611c-.1371-7.8794,4.0498-17.1215,10.9268-24.1192,6.1458-6.2538,13.5671-9.8404,20.3607-9.8404l.2461.0016c2.5235.0312,4.7818,1.0295,6.1962,2.7391,1.3132,1.587,1.8179,3.691,1.4209,5.9239-1.9852,11.1654-15.5323,21.0376-26.5298,26.0993l-.3184.1465.0981.3362c.8894,3.0543,3.3097,4.6028,7.1938,4.6028,6.3659,0,14.8822-4.2793,17.79-6.2316,1.9096-1.2818,3.7204-2.7224,5.3177-3.9935,3.0952-2.4624,5.7679-4.5889,7.8349-4.5889.3872,0,.739.0731,1.0748.2231.1407.0627.3559.3569.4998.9789.2393,1.0345.1389,2.358-.2106,2.7768-8.0159,9.5962-21.6828,19.8506-36.001,19.8506-1.7973,0-3.5828-.1655-5.3069-.4922-3.6711-.6959-6.7361-2.9161-9.1099-6.6l-.2672-.4144-.3559.3414c-1.9175,1.8408-5.8505,4.9581-10.6244,7.6873-3.6549,2.0892-8.9341,4.5798-13.3297,4.5798-3.2335,0-5.4793-1.3802-6.6748-4.103-2.14-4.8735-.3622-10.0595,1.5063-13.5516l7.6231-14.2483c.3644-.6808.0653-2.2857-.3229-2.9725-.187-.3307-.416-.5053-.6806-.5188-.0458-.0024-.0961-.0036-.1498-.0036-.5895,0-1.7429.1517-2.3278.5581-12.5125,8.6908-22.3589,20.8125-29.2655,36.0294-.9914,2.1841-3.059,3.6608-5.1449,3.6743h-.0419c-1.7308,0-3.8446-.7062-4.5238-1.5116-.8612-1.0214-1.4128-3.7946-.8188-5.3412,6.7149-17.4803,17.9391-43.2458,33.278-66.7221l.3618-.5538-.6576-.0727c-4.8285-.5329-9.4835-.7919-14.2316-.7919-3.641,0-7.3315.1506-11.2825.4609l-.2247.0177-.1042.1999c-12.4073,23.8253-24.0583,48.7392-35.6183,76.1659-.9156,2.1726-2.8804,4.494-5.6492,4.494-.5899,0-1.1965-.1083-1.8026-.3219-1.8268-.6439-4.1662-3.5652-4.8771-5.5829,2.5043-7.5106,5.4362-14.0319,7.977-19.4259,8.9651-19.0317,19.2494-37.667,28.3233-54.1085l.3533-.6403-.7302.0379c-5.334.2763-17.1922,2.5122-27.803,5.7755-9.3188,2.8659-20.804,7.4486-22.5987,13.0054l-.103.3188.2934.162c1.468.8108,3.1243,1.2048,5.0639,1.2048,2.1865,0,4.3287-.5014,6.2187-.9438,1.4356-.336,2.6753-.6262,3.6265-.6262,1.101,0,1.4309.4111,1.5954.7693.3781.8233-.3694,3.2549-1.1266,3.6646-4.0175,2.1728-11.4608,4.5121-18.309,4.5125-4.2946,0-9.7751-.965-11.4961-5.5639-4.0607-10.8514,15.3717-19.4888,23.915-22.6989,17.7068-6.6526,39.3321-10.6242,57.8477-10.6242,10.1202,0,19.2222,1.129,27.053,3.3553l.2608.0742.1687-.2124c4.6873-5.9015,12.819-12.2531,19.5958-12.2531M113.2797,356.7568l1.0514-.4797c9.0429-4.1263,14.8011-10.3203,20.3697-16.3105l.0163-.0175.0139-.019c1.0266-1.4023,5.0198-7.6614,4.3097-10.4077-.1477-.5704-.4752-.9765-.9738-1.2067-.4234-.1957-.8896-.2947-1.3854-.2947-4.1964,0-9.7552,7.085-11.3717,9.567l-.0762.1169.0117.1389c.2128,2.5374-.9206,4.0691-3.5667,4.8205l-.1459.0415-.0832.1268c-3.0082,4.5917-5.4605,8.5411-7.6501,12.8918l-.5196,1.0323M154.1368,384.3236l.7094-.3422c8.3496-4.0252,14.2548-9.3192,18.053-16.1843.4359-.788.5575-2.7954.0806-3.6924-.2136-.4015-.4998-.5073-.7022-.5252l-3.0821-.2727-.1107.0633c-8.3668,4.7842-13.3515,11.5732-14.8157,20.177l-.1322.7764M137.4234,317.9049c-7.2947,0-15.4819,5.8596-20.8439,12.0597-7.7162-2.0072-16.5311-3.0238-26.2344-3.0238-18.8569,0-40.8767,4.0433-58.9028,10.8158-4.8723,1.8307-11.8437,4.854-17.3865,8.861-9.6966,7.0098-9.8565,13.4931-8.2831,17.6976,1.2826,3.4272,4.8056,7.5125,14.3058,7.5125,7.4094-.0004,15.2513-2.4481,19.7362-4.8737,2.1627-1.1701,3.4774-5.2654,2.4257-7.5554-.4318-.9402-1.5673-2.5173-4.3217-2.5173-1.2975,0-2.6935.3268-4.31.7051-1.8166.4252-3.6948.8649-5.5352.8649-.2514,0-.4938-.0081-.7283-.0244,2.2346-2.0771,7.3327-5.2249,18.9545-8.799,7.8479-2.4136,16.3505-4.2509,22.2609-5.1202-8.476,15.3777-17.78,32.4596-26,49.9097-2.5762,5.4692-5.5542,12.0933-8.109,19.7554-.2109.6324-.2051,1.3171.0165,1.9459.8519,2.4177,3.6574,6.3397,6.7093,7.4153.9277.3269,1.8696.4926,2.7999.4926,4.237,0,7.1244-3.2693,8.4138-6.329,11.3206-26.8586,22.7266-51.2973,34.8484-74.6638,3.3363-.2323,6.4958-.3456,9.6167-.3456,3.2493,0,6.4548.1243,9.7057.3779-14.3027,22.6947-24.8308,46.9584-31.2569,63.6868-.9362,2.4373-.3043,6.4176,1.3257,8.3508,1.4272,1.6924,4.5098,2.5778,6.8174,2.5778.0065,0,.0548,0,.0612,0,3.2842-.0212,6.3684-2.1543,7.8572-5.4343,6.2595-13.791,14.9976-24.9413,25.998-33.1839l-6.2514,11.6844c-3.1296,5.8489-3.6856,11.4415-1.6079,16.173,1.6696,3.8026,5.0156,5.8969,9.4216,5.8969,4.0576,0,9.0432-1.674,14.8185-4.9753,3.6021-2.0592,6.7643-4.3448,9.0159-6.1949,2.5557,2.9831,5.6714,4.837,9.2939,5.5237,1.9076.3615,3.881.5447,5.8656.5447,15.3522,0,29.8525-10.8104,38.3034-20.9274,1.2826-1.5368,1.1257-4.1025.831-5.3763-.4395-1.8998-1.4396-2.7033-2.2013-3.0428-.7166-.3201-1.4898-.4829-2.2961-.4829-3.1146,0-6.1671,2.4285-9.7016,5.2405-1.5531,1.2358-3.3121,2.6354-5.123,3.8511-2.9722,1.9955-10.751,5.7224-16.118,5.7224-1.4729,0-2.4239-.2757-3.0493-.6558,5.4528-2.7829,10.6028-6.2587,14.7242-9.9578,6.1619-5.5307,9.8073-11.2658,10.8351-17.046.5537-3.1148-.179-6.0843-2.0632-8.3616-1.9771-2.3896-5.0645-3.7843-8.4706-3.8264l-.2637-.0017c-7.6127,0-15.8138,3.9137-22.5199,10.7376-7.1061,7.2308-11.5489,16.7699-11.7808,25.166-2.6344,2.5481-9.4322,7.9932-12.3567,8.4981-.0997-.5788-.1488-1.3896-.0703-1.7712l9.254-18.6181c1.7635-3.548,2.0378-9.0715-.9277-12.3195-1.964-2.1515-4.4701-3.2425-7.4483-3.2425-5.8202,0-12.3461,4.2261-17.9826,8.7662l1.3003-2.7736c14.3457-5.6213,35.548-20.926,37.529-37.3277.3822-3.165-.8204-7.636-3.4943-9.6395-2.1447-1.607-4.6368-2.4219-7.407-2.4219h0ZM128.2691,338.5656c2.2105-3.1637,5.6754-6.65,7.7094-7.3983-.4992,1.7538-2.1533,4.886-3.5821,6.872-3.3932,3.6498-6.8603,7.3625-11.0937,10.571.6883-1.0991,1.4086-2.221,2.1653-3.3823,3.0792-1.1849,4.7523-3.5061,4.8011-6.6624h0ZM158.9504,378.2484c2.1047-4.785,5.7633-8.7606,10.9328-11.8689l.3425.0303c-.003.0135-.0061.0265-.0093.0389-2.6115,4.6792-6.324,8.5743-11.2661,11.7997h0Z"/>
    </g>
  </g>
</svg>