<?xml version="1.0" encoding="UTF-8"?>
<svg xmlns="http://www.w3.org/2000/svg" id="uuid-68df98b6-75b2-49ea-a695-3ec4dcab8c52" data-name="Layer 1" viewBox="0 0 718.3297 784.1924">
  <defs>
    <style>
      .uuid-f05a8fb3-0301-4d29-af3e-92be7160a115, .uuid-b0612e77-32e6-47d2-afa9-8f723771745e {
        fill: #00214d;
      }

      .uuid-254abb7f-24b9-427e-805d-3cc34111522c {
        fill: #fff;
      }

      .uuid-02453550-4cba-4ce4-9b6b-8d0aee79c1bf {
        fill: #bf1238;
      }

      .uuid-b0612e77-32e6-47d2-afa9-8f723771745e {
        fill-rule: evenodd;
      }
    </style>
  </defs>
  <g>
    <path class="uuid-254abb7f-24b9-427e-805d-3cc34111522c" d="m247.7154,282.9976c5.4233-5.9976,9.8228-13.0757,13.0752-21.0386,3.2529-7.9653,5.3198-16.7935,6.1426-26.2417.8198-9.4434.1807-19.353-1.8989-29.4551-.9126-4.4282-1.8955-7.9038-2.9219-10.3301-.2847-.6714-.5952-1.3218-.9243-1.9326l-2.0439-3.7974-3.6333,2.3237c-5.3232,3.4043-9.9956,7.627-13.8892,12.5522-4.8794,6.1787-8.9448,12.5181-12.084,18.8418l-.0479.1006c-2.0869,4.5161-3.9634,9.4136-5.5781,14.5566-1.6211,5.1689-2.9058,10.373-3.8188,15.4663-.9136,5.0889-1.4419,9.9907-1.5708,14.5713-.1265,4.5459.1621,8.5645.8579,11.9419.8325,4.0449,2.3203,7.8237,4.4199,11.2271.8013,1.3027,1.5874,2.3774,2.3359,3.1943l2.0435,2.23,2.7021-1.3584c6.3486-3.1904,12.0127-7.5151,16.834-12.8521Zm-10.3853-9.3892c-1.3286,1.4707-2.7461,2.8442-4.2407,4.1108-.4771-2.3218-.6694-5.2534-.5723-8.7134.1084-3.8838.5645-8.0854,1.355-12.4888.8105-4.5181,1.9536-9.1445,3.3979-13.7495,1.4185-4.5195,3.0562-8.8076,4.8687-12.7466,2.624-5.2612,6.021-10.5732,10.1021-15.7974,1.0586,6.9746,1.3096,13.7773.7451,20.2822-.7012,8.0435-2.436,15.499-5.1562,22.1597-2.6357,6.4526-6.168,12.1528-10.4995,16.9429Z"></path>
    <path class="uuid-254abb7f-24b9-427e-805d-3cc34111522c" d="m525.3658,227.2075c4.5488-8.2583,8.2988-17.7778,11.1445-28.2949,2.8457-10.5312,4.6748-21.7153,5.4365-33.2427.7402-11.2495.1162-21.979-1.8545-31.8896l-1.5117-7.605-5.3203,5.6396c-1.5898,1.6846-3.2051,3.6235-4.8037,5.7646-3.7871,5.0767-7.4932,10.877-11.0137,17.2388-3.5205,6.3584-6.7354,13.2422-9.5547,20.4595-2.8242,7.2295-5.2461,14.458-7.1992,21.4829-1.9541,7.0205-3.292,13.7314-3.9766,19.9453-.6816,6.1616-.5674,11.5142.3379,15.9092,1.5664,7.5991,5.6816,11.5225,12.2344,11.6606l1.2607.0269,1.0479-.7017c4.9814-3.334,9.6152-8.8496,13.7725-16.3936Zm-2.3701-31.9487c-2.5547,9.4404-5.8828,17.917-9.8916,25.1929-.9346,1.6948-1.877,3.2358-2.8262,4.6191-.0449-2.0308.0713-4.312.3496-6.8281.6025-5.4653,1.7969-11.4302,3.5488-17.7295,1.8281-6.5728,4.0996-13.3496,6.752-20.1411,2.127-5.4438,4.4912-10.6685,7.0469-15.5776-.7031,10.5898-2.3789,20.8398-4.9795,30.4644Z"></path>
    <path class="uuid-254abb7f-24b9-427e-805d-3cc34111522c" d="m705.4049,79.4268c-2.6641-2.1152-5.8857-3.6982-9.8584-4.8408-2.8438-.8125-6.0166-1.4121-9.4326-1.7832-2.9902-.3228-6.0703-.4863-9.168-.4863l-.4893.0015c-.8467.0049-1.6963.0269-2.5234.0659-2.7529.1299-5.4014.4536-7.8711.9619l-8.3203,1.7139-2.8105,8.0166c-.4912,1.4028-.9766,2.8008-1.4551,4.1934l-7.2861-4.7998c-3.3623-2.2158-7.1055-3.8115-11.1357-4.7437-2.9102-.667-5.9219-1.1538-8.9609-1.4478-1.8633-.1758-3.7061-.2651-5.4756-.2651-.8115,0-1.6201.0186-2.4053.0557-.5146.0244-1.0254.0566-1.5303.0962-2.7832.2197-5.1162.5283-7.1357.9438l-4.8564,1-3.3037,3.6978c-5.6084,6.2754-10.541,14.2646-14.6631,23.7451-2.6758,6.1543-5.0701,12.5944-7.1634,19.2208-.5096-5.0751-1.2557-10.0385-2.2468-14.8512-2.0361-9.8857-5.1895-20.1274-9.373-30.4399-4.1357-10.1997-9.0742-20.0679-14.6777-29.3325-5.585-9.2217-11.6914-17.8149-18.1504-25.542-6.7461-8.0659-13.6738-14.7319-20.5908-19.813l-6.5283-4.7939-7.5908,2.8286c-3.834,1.4302-7.5811,3.6958-11.1367,6.7363-2.8232,2.416-5.501,5.1006-7.957,7.979-2.5801,3.02-4.8301,6.2134-6.6875,9.4907-2.4102,4.25-3.7959,8.1157-4.2363,11.8174l-.833,6.9858,4.8398,5.1069c8.0625,8.5063,14.96,16.2026,20.502,22.8755,5.3428,6.4346,9.8418,12.5029,13.3691,18.0342,1.5713,2.4663,3.0293,4.9277,4.3633,7.3618-1.3789.1182-2.7285.312-4.0264.5796l-1.6777.3452-1.5518.7119c-6.2744,2.875-12.167,7.5083-17.5166,13.772-4.5322,5.3101-8.8408,11.5127-12.8057,18.4346-.5178.9033-1.0273,1.8207-1.5306,2.7485-.168-3.9389-.4876-8.0026-.9645-12.1802l-.9766-8.5503-7.874-3.4722c-2.6621-1.1748-5.6338-1.7705-8.8311-1.7705-.4072,0-.8213.0098-1.2441.0293-1.582.0747-3.2656.2935-5.0029.6514-4.2109.8677-8.6426,2.458-13.1738,4.729-6.6006,3.3145-10.7363,7.1094-13.0176,11.9429l-1.5068,3.1929.0762,3.5298c.0869,4.062.1406,7.8823.1611,11.4395-2.2031-4.5337-6.1758-7.9209-11.3428-9.6235-2.4482-.7944-5.1846-1.3306-8.1396-1.5947-1.1826-.1035-2.3994-.1562-3.6162-.1562-.6797,0-1.373.0161-2.0586.0488-1.0469.0488-2.124.1372-3.2109.2637-2.4844.2935-4.8154.6626-6.9307,1.0977-4.541.936-6.4375,1.6724-7.8086,2.3271l-3.7705,1.8003-2.2949,3.4863c-2.0576,3.1226-3.7168,6.3525-4.9658,9.6631-3.7012-5.3398-9.7896-8.5195-18.1221-9.458-1.9912-.2212-4.0034-.3335-5.98-.3335-.8174,0-1.6406.0195-2.4502.0571-2.6748.1265-5.3555.4639-7.9678,1.0015-10.9131,2.2471-19.5454,7.7285-25.6572,16.291-5.4863,7.6797-8.6543,17.3379-9.4136,28.6719-.0437.5797-.0837,1.1746-.1243,1.7672-1.8812-5.3817-4.2408-9.8113-7.1296-13.3951-5.3975-6.6958-12.583-10.2349-20.7803-10.2349-.4492,0-.9023.0107-1.3599.0322-.3652.0171-.7329.042-1.1025.0742-7.0889-6.7363-13.9756-11.0249-21.0073-13.0908l-3.5864-1.0527-3.6636.7529c-10.3239,2.1262-20.2498,8.001-29.5593,17.4584,3.0752-14.2108,3.8314-32.6118-6.657-47.0644-9.418-12.9761-25.3071-19.5557-47.2266-19.5557-2.3628,0-4.8311.0776-7.3354.231-28.6387,1.7544-76.0005,30.103-104.3071,47.0464-7.8467,4.6978-17.1787,9.8872-18.2295,10.4707l-.936.5181-.3208.2812c-.02.0063-.041.0132-.0625.02-2.0278-2.2808-3.1738-3.4756-3.3228-3.6299l-9.4956-9.8442-6.5,12.0347c-.6396,1.1841-2.7207,5.6226-2.7949,13.2441l-.6943,8.79c-.7695,9.2871-1.6411,19.8135-1.0337,26.4771.4111,4.5317,2.4316,15.6782,12.293,21.2896,3.3291,1.8921,7.0571,2.8516,11.0815,2.8516,2.7168,0,5.5684-.4492,8.5264-1.3403-.7632,2.4961-1.3545,5.2251-1.7808,8.2109L4.2018,437.1484l103.6992-30.71-.2876-7.7568c-.0215-.5791-1.9609-52.9395-2.9653-84.5107,34.623,38.4351,58.5107,69.5898,64.521,84.2822l5.0815,12.4053,11.4224-7.0088c9.856-6.0391,56.5659-26.0903,67.9937-29.583l18.1621-5.5405-13.4424-13.4219c-3.9999-4.0011-18.6477-16.9625-36.0486-32.119,1.9272.2191,3.8871.3397,5.8855.3397.8467,0,1.7104-.0205,2.5659-.061.9473-.0444,1.9224-.1152,2.9023-.2114l2.3994-.2358,2.2021-.9756c11.4902-5.084,21.8081-11.9375,30.668-20.3711,8.853-8.4297,16.104-18.1709,21.5513-28.9541,2.9065-5.7542,5.2836-11.7662,7.1516-17.9724.0563.7846.1141,1.5626.1746,2.3293.5615,7.105,1.2466,12.5591,2.0938,16.6733,1.6465,7.9971,5.1299,14.6396,10.354,19.7432,5.5386,5.4121,13.0908,8.6323,22.4478,9.5708l10.4673,1.0474,4.5513-9.4814c2.1865-4.5552,4.0786-8.8691,5.623-12.8218,1.3921-3.5605,2.8203-7.0542,4.2466-10.3867,1.377-3.2256,2.8306-6.6084,4.3647-10.1616.0684.3403.1377.6826.208,1.0273,1.7246,8.3687,5.666,15.0576,11.7158,19.8813,5.1768,4.127,11.0234,6.2197,17.3779,6.2197.4414,0,.8848-.0103,1.3311-.0312,1.501-.0708,3.0254-.2646,4.5303-.5747,5.1328-1.0571,9.875-4.2261,14.9277-9.978,3.083-3.522,6.3184-7.7188,9.6143-12.4731,3.1318-4.5142,6.3408-9.4463,9.5361-14.6577,2.9541-4.8164,5.7852-9.4028,8.4268-13.6499,5.4008-8.7928,10.1968-17.0653,14.3118-24.671.1033,5.5944.6492,10.8782,1.656,15.7642,3.1104,15.1064,10.291,26.4526,21.3408,33.7241,8.7549,5.7642,19.4834,8.687,31.8896,8.687,1.2676,0,2.5713-.0312,3.875-.0928,1.1904-.0562,2.4209-.1392,3.6631-.2476l2.1826-.1924,2.0361-.8076c7.6797-3.0479,14.8926-8.0635,21.4414-14.9092,5.9521-6.229,11.376-13.771,16.1211-22.415,4.4445-8.0864,8.3264-17.0794,11.5557-26.731.3779,2.4219.8712,5.1169,1.4941,8.1421l.3291,1.5952.6611,1.4849c2.3477,5.2603,5.8369,9.7188,10.3672,13.2485,3.7227,2.9087,7.8389,5.2524,12.2314,6.9653,4.2852,1.6743,8.7725,2.7651,13.3477,3.2437,1.7031.1748,3.3994.2632,5.04.2632.7168,0,1.4316-.0166,2.125-.0498,2.1934-.103,4.3545-.3716,6.4248-.7979l2.4844-.5117.748-.4463c-2.3994,7.0874-5.0908,13.6172-8.043,19.5078-5.4014,10.77-11.6582,19.5391-18.5957,26.061-6.1797,5.8032-12.9102,9.4863-20.0049,10.9473-1.0537.2173-2.002.3755-2.8281.4731-.5742-.1997-1.2188-.4663-1.8936-.7842-.6484-.3057-2.1367-1.0586-4.8232-2.6631l-9.9248-5.9272-8.2588,8.0854c-7.8457,7.6782-7.5771,15.8071-6.7188,19.9712l.7168,3.4688,2.1885,2.7803c3.1436,3.9902,7.4707,7.3208,12.8672,9.9004,4.3438,2.0698,9.1768,3.6895,14.3691,4.8159,5.0098,1.0806,10.2881,1.6782,15.6914,1.7764.4434.0078.8799.0112,1.3174.0112,1.1943,0,2.3994-.0283,3.5801-.084,3.8818-.1826,7.7783-.6724,11.5811-1.4551,10.8516-2.2354,21.1475-7.2666,30.6006-14.9551,8.835-7.1885,16.9268-16.5815,24.0654-27.9395,5.2617-8.4839,9.9365-17.3809,13.8936-26.4453,3.9443-9.0386,7.4092-18.8604,10.2979-29.1929,2.8408-10.1763,5.2607-21.2832,7.1914-33.0132,1.8877-11.4873,3.5596-24.2725,4.9668-37.9897,1.2275-11.6504,3.0312-23.334,5.3613-34.7261,2.4004-11.7339,5.1182-23.916,8.0762-36.207l2.2402-9.3018-7.4902-5.9536Zm-196.5518,177.0972c-9.6211,0-17.7607-2.147-24.1924-6.3813-7.835-5.1558-12.9912-13.5176-15.3262-24.853-1.2275-5.9634-1.6494-12.7241-1.2539-20.0933.3955-7.3516,1.4229-14.8779,3.0527-22.3721,1.624-7.4854,3.8408-15.019,6.5879-22.3926,2.7432-7.3638,5.9307-14.231,9.4746-20.4126,3.5332-6.1675,7.3369-11.6533,11.3047-16.3032,4.0176-4.7046,8.292-8.1152,12.7002-10.1357l.1055-.0483.1133-.0229c1.0332-.2129,2.1416-.3481,3.29-.4028.3916-.0181.79-.0273,1.1953-.0273,2.5703,0,5.4531.3682,8.5664,1.0938,1.1621.2715,2.3232.5884,3.4512.9414l7.9639,2.4902-3.0459-7.7681c-1.04-2.6528-2.1064-5.2363-3.1719-7.6792-2.5322-5.8008-5.7617-11.7983-9.6016-17.8286-3.8428-6.0254-8.6885-12.5698-14.4033-19.4517-5.7344-6.9038-12.8369-14.8311-21.1104-23.562l-.3232-.3403.0557-.4653c.2168-1.8198,1.0391-3.9688,2.5137-6.5698,1.4199-2.5034,3.1543-4.9609,5.1553-7.3047,1.9883-2.3291,4.1455-4.4922,6.4092-6.4287,2.3057-1.9712,4.6367-3.4043,6.9277-4.2588l.5068-.1885.4346.3198c6.0127,4.4155,12.1152,10.3062,18.1377,17.5083,6.0049,7.1836,11.6953,15.1958,16.9131,23.8105,5.2217,8.6328,9.8252,17.8335,13.6826,27.3462,3.8652,9.5303,6.7705,18.9517,8.6338,28.0024,1.8633,9.0425,2.793,18.6963,2.7646,28.6914-.0312,9.9629-.9004,20.0176-2.583,29.8833-1.6855,9.8589-4.0654,19.4854-7.0723,28.6118-3.0137,9.1465-6.6494,17.6206-10.8086,25.1885-4.1611,7.5801-8.8604,14.1338-13.9668,19.4775-5.1465,5.3794-10.6934,9.2729-16.4854,11.5718l-.1367.0542-.1455.0127c-1.0498.0923-2.083.1621-3.0967.21-1.0889.0513-2.1709.0771-3.2168.0771Zm-117.5645,17.8604c-3.1484,0-5.9775-1.0356-8.6494-3.166-3.4219-2.7275-5.6865-6.6836-6.7314-11.7573-1.042-5.0664-1.7402-9.5767-2.0742-13.4106-.3379-3.8193-.415-8.0015-.2314-12.3813l.0039-.0698c.2451-3.8594.4092-7.2612.4883-10.1167l.0332-1.3203-7.4775-2.0752c-.3389.5977-.6787,1.2065-1.0176,1.8252-1.7705,3.2344-3.6182,6.6719-5.4883,10.2153-1.7954,3.3965-3.2817,6.3403-4.439,8.7959-2.353,5.1592-4.4033,9.7603-6.0923,13.6738-1.7192,3.978-3.3398,7.7471-4.8623,11.3145-1.4829,3.4648-2.9683,7.0972-4.4146,10.7969-1.4175,3.6279-3.1689,7.6177-5.2046,11.8584l-.3037.6328-.6978-.0698c-6.1177-.6133-10.8481-2.5156-14.0601-5.6538-3.1904-3.1177-5.3525-7.3413-6.4253-12.5537-.73-3.5444-1.335-8.4346-1.8491-14.9502-.5044-6.4053-.8613-13.4751-1.0605-21.0132-.2002-7.6353-.2622-15.4912-.1836-23.3525.0747-7.9678.3589-15.2642.8472-21.7227.582-8.7446,2.8838-15.9873,6.8423-21.5288,3.9946-5.5962,9.7437-9.2012,17.0864-10.7134,1.9033-.3921,3.856-.6372,5.8032-.729.5938-.0278,1.1909-.042,1.7915-.042,1.4614,0,2.9502.083,4.4199.2466,4.3486.4893,7.0811,1.729,8.3525,3.79l.3706.6006-.4424.5513c-4.0703,5.0684-7.0083,10.9961-8.7324,17.6172-1.7451,6.6938-2.8169,13.7925-3.186,21.0972-.373,7.3491-.2778,14.8696.2822,22.3501l.1738,2.3838,1.021,14.3076,6.5303-12.7715c1.2495-2.4434,2.4873-4.8145,3.6812-7.0493,3.8594-7.2334,7.4653-13.1714,10.7456-17.6899,4.2988-6.0791,6.9697-10.8423,8.1689-14.5674,1.1836-3.6948,2.0684-7.7021,2.6348-11.9648.3906-3.2739.9014-7.2002,1.5186-11.6714.6318-4.5938,2.3877-9.1021,5.2197-13.4004l.1543-.2334.25-.1191c.2744-.1313,1.1123-.5308,4.6016-1.25,1.7236-.3545,3.6553-.6592,5.7305-.9043.7637-.0889,1.5195-.1509,2.249-.1851.4688-.0225.9355-.0332,1.3984-.0332.8115,0,1.6133.0342,2.377.1011,1.9053.1704,3.5977.4927,5.0146.9526,1.6621.5474,2.7588,1.48,3.2588,2.7695l.1572.4053-.1875.3896c-1.9678,4.0898-3.3838,10.2603-4.209,18.3379-.833,8.1353-1.2627,17.0977-1.2764,26.6377-.0176,9.457.1328,19.0527.4482,28.5205.0898,2.6963.1699,5.2876.2402,7.7681l.415,14.6904,7.0869-12.875c.3672-.6665.7402-1.3521,1.1162-2.0547,2.3223-4.3428,4.7295-9.0303,7.1523-13.9312,2.4609-4.9712,4.5869-9.8569,6.3047-14.4854l.0215-.0562c2.2334-5.6465,3.998-10.9521,5.2441-15.772,1.2402-4.8057,2.1758-9.9316,2.7822-15.2368.6016-5.2881.9697-11.2246,1.0918-17.6465.1191-6.3999.084-14.0977-.1035-22.8804l-.0049-.2358.0996-.2124c.8623-1.8271,3.0322-3.5947,6.6318-5.4019,3.4375-1.7231,6.709-2.9111,9.7217-3.5317,1.0273-.2114,1.9824-.3389,2.8438-.3794.1963-.0093.3896-.0137.5801-.0137,1.2383,0,2.3086.1953,3.1826.5806l.5254.2314.0645.5693c1.1348,9.9463,1.3184,19.1143.5449,27.2505-.7705,8.1406-2.4395,16.3604-4.9609,24.4297-2.5186,8.0508-6.04,16.4097-10.4668,24.8442-4.417,8.415-9.8057,17.8096-16.0049,27.9043-2.5986,4.1787-5.4141,8.7363-8.4619,13.7061-3.0547,4.9819-6.1191,9.6919-9.1064,13.999-2.998,4.3247-5.9043,8.0996-8.6318,11.2158-2.8945,3.2949-5.2598,5.0942-7.2295,5.5005-.7969.1641-1.5918.2656-2.3652.3018-.2256.0107-.4492.0161-.6719.0161Zm-31.5996-88.0601c.2314-1.0503.4805-2.0903.748-3.1182.5352-2.0532,1.2285-4.0049,2.0752-5.8452-.4082,2.1426-.9229,4.1841-1.5361,6.0986-.124.3853-.4629,1.2993-1.2871,2.8647Zm231.3516,136.3657c-.3574,0-.7158-.0034-1.0674-.0093-4.4951-.0815-8.8633-.5737-12.9785-1.4614-4.1338-.8965-7.9365-2.1641-11.2979-3.7661-3.4395-1.644-6.0977-3.6387-7.9014-5.9272l-.1465-.1865-.0479-.2305c-.501-2.4282.4414-4.8296,2.8018-7.1382l.5498-.5386.6602.3945c2.4424,1.4585,4.4727,2.5718,6.0391,3.3101,1.5547.7319,3.0459,1.3101,4.4346,1.7197,1.0068.2964,2.0479.4468,3.0938.4468.1758,0,.3516-.0044.5352-.0127.1494-.0068.2969-.0166.4443-.0298,1.4863-.1313,3.1699-.3896,5.002-.7671,9.6641-1.9893,18.6689-6.853,26.7686-14.4575,8.1416-7.6548,15.3828-17.7441,21.5225-29.9888,6.1543-12.2773,11.1943-26.8564,14.9805-43.334,1.5957-6.9531,2.9658-14.3184,4.0713-21.8906l-7.5303-2.377c-.3398.6743-.6836,1.3472-1.0283,2.0161-3.001,5.7964-6.2617,11.1948-9.6895,16.0435-3.5059,4.9531-7.2139,8.6152-11.0234,10.8862l-.1436.0859-.165.0337c-1.3584.2798-2.792.4565-4.2627.5259-.4805.0229-.9688.0342-1.4629.0342-1.1641,0-2.376-.0635-3.5928-.188-3.3193-.3472-6.584-1.1411-9.7061-2.3613-3.124-1.2183-6.0537-2.8872-8.7119-4.9629-2.7061-2.1084-4.7881-4.7686-6.1855-7.9019l-.0459-.104-.0225-.1069c-1.0596-5.1519-1.7109-9.186-1.9902-12.3389-.2832-3.1401-.3652-6.6792-.2451-10.5249.2061-6.938.9795-14.9893,2.3008-23.9321,1.3174-8.9399,3.2129-18,5.6348-26.9292,2.4131-8.9023,5.416-17.5107,8.9287-25.5874,3.5234-8.1084,7.6494-14.8369,12.2627-19.999l.2217-.2471.3223-.0664c1.4424-.2969,3.2129-.5259,5.4141-.6997.3604-.0283.7236-.0508,1.0898-.0684.5703-.0269,1.1514-.04,1.7441-.04,1.3311,0,2.7256.0679,4.1348.2007,2.4346.2358,4.8438.6245,7.1553,1.1538,2.3955.5542,4.6094,1.4937,6.5801,2.7925l.875.5771-.6162.8452c-1.4971,2.0513-4.4531,8.7134-8.7861,19.8013-4.3447,11.1099-8.5557,26.9058-12.5039,46.8979l-.0156.0781c-.4688,2.0522-.9375,5.0381-1.3926,8.8726-.4629,3.8818-.8506,7.9678-1.1504,12.1382-.3057,4.1714-.501,8.3062-.5811,12.2896-.0537,2.6196.0137,4.894.2002,6.7593l.8213,8.1953,5.9336-5.7129c1.6963-1.6333,3.5576-3.7935,5.5303-6.4204,4.1895-5.5776,8.6182-13.9619,13.1758-24.9507,2.8301-6.9849,5.3828-14.0083,7.5869-20.8784,2.1895-6.8359,4.3584-13.8091,6.4482-20.7246,2.0449-6.7695,4.2588-13.9883,6.582-21.4551,2.2764-7.3086,4.8154-14.9683,7.5479-22.7656l.1875-.5342.5537-.1143c1.7617-.3623,3.6826-.5947,5.7061-.6904.6357-.0298,1.2842-.0469,1.9502-.0503l.418-.0015c2.5859,0,5.1592.1362,7.6455.4048,2.625.2852,5.0098.7305,7.0791,1.3213,2.1719.6245,3.8115,1.3921,5.0107,2.3442l.5.3975-.1494.6206c-2.9951,12.4404-5.748,24.7808-8.1826,36.6792-2.4199,11.832-4.293,23.9712-5.5703,36.0908-1.3809,13.4507-3.0137,25.9526-4.8555,37.1572-1.8477,11.2251-4.1553,21.8301-6.8594,31.5171-2.7178,9.7153-5.9639,18.9214-9.6465,27.3608-3.6904,8.4546-8.0439,16.7432-12.9277,24.6167-6.3105,10.0396-13.3877,18.2856-21.0332,24.5083-7.6914,6.2549-15.9648,10.3271-24.5898,12.103-3.0898.6362-6.2578,1.0347-9.416,1.1836-.9648.0454-1.9482.0684-2.9229.0684Zm49.5703-194.8105c-1.293,4.2798-2.6143,8.5737-3.9502,12.8354,1.8506-7.1108,3.7295-13.2446,5.625-18.3574-.5684,1.8682-1.127,3.7095-1.6748,5.522Zm-220.5117,44.6719c-.5312,4.6636-1.3486,9.1465-2.4258,13.3223-.0859.3325-.1758.668-.2676,1.0059.1963-5.0952.5293-9.9531.9971-14.5234.7617-7.4702,1.8809-11.2646,2.623-13.0723-.1582,4.8022-.4688,9.2534-.9268,13.2676Zm-191.876,136.9736c-8.6582,0-16.4097-2.8887-23.0396-8.5859-7.6133-6.5396-12.7241-15.9287-15.1899-27.9067-1.4419-7.0029-1.894-14.5845-1.3442-22.5337.5508-7.9458,2.0371-15.9517,4.4189-23.7969,2.3726-7.8306,5.5747-15.5337,9.5161-22.896,3.9409-7.3579,8.5645-14.0298,13.7461-19.835,8.1885-9.2041,16.6572-14.7598,25.1694-16.5127l.2446-.0503.2402.0708c5.8325,1.7129,11.9336,6.0234,18.6514,13.1777l1.6758,1.7842,2.3511-.6797c.5171-.1499,1.0869-.2891,1.6904-.4136.7969-.1641,1.5864-.2651,2.3394-.3013.2378-.0107.4727-.0166.7061-.0166,8.1631,0,13.8774,7.6504,16.9844,22.7378,2.2646,11,2.6279,21.959,1.0796,32.5723-1.5488,10.605-4.7275,20.7202-9.4468,30.0635-4.7231,9.3506-11.0176,17.8047-18.708,25.127-7.6899,7.3198-16.6665,13.2778-26.6816,17.7095l-.1475.0649-.1562.0156c-.7368.0718-1.4683.1255-2.1919.1597-.6406.0303-1.2769.0454-1.9077.0454Zm-133.5366-24.4014l-2.0498-.0957-1.2734,1.6094c-.8911,1.126-1.3062,2.7349-1.3062,5.0635,0,10.252,2.8301,87.562,3.4512,104.3989l-72.5747,21.4932,23.2622-174.4707c1.8062-12.6406,6.4663-17.3623,17.8076-18.0425l.1016-.0059,28.0781-3.1182c-1.0054,8.3418-1.0195,25.5435-.8604,43.3096l.0342,4.7583c0,1.1621.1753,2.1211.5356,2.9321l1.5054,3.3857,3.4907-1.2422c1.7466-.6216,3.4155-2.4434,4.3706-4.7661,1.2314-2.6968,15.1147-28.1211,23.4312-43.3511,5.4287-9.9414,8.2793-15.165,8.6592-15.9263,2.228-4.4561,8.792-19.8936-.2808-31.4434-3.3354-4.2441-8.0327-6.396-13.9614-6.396-5.832,0-12.8374,2.085-21.416,6.374-4.2158,2.1084-13.189,7.8179-23.5796,14.4287l-.123.0781c-14.3784,9.1533-30.6753,19.5283-39.8857,23.9321-3.2378,1.5488-6.106,2.3345-8.5249,2.3345-1.5908,0-2.9517-.334-4.1592-1.0205-4.2373-2.4111-5.1069-8.5605-5.2729-10.3901-.4976-5.4526.3223-15.3457,1.0469-24.0898l.7363-9.3296s.0005-.3193.001-.3989c.103.1196.208.2412.314.3643,1.1772,1.3677,3.0278,2.0322,5.6577,2.0322,3.2231,0,7.8027-.9819,10.562-3.1284,1.7798-.9897,10.7295-5.9854,18.3203-10.5298,27.2051-16.2842,72.7378-43.5386,97.9717-45.0845,2.2241-.1362,4.4043-.2051,6.4805-.2051,17.1831,0,29.2603,4.6357,35.896,13.7783,11.5903,15.9712,3.7168,40.772-.2061,50.6938-11.936,30.1875-52.0854,74.7378-53.3076,76.0771-1.2251,1.2227-2.7183,2.7451-2.6357,5.0342.0752,2.0254,1.3301,3.9395,4.1948,6.4014l.1152.0991.1221.0898c6.7793,4.9844,87.1172,74.1597,105.9888,91.5298-15.5288,5.5796-51.4561,21.0869-64.4766,28.1572-9.104-19.229-37.6982-55.439-79.2725-100.2979-.8008-.8623-1.2842-1.3823-1.4531-1.5723-1.9917-2.2417-3.7959-3.3706-5.5151-3.4507Zm-21.1763-75.4023c2.0498-1.3008,6.1763-3.9277,6.1763-3.9277,9.1948-5.8501,18.7031-11.8994,22.2666-13.6812,8.0933-4.0464,12.708-4.896,15.1543-4.896,2.1313,0,2.6064.6045,2.9531,1.0454,3.3926,4.3193.8213,12.4248-1.2231,16.5142-.353.6963-4.5547,8.3911-8.2617,15.1802,0,0-4.9004,8.9756-7.1006,13.0103.2363-7.8125.605-10.0649.7983-10.71l4.9614-16.5024-35.7246,3.9673Zm79.0493,53.6592c5.6923-6.5233,15.0246-17.5767,24.4223-30.2422-1.1466,5.4467-1.9203,10.9294-2.2988,16.3931-.6377,9.2197-.1001,18.0767,1.5977,26.3242.715,3.4725,1.6271,6.774,2.7159,9.9167-11.2503-9.6274-20.8679-17.7815-26.4371-22.3918Z"></path>
  </g>
  <g>
    <path class="uuid-254abb7f-24b9-427e-805d-3cc34111522c" d="m708.7623,428.377l-1.5557-.3574c-1.8203-.4199-4.0498-.6162-7.0156-.6162-3.457,0-7.7812.2607-11.959.5127-8.8262.5244-23.2744,1.6719-41.9834,4.1602-32.7002,4.3477-84.9951,13.7158-148.4297,33.6602-1.3261.4169-2.65.8574-3.9756,1.2802.1518-9.3169.3876-18.8124.7051-28.2372.3203-9.5557.7656-18.709,1.3242-27.2041.1943-2.9443.4033-5.8115.625-8.5742.1895.0596.3799.1172.5723.1729,2.166.626,4.4355.9434,6.7451.9434,1.9961,0,4.0488-.2383,6.1025-.709,3.9121-.8984,7.9502-2.7139,11.999-5.3955,3.4512-2.2812,6.8613-5.0854,10.1357-8.3325,3.1699-3.1406,6.1465-6.6143,8.8467-10.3242,2.7871-3.8306,5.1328-7.79,6.9561-11.7358,4.6025-9.7207,7.5068-20.1958,8.6309-31.1357,1.1172-10.8931.4775-21.6719-1.9033-32.0366-1.8184-7.9155-6.5391-14.0713-13.6533-17.8018-4.2354-2.2192-8.8789-3.3447-13.8027-3.3447-2.5654,0-5.2217.3115-7.8984.9258-.5977.1377-1.1953.2993-1.793.4844l-3.4014-3.6206c-3.3525-3.5679-8.1533-5.7319-15.5693-7.0176-3.5264-.6079-7.1758-.916-10.8467-.916-1.8613,0-3.7607.0796-5.6436.2373l-6.1143.5112-3.5518,5.0034c-1.4893,2.0972-2.8545,4.6714-4.1738,7.8687-1.041,2.5215-2.0371,5.2319-2.959,8.0601-.9443,2.9053-1.7285,5.7793-2.3281,8.542-.6328,2.9062-1.0391,5.3618-1.2441,7.5303l-.0322.4204c-.0315.5137-.0709,1.0645-.1171,1.647l-3.5577-2.6998c-2.1318-1.6167-4.6396-2.8228-7.6768-3.6909-2.1816-.6172-4.5967-1.0557-7.1777-1.3037-1.7891-.1719-3.6494-.2593-5.5312-.2593-.5859,0-1.1758.0083-1.7705.0249-2.8154.0796-5.4922.4072-7.957.9731l-5.1025,1.1719-2.9121,4.3506c-.623.9292-1.2158,1.877-1.7773,2.8389l-1.2559-.8926c-2.6865-1.9062-5.7246-3.25-9.0391-3.9956-2.1807-.4854-4.4277-.8281-6.6865-1.0195-1.1602-.0962-2.3193-.145-3.4434-.145-1.2969,0-2.583.064-3.8242.1904-2.0791.2124-3.9688.5117-5.6162.8901l-4.1436.9521-2.8125,3.1929c-2.7495,3.1246-5.2396,6.7664-7.4499,10.8696-.5266-5.0941-2.9512-9.9307-7.0081-13.7671-4.6787-4.4253-10.8945-6.8623-17.5024-6.8623-1.8291,0-3.6699.1914-5.4712.5684-2.5596.5356-4.7778.8071-6.5933.8071-2.3496,0-3.4976-.4297-5.085-1.0244-3.1748-1.1909-6.772-1.4419-9.2314-1.4424-7.9136,0-16.5127,2.4019-23.5928,6.5894-17.7827,10.519-34.9424,39.0571-46.3027,59.6089-5.1006,9.229-14.208,27.6279-17.8989,47.1621-6.3979,33.8623,7.312,50.6553,19.9404,58.7793,16.1118,10.3662,30.8994,15.6221,43.9521,15.6221,3.3599,0,6.6499-.3477,9.7773-1.0342,16.8975-3.7021,26.4307-16.0117,32.1318-24.9492,3.8193-5.9902,11.6606-25.6357,17.5664-41.0625,1.2236-3.1967,2.4377-6.4119,3.5992-9.5266l.0121.0256c1.9092,4.0283,4.6416,7.4414,8.1201,10.1416,2.9131,2.2686,6.1719,4.0684,9.6836,5.3467,3.3223,1.2119,6.79,1.9717,10.3125,2.2588,1.0293.082,2.0566.124,3.0537.124,2.5898,0,5.1064-.2764,7.4902-.8232l.9043-.208.8848-.3408c2.8359-1.0957,5.4023-2.9688,8.0859-5.9033,1.8457-2.0322,3.6348-4.5391,5.3438-7.4951l.2148-.3672.2227-.4668c.5176-1.0693,1.2012-2.5273,2.042-4.3516,1.3398,1.0176,2.7812,1.9229,4.3164,2.709l.6465.333.6865.2607c2.1797.8271,4.4736,1.5518,6.8115,2.1533,2.2305.5771,4.5098,1.0576,6.7803,1.4287,2.4053.3896,4.5439.6182,6.54.6992.5146.0205,1.0088.0303,1.4834.0303,1.1107,0,2.1454-.0601,3.1304-.1718-.1638,5.3197-.1674,10.1998-.0074,14.5292.2031,5.6436.6904,10.0762,1.4893,13.5488.7402,3.2217,1.5264,6.1406,2.3359,8.6758.8135,2.5498,1.7607,4.8691,2.8164,6.8984,3.0508,8.2842,8.5752,11.1719,12.1025,12.1777l.3242.2314c.0967.0914.194.1724.2908.2607-60.9167,21.2383-121.0621,48.6412-179.1878,81.6992-83.3296,47.3896-177.5649,118.8232-252.0791,191.0859l-30.3198,29.4033,4.6597,6.4043,37.311-19.7969c.4624-.2461,46.6704-24.7578,71.5771-37.2744l4.8882,8.8018,52.4033-27.7422c.7158,1.1426,1.4604,2.3633,2.127,3.4541l6.3633,10.3984,24.5845-13.8164c43.4229-24.4814,109.0439-61.4785,186.3701-90.1338,76.3115-28.2754,149.1094-42.6123,216.3721-42.6123,13.4072,0,26.7812.5771,39.748,1.7158l11.25.9961,2.2588-11.0918c2.2559-11.3037,8.915-35.0684,18.2021-60.5352,9.5713-26.2451,18.9961-46.2441,26.5918-56.4443,2.2637-1.6963,3.8789-4.0977,4.5684-6.7852l2.5225-9.1719-9.5674-5.7773Zm-348.8125-55.2598c-.1312,1.0536-.2499,2.0872-.3624,3.1106-3.8516.2664-7.0662,2.3777-9.5482,6.3367-.5508.8037-1.3262,1.981-2.3643,3.5596l-.1392.2119c-6.3901,9.7188-23.3652,35.5361-37.5151,48.2344-2.9541,2.6504-4.9307,3.792-6.0234,4.2803-.3394-.6758-.7559-1.7236-1.0977-3.1895l-.0273-.1133c-2.2852-9.3027,1.2808-30.2725,8.8721-52.1812,3.2573-9.3984,7.041-18.3232,10.7603-25.4048.7144,6.8247,3.4824,11.9487,8.2598,15.2681,3.0698,2.1333,6.8125,3.2612,10.8232,3.2612,3.0693,0,6.2715-.647,9.5156-1.9224,3.0046-1.18,6.2659-3.2395,9.434-5.6924-.2086,1.4152-.4121,2.8301-.5873,4.2408Zm-13.9668-11.5786c-1.6084.6323-3.0874.9526-4.3955.9526-1.1572,0-2.1104-.2549-2.8345-.7583-2.1001-1.459-2.481-5.1313-2.4302-7.9526.1714-9.2798.3369-10.5146.5894-12.396l.0269-.2075c.083-.6294.1787-1.3564.2798-2.3833.4302-4.2139-1.4932-6.2148-2.6851-7.0371-1.0547-.7251-2.3618-1.1079-3.7793-1.1079-1.6123,0-3.3877.4785-5.2773,1.4229-9.6094,4.8066-20.228,27.2812-26.9609,46.7114-3.2949,9.5098-13.6997,41.9478-9.251,60.0591,1.7207,7.374,5.3677,12.2842,10.2676,13.8271,1.1235.3535,2.313.5332,3.5361.5332,4.8101,0,10.1421-2.6855,16.3013-8.2119,9.9805-8.9561,20.8628-23.291,29.1318-35.0781-6.9019,18.4873-16.0557,41.6885-19.4697,47.043-4.3584,6.832-11.5181,16.2148-23.3242,18.8027-2.1509.4707-4.4326.709-6.7817.709-10.3223,0-22.5615-4.5068-36.3774-13.3965-13.104-8.4307-17.7329-23.3711-13.7583-44.4062,3.3276-17.6133,11.6934-34.4805,16.394-42.9858,6.0889-11.0156,24.6187-44.5381,41.1787-54.334,7.0776-4.1865,13.8701-4.6387,16.4619-4.6387h.0029c2.6431,0,3.9673.4199,4.3193.5518,2.1572.8081,5.1118,1.9146,9.9971,1.9146,2.8179,0,5.9126-.3613,9.4614-1.1045.8589-.1797,1.7349-.271,2.603-.271,3.0146,0,5.8145,1.0771,7.8833,3.0337,2.0449,1.9341,3.0146,4.3823,2.6602,6.7163-.2021,1.3306-.5298,2.8433-.8188,4.1758-1.127,5.1841-2.292,10.5449.3892,14.5317.6064.9023,1.3672,1.6611,2.2803,2.2739-3.9585,4.7876-10.9482,11.1763-15.6201,13.0107Zm99.4102-22.9131c-1.5166,6.0132-2.8799,11.9448-4.0508,17.6289-1.1865,5.7407-2.0137,11.438-2.459,16.9312-.4531,5.5508-.1084,10.8643,1.0234,15.793.6152,2.6782,1.3848,4.9849,2.2832,6.8486.8906,1.8594,1.7598,3.4238,2.5791,4.6465.8154,1.2217,1.5586,2.2402,2.2051,3.0205.5068.6152.835,1.1641.9775,1.6357-.0215.043-.0518.0928-.0791.1357-.5938.1221-1.3447.1836-2.2363.1836-.2959,0-.6035-.0068-.918-.0195-1.4297-.0576-3.0205-.2305-4.8555-.5273-1.8428-.3018-3.7031-.6943-5.5361-1.168-1.8311-.4707-3.6074-1.0312-5.2939-1.6699-2.6514-1.3682-4.7109-3.4004-6.1221-6.0459-1.1357-2.125-1.9502-3.9854-2.4912-5.688l-3.0518-9.6108-4.3662,9.0894c-.6133,1.2773-1.2432,2.6387-1.8838,4.0771-1.4307,3.2114-2.8477,6.3521-4.2402,9.4204-1.3574,2.9834-2.4131,5.2578-3.1465,6.7783-1.1777,2.0342-2.3662,3.7178-3.5234,4.9932-1.1064,1.21-2.0293,1.9707-2.7354,2.2598-1.3291.3008-2.7715.4531-4.2891.4531-.627,0-1.2754-.0264-1.9189-.0771-2.2686-.1855-4.5068-.6768-6.6572-1.4609-2.1377-.7773-4.1152-1.8691-5.8848-3.248-1.71-1.3262-3.0605-3.0068-4.0176-4.999-.7861-3.4277-1.3467-6.2979-1.667-8.5332-.3232-2.2529-.4756-4.7646-.4521-7.4717.0342-4.9551.457-10.7271,1.2578-17.1567.7988-6.4385,1.9785-12.9521,3.5059-19.3628.7861-3.3057,1.6982-6.5533,2.7193-9.7264l4.0453-6.6246-1.579-.2753c.2296-.5895.4449-1.1914.6826-1.7736,2.3105-5.665,5.1006-10.4014,8.292-14.0815,1.0361-.2241,2.2627-.4092,3.6533-.5508.7705-.0786,1.5791-.1187,2.4033-.1187.7412,0,1.5059.0322,2.2686.0957,1.6279.1377,3.2451.3838,4.7969.729,1.25.2812,2.3994.7422,3.4258,1.373-.5801,1.2124-1.9297,4.397-5.3564,13.9722-2.9238,8.1626-5.6982,19.7251-8.2422,34.3438-.3154,1.541-.6133,3.7607-.8838,6.5938-.2744,2.8447-.5205,5.8291-.7314,8.8687-.2148,3.0825-.2891,6.1113-.2197,9.002.043,1.7822.1445,3.3506.3027,4.6631l1.3076,10.8389,6.0049-9.1172c.749-1.1377,1.5342-2.4941,2.3359-4.0332,2.0986-4.0352,4.9404-10.2119,8.4629-18.4023.8301-1.9951,1.8398-4.3345,3.002-6.9531,1.1543-2.5967,2.335-5.4331,3.5098-8.4297,1.1543-2.9429,2.2168-6.0269,3.1582-9.167.9307-3.1079,1.5928-6.2051,1.9688-9.2065l.0127-.1167c.1514-1.5811.3975-3.5.7324-5.7085.3311-2.2109.834-4.5869,1.4941-7.064.6582-2.4771,1.5068-5.0679,2.5254-7.7026.9658-2.5063,2.2383-4.9644,3.7842-7.311,1.4883-.3184,3.1387-.5054,4.9121-.5552.46-.0132.9189-.0195,1.373-.0195,1.4365,0,2.8467.0654,4.1914.1943,1.748.1685,3.3262.4497,4.6816.8335,1.1074.3164,1.9844.6821,2.665,1.1128-.9619,5.7842-2.1914,11.6558-3.6553,17.4609Zm7.8682,34.4062c-.1859,1.1905-.357,2.3799-.5323,3.5697.0224-.754.0448-1.5081.1075-2.2797.4004-4.9326,1.1465-10.0581,2.2168-15.2368.312-1.5143.6407-3.0489.9797-4.5944-.8204,5.4291-1.7355,11.5486-2.7717,18.5412Zm12.6602,78.7427c-.6943-2.1748-1.377-4.7158-2.0283-7.5527-.5986-2.6055-.9727-6.1787-1.1436-10.9287-.1738-4.7227-.1396-10.1846.1035-16.2354.2373-6.0469.7178-12.7441,1.4287-19.9072.7119-7.1772,1.6602-14.5811,2.8242-22.0361,1.4404-9.7227,2.6387-17.7065,3.6582-24.3853,1.0508-6.8921,1.8965-12.9004,2.5127-17.856.5996-4.7944,1.1035-8.9609,1.5-12.3896.373-3.269.6309-6.0615.7617-8.2202l.0039-.0537c.1504-1.584.4727-3.4995.9844-5.856.5029-2.311,1.1631-4.7275,1.96-7.1807.8047-2.4673,1.6748-4.8408,2.5879-7.0532.8398-2.0332,1.6396-3.6094,2.4404-4.8037,1.3701-.1055,2.749-.1587,4.1025-.1587,2.876,0,5.7236.2393,8.459.7109,4.2402.7349,6.2979,1.6538,7.293,2.4023-1.2949,2.0532-2.5938,4.8608-3.958,8.5532-1.4619,3.9624-2.8066,8.2759-3.9971,12.8193-.4453,1.6987-.8691,3.4355-1.2588,5.1611l7.3643,2.8838c.3672-.6353.749-1.2891,1.1113-1.9097,3.4951-5.751,6.999-10.4102,10.4141-13.8481,3.3965-3.4165,6.4443-5.3984,9.3184-6.0586,1.6484-.3784,3.251-.5703,4.7627-.5703,2.6367,0,5.0938.5869,7.3027,1.7441,3.4795,1.8247,5.6084,4.6167,6.5088,8.5366,2.0361,8.8657,2.582,18.1089,1.6201,27.4727-.9609,9.3599-3.4395,18.3091-7.3848,26.6353-1.459,3.1616-3.3418,6.3335-5.5947,9.4272-2.2578,3.103-4.7422,6.0034-7.3828,8.6206-2.626,2.604-5.3193,4.8242-8.0049,6.6006-2.6455,1.751-5.1377,2.9033-7.4082,3.4248-1.0225.2349-2.0215.354-2.9678.354-.9951,0-1.9561-.1318-2.8564-.3926-1.4336-.4141-2.5693-1.0376-3.3867-1.8569,4.0391-3.9512,7.7656-8.9678,11.083-14.9233,3.4561-6.2031,6.4268-13.2012,8.8311-20.8008,2.4004-7.5869,4.2041-15.708,5.3643-24.1406.8174-5.9614,1.2676-12.0063,1.3379-17.9668l.1152-9.8022-6.9404,6.9229c-2.0391,2.0342-3.9404,4.1187-5.6514,6.1968-3.1611,3.8423-6.1191,8.6504-8.7627,14.2295-3.3223,6.7109-5.8262,11.8867-7.6562,15.8228-1.8359,3.9482-3.3486,7.3579-4.499,10.1372-1.1562,2.8008-2.041,5.3926-2.6289,7.7002-.5947,2.3306-1.1797,5.1738-1.7236,8.3784-.8398,4.4443-1.6709,10.2808-2.4717,17.3452-.7979,7.0161-1.4932,14.9863-2.0664,23.6895-.5684,8.6504-1.0215,17.9541-1.3477,27.6543-.3164,9.4336-.5547,18.9307-.708,28.2451-.6016-.1162-1.541-.4883-2.7051-1.6895l-.2549-.2627-.2988-.2129c-1.125-.7998-1.9434-1.3877-2.4619-1.7627-.5479-.3936-1.1553-.6699-1.8066-.8213l-.2734-.0635-.2812-.0244c-1.7314-.1523-2.7988-2.3105-3.3896-4.0938l-.1191-.3594-.1836-.3301c-.7832-1.4053-1.5068-3.1406-2.1514-5.1611Zm187.042,111.3623c-12.9912-1.1055-26.3662-1.666-39.7754-1.666-68.9277,0-143.3623,14.6299-221.2363,43.4844-78.3647,29.04-144.5591,66.3604-188.3701,91.0596l-12.8188,7.2051c-4.751-7.7705-6.9155-11.0117-11.0918-11.0117-1.8672,0-3.3984.7656-5.2534,1.6953l-43.9038,23.2412c-1.5977-2.5371-4.1167-5.2979-8.3291-5.2979-1.9502,0-4.0781.6094-6.6997,1.917-12.7681,6.3848-32.0728,16.4385-47.7017,24.6387,69.8789-64.4717,153.415-126.4785,228.0688-168.9346,66.6924-37.9297,136.0557-68.3369,206.1641-90.376,62.4775-19.6426,113.9229-28.8623,146.0781-33.1387,18.2803-2.4307,32.3711-3.5508,40.9775-4.0615,4.7305-.2861,8.2969-.4883,11.1191-.4883h.0781c-20.0049,26.501-42.0215,96.5195-47.3057,121.7334Z"></path>
    <path class="uuid-02453550-4cba-4ce4-9b6b-8d0aee79c1bf" d="m688.8304,437.8981c-8.658.5148-22.853,1.6416-41.2634,4.0902-32.3271,4.2988-84.0153,13.5643-146.7498,33.2871-70.3954,22.1296-140.0161,52.6528-206.9427,90.7163-83.6072,47.547-176.4245,118.1602-250.0611,189.5712,0,0,48.7249-25.8533,73.4605-38.2212,5.2217-2.6062,7.7539-1.9059,10.4202,2.8936l1.257,2.263,47.3381-25.0603c4.6096-2.3048,4.7952-2.3976,11.7419,8.9826l1.3309,2.1748,16.1799-9.0939c43.6933-24.6337,109.725-61.8626,187.7998-90.7951,93.1649-34.5206,180.8018-48.479,260.4719-41.4812l2.3558.2086.473-2.3233c5.18-25.9414,28.4966-98.4655,47.8484-122.6215.824-.2459,1.4549-.912,1.6556-1.7483l.5333-1.9385-1.7205-1.0387c-2.8148-.6492-8.8109-.3061-16.1287.1346Z"></path>
    <path class="uuid-f05a8fb3-0301-4d29-af3e-92be7160a115" d="m366.6059,346.2291c-1.8921-.3313-3.1885-1.0528-3.9626-2.2059-1.7265-2.5674-.7501-7.0842.1991-11.4514.3201-1.4764.6498-3.0038.8648-4.4245.5542-3.6504-.8553-7.3757-3.867-10.2234-3.6393-3.4418-8.8936-4.8513-14.0539-3.7715-9.9639,2.0864-14.1686.5081-17.2425-.6435-4.1441-1.5545-14.7069-1.2327-24.2168,4.3926-17.5068,10.3557-36.4328,44.6064-42.6538,55.8604-8.943,16.1817-35.4628,70.6867-1.2885,92.6722,17.9639,11.5581,33.4991,16.0097,46.1784,13.2305,13.2639-2.9067,21.0999-13.1254,25.8413-20.5584,6.0092-9.4239,29.4489-72.3654,28.463-72.8257-1.0607-.4953-1.8969.8521-2.4575,1.76-.5256.7581-1.3618,2.0307-2.5197,3.7906-6.5826,10.0116-24.0576,36.6016-39.1913,50.1825-6.4982,5.8292-11.8672,8.1307-15.9635,6.8406-4.7191-1.486-6.7721-7.4809-7.5748-10.9211-6.2179-25.3126,19.2094-94.8334,34.1058-102.284,2.1613-1.0798,3.9817-1.2965,5.0027-.5957,1.0082.696,1.0862,2.1963.9699,3.3335-.1083,1.1038-.2087,1.8332-.2931,2.4782-.2708,2.0164-.4475,3.3494-.6227,12.8418-.0988,5.5219,1.2933,9.3284,4.1474,11.3113,2.6996,1.8762,6.5985,1.9638,10.9752.2437,6.7721-2.6598,16.6707-12.5504,19.7812-17.6661l.6944-1.1372-1.3156-.2293Z"></path>
    <path class="uuid-f05a8fb3-0301-4d29-af3e-92be7160a115" d="m450.0588,400.9479c-.5606-.6764-1.2205-1.5814-1.9628-2.6944-.7145-1.0668-1.488-2.4635-2.2998-4.156-.772-1.6028-1.4418-3.6266-1.9904-6.0151-1.0402-4.5285-1.3554-9.431-.9363-14.5722.4328-5.3308,1.2364-10.8637,2.3894-16.4466,1.1631-5.6421,2.5138-11.5164,4.0135-17.4602,1.5332-6.0803,2.8133-12.2331,3.8054-18.2876l.3118-1.9045-1.5373-1.1664c-1.1259-.8541-2.5529-1.5206-4.3699-2.0397-1.5972-.4517-3.4133-.7775-5.3983-.9685-1.9389-.1865-3.9782-.2509-6.0604-.1919-2.1601.0612-4.1794.3045-6.0018.7231l-1.238.2844-.7071,1.0559c-1.7891,2.6718-3.2591,5.4856-4.3685,8.3618-1.0698,2.7704-1.9647,5.5016-2.6589,8.1151-.6971,2.6168-1.2301,5.1406-1.5843,7.4978-.3447,2.2758-.5994,4.2676-.7576,5.921-.3486,2.7813-.9645,5.6601-1.8319,8.5564-.9068,3.0261-1.9331,6.0052-3.0496,8.854-1.1475,2.926-2.3052,5.7073-3.4414,8.2666-1.1865,2.673-2.2144,5.054-3.0404,7.0406-3.4659,8.0568-6.2642,14.1442-8.3179,18.0925-.8051,1.5465-1.5143,2.7467-2.128,3.6784-.1431-1.1826-.2357-2.6141-.2755-4.2801-.0663-2.7705.0042-5.6726.2108-8.6277.2088-3.0102.4519-5.9577.7226-8.7629.2579-2.6953.5344-4.7731.8209-6.1754l.0179-.0927c2.5096-14.4195,5.2252-25.7592,8.0712-33.7047,3.7342-10.4332,5.0022-13.2726,5.4266-14.0366l1.3914-2.5072-2.3384-1.6601c-1.5997-1.1357-3.4262-1.9402-5.4364-2.3925-1.7336-.3858-3.5268-.659-5.3377-.8125-1.8771-.1554-3.6997-.1454-5.4155.0294-1.6676.1699-3.1453.4012-4.3919.6875l-1.0058.231-.6824.7751c-3.5592,4.0444-6.6426,9.2287-9.1631,15.4076-2.4511,6.006-4.4883,12.394-6.0556,18.9852-1.5602,6.55-2.7661,13.2106-3.5837,19.7952-.8199,6.5806-1.2533,12.5117-1.2885,17.6221-.0251,2.9012.1408,5.6164.4935,8.069.3387,2.3637.9268,5.3736,1.7474,8.9461l.078.3394.1486.3145c1.2292,2.5952,2.9856,4.7909,5.2167,6.5228,2.0926,1.6301,4.4384,2.9252,6.9699,3.8468,2.4822.9053,5.0699,1.4731,7.6985,1.688,2.6666.2125,5.1852.052,7.4864-.4766l.2238-.0514.2141-.0826c1.3388-.5175,2.7016-1.567,4.2976-3.3122,1.3615-1.4999,2.7233-3.4231,4.0473-5.7151l.0596-.1017.0508-.106c.7243-1.4977,1.801-3.8155,3.2002-6.8901,1.3991-3.0801,2.8196-6.2297,4.2545-9.451.6244-1.4019,1.2373-2.7283,1.835-3.9725.6146,1.935,1.531,4.0347,2.7761,6.3636,1.8075,3.3885,4.454,5.993,7.8656,7.7404l.1572.0807.1653.0628c1.8311.6957,3.7703,1.3084,5.7582,1.82,1.9489.5039,3.9287.9211,5.888,1.2409,2.004.3243,3.7501.5133,5.3387.5773,1.7608.0713,3.183-.0243,4.3485-.292.9411-.2162,1.7624-.8087,2.3395-1.7118.2426-.3921.9799-1.585.6433-3.05-.259-1.1277-.8556-2.246-1.8288-3.4251Z"></path>
    <path class="uuid-f05a8fb3-0301-4d29-af3e-92be7160a115" d="m536.2862,295.503c-4.3433-2.276-9.3292-2.7906-14.8183-1.5297-3.632.8343-7.3148,3.169-11.2589,7.137-3.6355,3.6587-7.3264,8.5529-10.9958,14.5906-.3995.6818-.7839,1.3422-1.155,1.9829.3808-1.6881.7897-3.3658,1.2252-5.0258,1.1573-4.4182,2.4628-8.6072,3.8816-12.4495,1.3637-3.6925,2.6748-6.4767,3.8965-8.2749l1.4431-2.1235-1.7583-1.8713c-1.7466-1.8586-4.9184-3.1334-9.986-4.0118-4.4947-.775-9.1886-.9659-13.9525-.5673l-1.4838.1241-.8615,1.2137c-1.0484,1.4765-2.0571,3.4049-3.0851,5.8957-.9468,2.2937-1.8532,4.7626-2.6936,7.3404-.8412,2.5882-1.5364,5.1355-2.0649,7.5697-.5465,2.5102-.8929,4.5803-1.0589,6.328l-.0085.1085c-.1334,2.1839-.3856,4.9068-.7498,8.0901-.3938,3.4123-.8964,7.5665-1.4933,12.3472-.6148,4.9347-1.4557,10.9067-2.4986,17.7492-1.0199,6.6821-2.2191,14.6722-3.6613,24.4017-1.1704,7.5004-2.1288,14.9793-2.8476,22.2283-.7182,7.2411-1.2044,14.0189-1.4451,20.1439-.2466,6.1584-.2811,11.7242-.1033,16.5401.18,5.0016.5862,8.8212,1.2421,11.6768.676,2.9428,1.3878,5.5916,2.1162,7.8739.7247,2.2716,1.554,4.252,2.468,5.8919,1.7355,5.2401,4.6175,6.6251,6.8352,6.8207.1396.0321.2588.0876.3773.1727.5166.3732,1.3426.9668,2.4789,1.7742,1.9979,2.0619,4.1842,3.0538,6.5032,2.95l3.0126-.1347.0477-3.0147c.1522-9.5571.3942-19.3159.7197-29.0066.3235-9.6581.775-18.9186,1.3407-27.5254.5667-8.6166,1.256-16.5224,2.0495-23.5002.7904-6.9739,1.6035-12.6923,2.4276-17.0545.5397-3.1713,1.1012-5.9062,1.6694-8.1312.5428-2.1322,1.3675-4.5429,2.4503-7.1641,1.1273-2.7259,2.6177-6.0828,4.4284-9.9769,1.8314-3.9377,4.3141-9.0684,7.6137-15.7348,2.5345-5.3471,5.3164-9.8766,8.2675-13.4624,1.6371-1.9887,3.4386-3.9628,5.3877-5.9063-.0687,5.8004-.5039,11.6512-1.3015,17.4707-1.1283,8.2089-2.8831,16.108-5.2149,23.4777-2.3217,7.3407-5.1856,14.0904-8.5117,20.0607-3.2707,5.8707-6.9346,10.7475-10.89,14.4957l-2.0898,1.98,1.7457,2.2887c1.359,1.7823,3.3508,3.0623,5.9209,3.8055,2.4215.6997,5.057.7313,7.8314.094,2.7397-.6293,5.6735-1.971,8.7204-3.9878,2.9067-1.9229,5.8049-4.3108,8.6133-7.0953,2.7904-2.7653,5.4151-5.8296,7.8007-9.1074,2.4087-3.3085,4.4289-6.7178,5.992-10.1046,4.1234-8.702,6.7248-18.09,7.7324-27.903,1.0062-9.8008.4342-19.4828-1.7007-28.7768-1.1611-5.0546-4.0376-8.8172-8.5506-11.1836Z"></path>
    <path class="uuid-b0612e77-32e6-47d2-afa9-8f723771745e" d="m251.3182,362.3779c-10.2244-10.2268-102.0649-89.3517-109.5337-94.8432-2.2808-1.9602-2.7849-2.9929-2.8045-3.5166-.0196-.5433.5604-1.1526,1.5148-2.1046.3891-.3891,41.7662-46.0634,54.1514-77.3874,4.1651-10.5351,12.4782-36.9378-.2765-54.5135-8.3107-11.4504-23.7377-16.5699-45.8578-15.2166-26.2069,1.6054-72.263,29.1729-99.7816,45.6449-8.4697,5.0706-18.5203,10.6379-18.5203,10.6379-2.5744,2.2539-9.7545,3.1813-10.934,1.8109-3.6855-4.285-5.7509-6.4263-5.7509-6.4263,0,0-1.5956,2.9538-1.5956,8.9127l-.7244,9.1721c-.7366,8.8931-1.5711,18.973-1.0425,24.768.2692,2.9684,1.5197,10.2268,7.2779,13.5036,4.2189,2.3982,9.7325,2.0018,16.3888-1.182,9.4021-4.4955,25.8227-14.945,40.3076-24.166,10.354-6.5878,19.2961-12.28,23.3437-14.3038,15.1187-7.5594,25.0763-7.9142,30.443-1.0841,7.6205,9.7007,1.8109,23.2581-.1517,27.1834-1.0866,2.1755-30.4699,55.6197-32.1903,59.4911-.6509,1.62-1.6274,2.4276-2.0336,2.572-.071-.1591-.1909-.5335-.1909-1.3068l-.0343-4.7867c-.1077-11.9937-.3573-40.0825,1.3729-45.8554l.6069-2.0189-33.5387,3.7246c-13.2222.7929-19.4625,7.0161-21.5279,21.4692l-24.0828,180.6245,81.4669-24.1268s-3.5631-96.0277-3.5631-107.3532c0-1.8941.3524-2.4668.4429-2.5818.2618.0122,1.1893.3989,2.7115,2.1119.1786.2007.6803.7415,1.5124,1.6372,43.2981,46.7192,72.3462,83.8211,79.7,101.7981l.6216,1.5172,1.3998-.859c10.7676-6.5976,57.7292-26.7796,70.3003-30.6217l2.222-.6779-1.6494-1.6469h0Z"></path>
    <path class="uuid-f05a8fb3-0301-4d29-af3e-92be7160a115" d="m268.5104,177.0505c-.9662.0456-1.9628.1732-2.9625.3787-.7.1445-1.3655.3068-1.9958.4886-7.2125-7.6816-13.9189-12.3622-20.4401-14.2774l-1.1961-.3513-1.221.2511c-9.3755,1.9305-18.5802,7.9116-27.3526,17.7717-5.3887,6.0373-10.194,12.9695-14.2838,20.6052-4.0654,7.5929-7.369,15.542-9.8183,23.6243-2.4684,8.1326-4.0097,16.4366-4.5811,24.6806-.575,8.3136-.0982,16.2595,1.4165,23.6167,2.6494,12.8661,8.2018,23.005,16.5018,30.1343,7.9125,6.8,17.2458,9.9968,27.7419,9.502.7897-.0372,1.5881-.0954,2.3929-.1744l.7989-.0787.734-.325c10.4362-4.6177,19.7966-10.8315,27.8208-18.4698,8.0218-7.6377,14.5897-16.4592,19.5208-26.2203,4.9131-9.727,8.2223-20.2539,9.8343-31.2893,1.6154-11.0762,1.2386-22.5008-1.1199-33.9571-3.6453-17.7025-10.9765-26.4196-21.7907-25.9098Zm-45.2123,102.7001c-.6344-3.078-.8958-6.7876-.7774-11.0245.1229-4.3817.6306-9.0832,1.5091-13.9757.884-4.9304,2.1286-9.9692,3.6988-14.976,1.5618-4.9765,3.3755-9.7122,5.3919-14.0762,3.017-6.077,6.9336-12.1813,11.6405-18.1411,3.6222-4.5829,7.9511-8.4932,12.9051-11.6617.2711.5034.5254,1.0355.7625,1.5962.9242,2.1835,1.8284,5.4062,2.6874,9.5774,2.0021,9.7227,2.6182,19.2457,1.8324,28.3025-.7883,9.0457-2.7599,17.4819-5.8608,25.0748-3.0765,7.5312-7.2273,14.215-12.3388,19.8678-4.4957,4.9765-9.7563,8.9924-15.6636,11.9613-.4494-.4901-1.0821-1.2937-1.8783-2.5878-1.8562-3.0092-3.1713-6.3523-3.9088-9.9373Z"></path>
    <path class="uuid-f05a8fb3-0301-4d29-af3e-92be7160a115" d="m462.6175,124.7627l-.326-2.8501-2.6248-1.1575c-1.5825-.6982-3.4563-1.0014-5.5692-.9018-1.0642.0502-2.2273.2037-3.456.4567-3.3579.6916-6.9587,1.994-10.7084,3.8733-4.4925,2.2561-7.1806,4.5668-8.457,7.2711l-.5022,1.0649.0252,1.1769c.1872,8.7196.2221,16.3646.1042,22.72-.1201,6.2861-.4787,12.0965-1.0679,17.2677-.5847,5.1211-1.4866,10.0651-2.6803,14.6909-1.2073,4.667-2.9209,9.8145-5.0908,15.2992l-.0383.0996c-1.6829,4.533-3.7523,9.2886-6.1535,14.1385-2.4035,4.8632-4.7916,9.5145-7.0944,13.8196-.3684.6885-.7337,1.3598-1.093,2.0127-.0703-2.4868-.1507-5.0845-.2401-7.7879-.3138-9.4146-.4638-18.9626-.4463-28.3801.0133-9.4022.436-18.2292,1.256-26.2377.7771-7.6144,2.0666-13.3377,3.834-17.0109l.9384-1.9531-.7825-2.0206c-.6556-1.6917-2.1798-3.9525-5.7379-5.1246-1.7176-.5574-3.7036-.9399-5.9097-1.137-1.3931-.1225-2.8471-.1493-4.322-.0798-.8194.0386-1.6628.1077-2.5184.2072-2.2011.2602-4.2448.5834-6.0758.96-3.4973.7207-4.7529,1.1919-5.5187,1.5575l-1.2563.5999-.7654,1.1623c-3.1632,4.8008-5.1289,9.8672-5.8424,15.0555-.613,4.4371-1.1306,8.4102-1.5278,11.7432-.5284,3.9717-1.3603,7.7475-2.4725,11.2177-1.0552,3.2804-3.6327,7.8326-7.6247,13.479-3.356,4.6207-7.0608,10.716-11.0097,18.1162-1.2177,2.2806-2.4564,4.6536-3.7132,7.1115-.0565-.7936-.1146-1.5916-.1745-2.3948-.5478-7.3163-.6412-14.6682-.2769-21.852.3557-7.0343,1.3859-13.8604,3.062-20.2907,1.581-6.0719,4.2661-11.4964,7.9806-16.1217l2.2102-2.7522-1.853-3.004c-1.9594-3.1759-5.6567-5.0287-11.3096-5.6651-2.2953-.255-4.5983-.3312-6.8458-.2252-2.1553.1016-4.3163.3731-6.4227.8068-8.3627,1.7224-14.9358,5.8637-19.5353,12.3076-4.3958,6.1533-6.9465,14.104-7.5778,23.5866-.4925,6.5163-.7802,13.9028-.8559,21.9509-.0789,7.9271-.0162,15.8318.1852,23.4949.2012,7.6162.5617,14.756,1.0714,21.2226.5278,6.6842,1.1555,11.7359,1.9188,15.4429,1.2369,6.008,3.7764,10.9227,7.5478,14.6075,3.877,3.7884,9.4138,6.0668,16.4564,6.7731l3.4891.3493,1.5174-3.1609c2.0813-4.3357,3.8725-8.4188,5.3241-12.1343,1.4321-3.6628,2.9004-7.254,4.3662-10.6784,1.5222-3.5659,3.1403-7.3294,4.857-11.3013,1.6772-3.8865,3.7248-8.4817,6.0596-13.6012,1.1065-2.3467,2.5649-5.235,4.3358-8.5863,1.8376-3.4815,3.6743-6.8999,5.4615-10.163.3285-.6016.658-1.192.987-1.7716-.0106.4287-.0217.8677-.0333,1.316-.0758,2.7791-.2379,6.1323-.4819,9.9664l-.0056.1083c-.193,4.6065-.1116,8.9659.2415,12.9503.3464,3.9788,1.0664,8.643,2.1406,13.8638,1.2387,6.0147,3.9824,10.7516,8.1554,14.0788,3.6021,2.8721,7.641,4.224,12.0033,4.0183.9794-.0462,1.9842-.1742,2.9844-.3802,2.8931-.5959,5.8869-2.748,9.4266-6.7781,2.8323-3.2346,5.8319-7.1297,8.9149-11.5767,3.0292-4.3667,6.134-9.1403,9.2289-14.1872,3.0432-4.9618,5.8535-9.5123,8.4489-13.6845,6.2594-10.1928,11.6933-19.6662,16.15-28.157,4.5356-8.6416,8.1501-17.2237,10.7423-25.5093,2.6037-8.3316,4.3286-16.827,5.1263-25.2474.799-8.4137.6127-17.8612-.5535-28.0808Z"></path>
    <path class="uuid-f05a8fb3-0301-4d29-af3e-92be7160a115" d="m567.7239,171.9944c1.7204-10.0834,2.6086-20.3598,2.6407-30.5445.0292-10.2676-.9277-20.1965-2.846-29.5115-1.9133-9.2903-4.8898-18.9465-8.8457-28.6988-3.935-9.7053-8.6335-19.0961-13.9667-27.9128-5.321-8.786-11.1296-16.9635-17.2663-24.3057-6.2318-7.4511-12.5706-13.5632-18.8383-18.1672l-2.1763-1.598-2.5307.943c-2.7314,1.0184-5.4664,2.6886-8.1306,4.966-2.4255,2.0755-4.7303,4.3878-6.851,6.8722-2.1671,2.5375-4.0494,5.2057-5.5928,7.9289-1.742,3.0718-2.7253,5.7113-3.0062,8.069l-.2774,2.3286,1.6132,1.7023c8.2141,8.6672,15.2582,16.5288,20.9361,23.3662,5.6105,6.7565,10.3581,13.166,14.1089,19.0467,3.727,5.8525,6.8587,11.666,9.3074,17.2781,1.0556,2.4212,2.0952,4.9385,3.1143,7.5389-1.2255-.3831-2.4714-.7233-3.7357-1.0186-3.9728-.9262-7.6253-1.3191-10.857-1.1668-1.3588.0641-2.675.2258-3.9114.4801l-.5577.1148-.5177.2375c-4.9447,2.2661-9.6811,6.0261-14.0782,11.1749-4.1293,4.8385-8.0775,10.5298-11.7341,16.9131-3.6523,6.37-6.9335,13.4376-9.7512,21.0045-2.8128,7.5471-5.0846,15.2657-6.7494,22.9405-1.6744,7.7002-2.7301,15.4392-3.1379,23.0053-.4133,7.7185.035,14.8224,1.3308,21.1146,2.5561,12.4129,8.2914,21.6282,17.045,27.3879,7.8639,5.1784,17.8886,7.5199,29.7953,6.9586,1.0672-.0503,2.1548-.1241,3.2579-.2206l.7283-.0642.6804-.2696c6.3301-2.5123,12.3523-6.7254,17.9007-12.5248,5.3497-5.5985,10.2559-12.4352,14.5828-20.3177,4.2752-7.7783,8.0102-16.4795,11.1011-25.862,3.0697-9.3136,5.4966-19.1341,7.2155-29.1891Zm-66.7554,59.8135c-.8214-3.9862-.9152-8.9189-.2806-14.6622.6614-6.0027,1.9585-12.4997,3.8546-19.3123,1.9158-6.8928,4.295-13.9927,7.0708-21.1,2.7568-7.0546,5.8949-13.7758,9.3284-19.9776,3.4361-6.2073,7.0433-11.8546,10.7205-16.7842,1.51-2.0221,3.0144-3.8288,4.507-5.4116,1.903,9.5704,2.5036,19.9457,1.7867,30.848-.744,11.2609-2.5295,22.1828-5.3073,32.4612-2.7625,10.2093-6.3919,19.431-10.7867,27.408-3.8482,6.9844-8.0462,12.0231-12.4931,14.9995-3.6082-.0758-6.9639-1.4965-8.4003-8.4688Z"></path>
    <path class="uuid-f05a8fb3-0301-4d29-af3e-92be7160a115" d="m699.183,87.2561c-1.618-1.2856-3.7064-2.285-6.3933-3.0578-2.2941-.6549-4.9021-1.144-7.7538-1.4539-2.774-.2994-5.6414-.4433-8.5217-.4268-.7174.004-1.4204.0225-2.1101.055-2.2329.1053-4.3608.3635-6.3253.768l-2.7731.5712-.9367,2.6721c-2.7463,7.8363-5.3014,15.5403-7.5931,22.8996-2.3313,7.4941-4.549,14.7237-6.5921,21.4876-2.0829,6.8938-4.2452,13.8461-6.4287,20.6616-2.1684,6.7605-4.691,13.7029-7.4837,20.5955-4.4192,10.6545-8.6816,18.7455-12.6676,24.051-2.0762,2.7644-3.7675,4.6523-5.1058,5.9414-.1452-1.4425-.2398-3.4691-.1816-6.2782.0792-3.9197.2709-7.9825.5704-12.0798.296-4.1108.6774-8.1322,1.1335-11.9563.4372-3.6873.8809-6.5321,1.3201-8.4553l.0304-.1432c3.9132-19.8117,8.0568-35.3776,12.3153-46.2665,5.7193-14.6396,7.7033-18.0943,8.291-18.8997l3.09-4.2366-4.379-2.8849c-2.3681-1.5606-5.0159-2.6867-7.8793-3.349-2.4827-.5693-5.0598-.9855-7.6703-1.2383-2.2468-.2118-4.418-.2708-6.4539-.1748-.4097.0193-.8152.0448-1.2165.0764-2.3678.1869-4.2986.4388-5.9049.7692l-1.6189.3334-1.1014,1.2329c-4.8977,5.4809-9.2543,12.5699-12.9489,21.0692-3.5872,8.2499-6.6559,17.0438-9.1202,26.1357-2.4629,9.0787-4.3913,18.2959-5.731,27.3926-1.3437,9.0944-2.1317,17.3056-2.342,24.3971-.1254,3.9967-.0378,7.7003.2586,11.0015.2926,3.3024.9659,7.4848,2.0566,12.7865l.1102.533.2209.4965c1.6703,3.7429,4.1556,6.9179,7.383,9.4323,2.9598,2.3124,6.2299,4.1751,9.7167,5.5344,3.4531,1.3496,7.0639,2.2284,10.7434,2.6132,1.9442.1992,3.8494.257,5.6618.1711,1.6759-.079,3.3175-.282,4.8793-.6035l.8278-.1705.7246-.4326c4.2886-2.5573,8.4057-6.597,12.2371-12.01,3.5387-5.0057,6.895-10.5625,9.9765-16.5155.3539-.6844.7029-1.3696,1.0489-2.0561-1.0938,7.49-2.4329,14.6929-4.0119,21.5742-3.7137,16.1616-8.6445,30.4394-14.6575,42.4361-5.9301,11.8261-12.8916,21.5387-20.687,28.8671-7.5495,7.089-15.9042,11.6154-24.8344,13.454-1.6857.3473-3.2202.5834-4.5473.7003-.0935.0083-.187.0142-.2807.0186-.797.0376-1.556-.0532-2.3124-.2757-1.1947-.3528-2.4944-.8591-3.8601-1.5015-1.4388-.6781-3.3537-1.7292-5.6906-3.1251l-3.3076-1.9753-2.7531,2.6951c-4.2278,4.1378-4.4654,8.1593-3.9204,10.8035l.2393,1.157.73.9276c2.1868,2.7756,5.3207,5.1507,9.3185,7.0617,3.6414,1.7352,7.7358,3.1035,12.1757,4.0664,4.3735.9435,8.9999,1.4655,13.7544,1.5518,1.4158.0242,2.8451.0032,4.2498-.063,3.3625-.1585,6.7388-.5826,10.0348-1.2611,9.2622-1.9075,18.1123-6.2534,26.3066-12.9177,7.9851-6.498,15.3467-15.0632,21.8965-25.4833,4.9972-8.0568,9.4407-16.5166,13.2075-25.1445,3.7578-8.6118,7.0658-17.9924,9.8326-27.8841,2.7424-9.8266,5.0827-20.5737,6.9546-31.9445,1.8529-11.2755,3.4983-23.8626,4.8878-37.3986,1.263-11.9888,3.1174-23.9996,5.5096-35.698,2.4267-11.8589,5.17-24.1545,8.1523-36.5446l.7464-3.1006-2.4966-1.9842Z"></path>
  </g>
</svg>
