<svg class="wp-image-1562 replaced-svg svg-replaced-3" viewBox="0 0 1122.2105 633.6132"
    xmlns="http://www.w3.org/2000/svg" data-name="Layer 2" id="uuid-cfe55578-c5a6-4f1c-b622-3fdcbb31c9d5">
    <g data-name="v7" id="uuid-c734e40c-a0fe-4780-b851-dcc1d61c5954">
        <g>
            <g>
                <path style="fill: #bf203c;"
                    d="M471.6472,626.4385c-10.0967,0-17.8184-3.0523-23.4131-9.2911-7.4502,5.9177-16.0771,9.1183-24.8218,9.1183-11.5664,0-20.5981-5.1202-25.3242-13.6127-6.9185,7.3808-15.0513,13.4398-26.2246,13.4398-15.9409,0-26.6514-11.1407-26.6514-27.7227,0-3.935.7617-9.6753,2.3291-17.5477l3.3086-17.3714c.6465-3.4014.8955-5.2884.9741-6.3346-1.6875.3596-3.5933,1.7492-5.5308,4.0249l-11.0405,57.483c-.626,3.259-3.0513,5.5686-5.8477,5.5686h-28.7388c-1.8296,0-3.5596-.9984-4.6978-2.7113s-1.5605-3.9526-1.147-6.0835l19.0483-98.1774c.4077-2.3225.5879-3.6933.6665-4.4768-.1914-.0607-.4355-.1226-.7402-.1763-1.6709-.2954-3.1597-1.4199-4.1016-3.0955-.9419-1.6768-1.2495-3.7494-.8472-5.7111l1.8779-9.1533c.6475-3.1562,2.9897-5.3981,5.7075-5.4635,0,0,36.3281-.8641,36.3677-.8641,1.8091,0,3.5239.9762,4.6641,2.6611,1.1655,1.7223,1.6006,3.9911,1.1782,6.1489l-5.6841,29.0258c4.0488-1.5168,8.165-2.2641,12.4058-2.2641,17.2368,0,28.8179,11.5576,28.8179,28.7596,0,3.2846-.626,8.002-1.7637,13.2915,0,0-3.9067,19.5456-3.916,19.5899-.1743.8022-.3267,1.525-.46,2.1765.8408-.5149,1.7788-.7905,2.7388-.7905.0889,0,.1777.0023.2666.007,1.6353.0864,3.168.9692,4.2446,2.4369.2456-1.4678.5488-3.0885.9141-4.896l5.6045-29.3878c.1206-.6831.2412-1.337.3564-1.964.2363-1.2856.479-2.6027.5923-3.5544-.1909-.0596-.4326-.1214-.7344-.174-1.6704-.2966-3.1592-1.421-4.1006-3.0967-.9419-1.6756-1.249-3.7482-.8467-5.7087l1.877-9.151c.6582-3.2099,3.064-5.4658,5.8271-5.4658h36.3931c1.834,0,3.5669,1.003,4.7051,2.7218,1.1377,1.72,1.5557,3.9666,1.1343,6.1011l-10.3979,52.6664c-.6094,2.9145-.894,4.9953-1.0259,6.3404,1.7231-.2242,3.749-1.6312,6.0415-4.1966l11.022-58.047c.6201-3.2671,3.0493-5.5861,5.8511-5.5861h28.0161c1.8159,0,3.5342.9832,4.6733,2.674.9517,1.414,1.4131,3.1936,1.3135,4.9789l12.8804-13.476c1.1343-1.1863,2.5439-1.7749,3.9502-1.7749,1.5225,0,3.041.6889,4.2046,2.0551,9.0493,10.6246,13.6377,24.1403,13.6377,40.1712,0,2.4649-.1104,4.9194-.3276,7.3505l9.833-50.6802c.4087-2.3248.5889-3.6957.6675-4.4792-.1914-.0607-.4351-.1226-.7402-.1763-1.6709-.2954-3.1597-1.4199-4.1016-3.0955s-1.2495-3.7494-.8477-5.7099l1.8774-9.1533c.647-3.1574,2.9893-5.3993,5.708-5.4647,0,0,36.3271-.8641,36.3672-.8641,1.8086,0,3.5234.9762,4.6641,2.6611,1.166,1.7223,1.6006,3.9911,1.1777,6.1489l-5.6836,29.027c4.0498-1.5168,8.166-2.2653,12.4072-2.2653,17.2363,0,28.8174,11.5576,28.8174,28.7596,0,3.2905-.627,8.0125-1.7656,13.3009,0,0-3.9043,19.5351-3.9141,19.5783-.1738.8034-.3262,1.5273-.46,2.1789.8408-.5149,1.7783-.7905,2.7383-.7905.0889,0,.1777.0023.2666.007.6973.0374,1.375.2184,2.0078.5278,2.5312-9.3623,8.3799-16.143,15.4609-21.0881-1.6445-.1483-3.1738-1.1034-4.2178-2.6518-1.1387-1.6896-1.5771-3.9047-1.1914-6.0252l3.6113-19.8597c.418-2.2991,1.7529-4.2071,3.5713-5.105,11.627-5.7461,23.9619-8.6594,36.6631-8.6594,26.8906,0,36.4717,16.9066,36.4717,32.7297,0,3.1013-.5928,6.4724-1.3438,10.7402l-.3682,2.1088s-3.3623,18.3475-3.377,18.4153c-.123.5908-.2246,1.1151-.3086,1.5787.3711-.0852.75-.1284,1.1309-.1284.2598,0,.5195.0199.7803.0607,1.6191.2534,3.0811,1.2856,4.0498,2.8573l.5342.8664c-.3594-2.4381-.541-4.9929-.541-7.6622,0-17.564,6.4814-33.3731,18.7441-45.72,10.79-10.7846,23.0078-16.0192,37.3682-16.0192,11.7754,0,22.0967,4.5492,31.5537,13.9081,2.3623,2.3377,2.8711,6.4292,1.1777,9.4861l-13.5752,24.5187c-1.1475,2.0726-3.0527,3.2158-5.0068,3.2158-.9648,0-1.9414-.2791-2.8447-.8617l-9.0986-5.8699c-2.5664-1.6558-3.7656-5.2767-2.8428-8.5847.2754-.9878.6514-2.3342.7021-2.8047-.1338-.0747-.4375-.1833-.9326-.1833-5.4014,0-11.1846,10.7168-11.1846,26.6707,0,10.6118,3.7773,10.6118,6.2764,10.6118,2.8174,0,6.0391-1.0381,8.5654-8.7411.9014-2.7464,3.1182-4.5539,5.5859-4.5539h13.1416c1.8252,0,3.5518.9937,4.6904,2.7008.6084.9119,1.0137,1.9745,1.1973,3.0908l13.2188-71.0618c.1377-.836.2305-1.7585.2754-2.7183-.1621-.0304-.3408-.0619-.5381-.0934-1.708-.2721-3.2344-1.4082-4.1934-3.1188-.958-1.7118-1.2559-3.8323-.8154-5.8243l2.0215-9.1533c.6836-3.0967,3.002-5.2767,5.6807-5.3409,0,0,36.1846-.8641,36.2246-.8641,1.8135,0,3.5322.9808,4.6719,2.6728,1.166,1.7293,1.5957,4.0074,1.1641,6.1676l-8.7256,43.7069c10.9814-10.9691,21.9336-16.9755,31.4834-16.9755,6.7305,0,12.1367,2.6121,17.0127,8.2215,1.5195,1.748,2.1602,4.3204,1.6885,6.7783l-3.9609,20.6023c3.4404-7.6867,8.4131-14.7768,14.6211-20.6023,10.2861-9.8014,23.1143-14.9998,37.0645-14.9998,24.7871,0,33.582,15.5848,33.582,28.9313,0,6.5553-1.9287,18.5344-14.332,27.5347h6.4551c1.8242,0,3.5498.9925,4.6885,2.6973,1.1377,1.7036,1.5664,3.935,1.1631,6.0625l-4.1885,22.1028c-.4277,2.2583-1.7412,4.13-3.5264,5.028-13.2764,6.6732-26.5459,10.0571-39.4395,10.0571-16.9072,0-29.8057-7.417-36.4736-19.9986-9.2129,13.5216-18.791,19.8258-30.0957,19.8258-12.6279,0-21.5186-8.5672-26.5488-25.5217-1.4023,4.9521-2.5449,10.7554-3.4902,17.6142-.4775,3.4656-2.9824,6.0076-5.9199,6.0076h-28.3066c-1.8203,0-3.542-.9878-4.6807-2.6856s-1.5713-3.9222-1.1758-6.0462l.0322-.1751c-.5576,1.0054-1.3242,1.8379-2.2412,2.4054-9.0586,5.6095-19.9502,8.5742-31.498,8.5742-17.4277,0-30.4561-5.9726-37.7539-16.6988-.3271.8244-.791,1.5845-1.3867,2.2314-8.9736,9.7348-18.6533,14.4674-29.5938,14.4674-7.3516,0-13.0908-2.5572-17.376-7.7767-6.6367,5.0502-14.5586,7.6038-23.6387,7.6038-10.0908,0-17.9795-4.1873-22.5459-11.3964-6.4893,6.4233-14.1162,11.3964-24.2383,11.3964-15.9404,0-26.6509-11.1407-26.6509-27.7227,0-3.9374.7617-9.6765,2.3286-17.5477l3.3081-17.3714c.6465-3.4037.896-5.2907.9751-6.3346-1.687.3596-3.5928,1.7492-5.5303,4.0249l-11.04,57.483c-.6265,3.259-3.0518,5.5686-5.8481,5.5686h-28.7397c-1.8296,0-3.5596-.9984-4.6978-2.7113s-1.5605-3.9526-1.147-6.0835l6.0371-31.1171c-2.7563,9.0319-7.0698,17.2733-12.6934,23.9967-10.3608,12.3901-22.8599,18.1607-39.3354,18.1607ZM660.4553,585.5994c-2.4902,2.0925-3.9229,4.8096-4.0293,7.9063.7217-.2837,1.6982-.801,2.8135-1.6406l1.2158-6.2657ZM924.6448,591.1154c.9717,1.1992,2.7051,1.9804,5.7773,1.9804,7.5654,0,11.293-2.9717,13.4629-6.2809-5.3164,1.9231-11.6631,3.4201-19.2402,4.3005ZM482.4231,590.1171c.2046.0257.4609.0432.7769.0432,6.0298,0,12.4854-9.2596,12.4854-23.0439,0-1.7643-.1387-3.0663-.3008-3.9631-.3047.056-.6113.0841-.916.0841-1.7783,0-3.5142-.9446-4.6797-2.6775l-1.6812-2.5011-5.3872,29.5163c-.1743,1.0486-.2681,1.8426-.2974,2.542ZM874.5432,584.2974c1.6914.0993,3.2686,1.0474,4.3428,2.6121l1.3926,2.0271c-.1279-1.539-.1924-3.113-.1924-4.7255,0-4.4103.5283-8.8462,1.54-13.2016-.9609.7683-2.1113,1.2085-3.333,1.2085h-10.8301c-1.7139,0-3.3447-.8757-4.4834-2.4077-1.1387-1.5308-1.6758-3.5707-1.4756-5.6048.0693-.7064.3271-3.1807.3789-3.7097-.374.3164-.8027.7029-1.293,1.177,3.666,21.4722,6.3916,25.6466,7.5,26.4021.1729-.056.793-.3398,1.918-1.6849,1.1279-1.3475,2.6553-2.1006,4.2422-2.1006.0977,0,.1953.0023.293.0082ZM933.3645,553.8155c-1.918.4204-4.0713,2.6389-5.8135,6.8484,3.4854-1.8508,5.6387-4.2772,5.8135-6.8484ZM1063.5618,626.2657c-13.5762,0-25.5059-3.7552-34.499-10.8593-2.6543-2.096-3.4785-6.3031-1.8809-9.59l9.8193-20.2018c.6357-1.3078,1.5732-2.2968,2.6533-2.8981-2.1758-3.8276-3.4658-8.8217-3.4658-15.4284,0-.4916.0078-.982.0215-1.4678-1.002.8793-2.2344,1.3895-3.5488,1.3895h-11.4092c-1.7627,0-3.4365-.9271-4.5762-2.535-.3721-.5243-.6748-1.1034-.9043-1.7188-.8633,3.2344-1.6143,7.2173-1.9531,9.0191l-8.959,46.6494c-.626,3.259-3.0508,5.5686-5.8477,5.5686h-28.7393c-1.8174,0-3.5371-.9855-4.6768-2.6798-1.1387-1.6931-1.5732-3.914-1.1826-6.0357l11.4092-61.9914c.2666-1.4923.4111-2.8129.4346-3.9958-.2031-.0502-.4443-.1028-.7285-.1576-1.6543-.3199-3.1211-1.4502-4.0469-3.12-.9248-1.6698-1.2246-3.726-.8252-5.6714l1.877-9.151c.6445-3.1434,2.9697-5.3818,5.6758-5.4635,0,0,34.4727-1.0392,34.5225-1.0392,1.5488,0,3.0312.7158,4.1426,1.9839,4.0273-2.0399,8.2656-3.0196,12.8975-3.0196,3.4258,0,6.7861.6469,9.9863,1.9243,2.9248,1.1665,4.6338,4.7933,3.9531,8.3897l-2.2334,11.7946c7.4287-13.5169,22.0859-22.1086,40.1367-22.1086,11.5723,0,22.6387,4.081,32.001,11.8016,2.6309,2.1695,3.3779,6.4245,1.6982,9.6765l-9.0986,17.6131c-.0527.1016-.1074.202-.1641.3001,3.748,4.2515,6.1143,10.4366,6.1143,19.7581,0,25.8778-19.5322,43.2644-48.6035,43.2644ZM1057.8762,595.0365c.3701.5476,2.4453,2.2046,7.5645,2.2046,1.0801,0,2.0049-.1121,2.7871-.2849-.458-.0969-.9648-.1973-1.5225-.2989-2.9023-.5687-5.8789-1.1513-8.7812-1.9138-.0137.0969-.0303.195-.0479.2931ZM1080.8704,552.5521c1.0283.2452,2.0889.4834,3.1133.7076-.707-.3269-1.7275-.6294-3.1133-.7076ZM250.5603,626.2657c-12.6836,0-23.9297-3.2765-32.6875-9.5001-6.4819,5.9037-13.2368,9.5001-21.75,9.5001-8.0981,0-15.022-3.0278-19.8252-8.5018-7.5493,5.5826-15.7241,8.5018-23.9326,8.5018-17.1763,0-28.7646-11.2925-28.96-28.1513-3.8818,7.8152-9.7236,14.548-16.8193,18.8987-11.6724,7.18-25.5713,7.18-40.2856,7.18H12.0003c-1.8198,0-3.5415-.9878-4.6802-2.6845-1.1387-1.6978-1.5718-3.9222-1.1768-6.0462l2.3101-12.4321c.5879-3.1609,2.873-5.4588,5.5786-5.6095,2.6411-.1471,3.1904-.1775,4.2363-5.9271l12.6865-71.7146c.2422-1.5483.4126-2.7931.5098-3.7237-.2217-.0724-.501-.146-.8472-.2067-1.6479-.2919-3.1206-1.3895-4.0645-3.0313-.9443-1.6406-1.2759-3.677-.9141-5.6223l2.3105-12.4345c.6099-3.2823,3.0449-5.6176,5.8569-5.6176h59.7886c11.0415,0,40.3706,0,40.3706,31.3495,0,1.8426-.1294,3.656-.3813,5.4343.0498-.0012,36.5439-.0023,36.5439-.0023,1.8271,0,3.5547.996,4.6934,2.7043,1.1382,1.7095,1.5635,3.9455,1.1548,6.0742l-10.1626,52.9595c-.4043,2.2232-.8193,4.5037-1.0005,6.024,1.6812-.3655,3.6616-1.7935,5.7734-4.1359l11.0205-58.04c.6206-3.2671,3.0493-5.5861,5.8511-5.5861h28.8828c1.8315,0,3.563,1.0007,4.7012,2.716,1.1377,1.7165,1.5581,3.9596,1.1411,6.0917l-9.9648,50.9394c-.1895.9073-.354,1.7165-.4976,2.4381.8779-.5768,1.8701-.8851,2.8867-.8851.0796,0,.1592.0023.2393.0058,1.6733.0794,3.2422.9913,4.3281,2.5163l1.6733,2.3482,3.1504-6.4805c.6357-1.3078,1.5728-2.2968,2.6533-2.8981-2.1753-3.8276-3.4658-8.8206-3.4658-15.4284,0-25.169,19.104-43.436,45.4253-43.436,11.5737,0,22.6396,4.081,32.0015,11.8016,2.6309,2.1707,3.3774,6.4245,1.6982,9.6765l-9.0981,17.6131c-.0527.1016-.1079.202-.1641.3001,3.7471,4.2515,6.1133,10.4366,6.1133,19.7581,0,25.8778-19.5317,43.2644-48.6021,43.2644ZM244.8748,595.0353c.3687.5488,2.4438,2.2057,7.5625,2.2057,1.0801,0,2.0054-.1121,2.7881-.2849-.4585-.0969-.9648-.1973-1.5229-.2989-2.9019-.5687-5.8779-1.1513-8.7803-1.9138-.0142.0981-.0298.195-.0474.2919ZM70.344,587.916c8.1353,0,11.7632-4.0717,11.7632-13.2016,0-3.7377-.4502-5.2603-4.9756-5.2603h-8.8765l-3.3315,18.462h5.4204ZM118.4915,551.2887c5.0474,4.4663,8.3247,10.6082,9.5679,18.0801,0,0,3.0229-15.6923,3.0317-15.7355.3706-1.7702.541-3.1901.6201-4.1195-.1973-.0572-.4395-.1156-.7334-.167-1.6699-.2966-3.1587-1.421-4.1001-3.0967-.4126-.7345-.7036-1.5448-.8662-2.3879-2.1387,2.7744-4.6631,5.272-7.52,7.4264ZM267.8684,552.5521c1.0278.2452,2.0879.4834,3.1123.7076-.707-.3269-1.7266-.6294-3.1123-.7076ZM78.72,534.5584c2.0894,0,4.4243-.0794,5.9019-.6679,2.5146-1.031,4.8501-5.0396,4.8501-8.3897,0-.8022-.0762-1.2296-.1201-1.4094-.3384-.2312-1.7148-.9131-6.1553-.9131h-6.5605l-2.0439,11.3801h4.1279Z">
                </path>
                <path style="fill: #132448;"
                    d="M842.1904,495.4545l-13.7202,68.7259c15.4534-22.2746,31.0505-33.1539,42.3138-33.1539,5.1995,0,9.0988,1.8986,12.8543,6.2169l-5.3449,27.8003h-10.8304c.2891-2.9357.5781-5.1799.5781-6.9067,0-4.1446-1.444-6.217-3.8992-6.217-2.8882,0-6.0654,2.59-10.1099,7.0803,3.8992,24.347,7.6546,36.2617,14.0091,36.2617,2.0209,0,4.0431-1.209,6.2092-3.799l6.6436,9.6702c-8.0875,12.0868-16.03,17.786-25.8508,17.786-13.4309,0-21.3734-12.7778-24.2615-38.3338-6.2106,8.8053-9.5317,20.7199-11.6979,36.4336h-28.306l18.6304-100.1513c.2892-1.7268.4329-3.627.4329-5.5258,0-3.9726-1.444-5.1816-5.7761-5.8714l2.0208-9.1525,36.1046-.8633M575.6177,495.4545l-8.5206,43.5156c6.9327-5.3537,13.7202-7.9436,21.0857-7.9436,14.1517,0,22.8176,8.6332,22.8176,21.5847,0,2.2444-.433,6.2154-1.5894,11.5692l-3.8992,19.5126c-1.0097,4.6623-1.5878,7.9436-1.5878,9.6702,0,2.59,1.5878,4.4888,3.6102,4.4888,1.8769,0,3.8992-1.2091,6.0654-3.799l6.6436,9.4982c-8.6659,10.188-15.8862,15.3679-25.5617,15.3679-12.7091,0-20.6514-8.2893-20.6514-20.5495,0-3.2797.722-8.6334,2.1662-15.8856l3.321-17.4403c.722-3.799,1.1563-6.7347,1.1563-8.6334,0-3.799-2.0222-6.5625-5.1995-6.5625-3.8992,0-7.9423,2.5899-11.8416,7.7698l-11.4088,59.4013h-28.7397l19.0627-98.2528c.5782-3.2814.8672-5.5255.8672-6.9067,0-3.4534-2.0223-5.6992-5.9216-6.389l1.877-9.1525,36.2485-.8633M352.8008,495.4545l-8.5206,43.5156c6.932-5.3537,13.7194-7.9436,21.0843-7.9436,14.1531,0,22.8181,8.6332,22.8181,21.5847,0,2.2444-.4337,6.2154-1.5886,11.5692l-3.8992,19.5126c-1.0112,4.6623-1.5886,7.9436-1.5886,9.6702,0,2.59,1.5886,4.4888,3.6102,4.4888,1.8777,0,3.8992-1.2091,6.0654-3.799l6.6436,9.4982c-8.6651,10.188-15.8862,15.3679-25.5617,15.3679-12.7089,0-20.6514-8.2893-20.6514-20.5495,0-3.2797.722-8.6334,2.1661-15.8856l3.3217-17.4403c.7221-3.799,1.1551-6.7347,1.1551-8.6334,0-3.799-2.0215-6.5625-5.1989-6.5625-3.8992,0-7.9431,2.5899-11.8423,7.7698l-11.4088,59.4013h-28.7389l19.0634-98.2528c.5775-3.2814.8658-5.5255.8658-6.9067,0-3.4534-2.0215-5.6992-5.9207-6.389l1.8777-9.1525,36.2485-.8633M93.5951,496.3179c22.962,0,34.3708,6.389,34.3708,24.175,0,13.6412-9.3872,26.4193-24.9837,30.7358,12.8529,2.9357,19.6403,11.9146,19.6403,25.212,0,13.1235-7.5095,27.2825-18.7743,34.1892-10.1085,6.2171-22.5285,6.389-37.548,6.389H12.0001l2.3106-12.4322c6.21-.3458,8.376-3.627,9.8202-11.5689l12.7082-71.8336c.4337-2.7636.7228-5.0079.7228-6.5626,0-2.9357-2.1668-5.1799-6.066-5.8696l2.3106-12.434h59.7886M67.1667,541.732h11.5532c3.0328,0,5.6325-.172,7.7986-1.0353,5.0542-2.0724,8.9535-8.8069,8.9535-15.1959,0-7.426-3.8994-9.4967-12.2754-9.4967h-11.4088l-4.6212,25.7279M57.4912,595.09h12.8528c11.6979,0,17.7632-7.598,17.7632-20.3761,0-8.2893-3.6102-12.4339-10.9758-12.4339h-13.7194l-5.9208,32.81M509.34,525.5008c7.9423,9.3248,11.8416,20.8937,11.8416,35.0527,0,16.2329-5.4879,31.9465-14.4414,42.6521-9.2426,11.0513-20.3629,16.0594-35.0926,16.0594-10.6874,0-17.9078-3.627-22.5291-11.9164-7.5102,7.7718-16.6083,11.7426-25.7063,11.7426-14.0085,0-22.962-8.4613-22.962-21.4111,0-2.7637.5775-6.5626,1.5886-11.5689l5.6325-29.5287c.5774-3.2814,1.1549-5.8712,1.1549-7.9436,0-3.4533-2.0215-5.6976-5.9207-6.389l1.8769-9.1509h36.3931l-10.3977,52.6664c-1.0111,4.8345-1.3001,8.1156-1.3001,9.8424,0,2.9357,2.3106,5.3521,5.6324,5.3521,3.8992,0,7.7985-2.59,11.9862-7.7702l11.4094-60.0907h28.0163l-9.6755,53.0123c-.2891,1.7266-.4337,3.1075-.4337,4.4887,0,4.4903,2.3106,6.7347,6.7874,6.7347,9.9654,0,18.4852-13.1237,18.4852-30.2184,0-7.598-2.0215-11.5689-4.6212-11.5689-.8658,0-1.588,0-2.5991.5176l-5.9208-8.8069,20.7958-21.757M1081.6141,531.0265c10.3977,0,20.2185,3.6253,28.5952,10.5334l-9.0988,17.6123-10.1085-4.1446c.1438-.5176.1438-1.0353.1438-1.3809,0-4.4888-4.1884-8.2878-10.9757-8.2878s-10.976,3.1077-10.976,7.0787c0,4.8361,5.1996,6.045,15.5972,8.2893,14.4421,3.1077,21.3734,7.4243,21.3734,22.2748,0,20.8935-16.03,36.0894-42.603,36.0894-12.8528,0-23.5393-3.6253-31.1926-9.6702l9.8193-20.2024,9.8209,4.3168c-.1453.5176-.1453,1.0353-.1453,1.5546,0,5.3519,4.9104,9.3245,13.5762,9.3245,7.5095,0,12.1307-4.1446,12.1307-8.4613,0-3.627-3.3225-5.1817-9.9646-6.389-16.7521-3.2811-25.418-6.2169-25.418-22.2762,0-20.3758,15.8862-36.2614,39.4257-36.2614M1029.7715,531.0265c2.7444,0,5.4886.5176,8.0878,1.5546l-5.1982,27.4545h-11.4087c.1438-1.0353.1438-1.8986.1438-2.5898,0-4.1449-1.3002-6.2171-3.8992-6.2171-5.3434,0-7.2205,6.9084-9.5317,19.1686l-8.9535,46.6216h-28.739l11.4086-61.9912c.4331-2.4164.5783-4.3166.5783-5.8697,0-4.4903-1.3003-6.0449-5.7763-6.9084l1.877-9.1509,34.3714-1.037-1.1564,7.0803c5.6324-5.5257,11.265-8.1156,18.1962-8.1156M937.21,531.0265c17.6179,0,27.5826,8.9789,27.5826,21.7568,0,17.4403-16.1739,29.8728-47.3682,31.773v1.5547c0,8.9789,4.4775,14.1588,12.9982,14.1588,9.6755,0,16.3177-4.1446,20.2169-12.7779h12.276l-4.1884,22.1026c-12.7089,6.3889-25.2726,9.4966-37.1143,9.4966-22.3845,0-35.5265-13.6412-35.5265-34.8805,0-14.159,6.3546-29.0093,17.7632-39.715,9.2426-8.8069,20.6514-13.4692,33.3603-13.4692M918.8686,570.7413c13.2857-2.0724,20.5075-8.9789,20.5075-17.2665,0-4.1446-2.3113-6.9085-5.3434-6.9085-6.9326,0-13.1418,8.6351-15.1641,24.175M762.9118,531.0265c10.5414,0,19.3511,3.9708,27.7278,12.2602l-13.5748,24.519-9.0988-5.8697c.5781-2.0722,1.011-3.627,1.011-5.0079,0-4.3169-2.7443-7.426-6.9327-7.426-9.5302,0-17.1849,14.3324-17.1849,33.8452,0,11.7426,4.1883,17.7858,12.276,17.7858,6.6422,0,11.2635-4.4903,14.1516-13.2955h13.142l-4.4761,23.4835c-8.0875,5.0081-17.9084,7.7699-28.7389,7.7699-25.1288,0-38.4145-12.7778-38.4145-33.4995,0-15.3679,5.6323-29.1813,16.6082-40.2326,9.6755-9.6702,20.6514-14.3324,33.5042-14.3324M268.6117,531.0265c10.3983,0,20.2184,3.6253,28.5945,10.5334l-9.098,17.6123-10.1092-4.1446c.1446-.5176.1446-1.0353.1446-1.3809,0-4.4888-4.1884-8.2878-10.9758-8.2878s-10.9759,3.1077-10.9759,7.0787c0,4.8361,5.1996,6.045,15.5971,8.2893,14.4414,3.1077,21.3734,7.4243,21.3734,22.2748,0,20.8935-16.03,36.0894-42.6021,36.0894-12.8535,0-23.5401-3.6253-31.1942-9.6702l9.8202-20.2024,9.8208,4.3168c-.1446.5176-.1446,1.0353-.1446,1.5546,0,5.3519,4.9105,9.3245,13.5749,9.3245,7.5102,0,12.1314-4.1446,12.1314-8.4613,0-3.627-3.3217-5.1817-9.9646-6.389-16.7528-3.2811-25.4178-6.2169-25.4178-22.2762,0-20.3758,15.8861-36.2614,39.4255-36.2614M669.7708,531.1983c19.4963,0,30.472,10.016,30.472,25.5561,0,2.7635-.722,6.3889-1.5878,11.3968l-3.3224,18.1318c-.5768,2.7618-.8659,4.8343-.8659,6.3888,0,3.799,1.2988,6.0434,3.465,6.0434,1.1563,0,2.6005-.6897,4.0444-2.0724l6.0654,9.8423c-7.7986,8.4613-16.03,12.6059-25.5617,12.6059-7.6533,0-12.7089-3.1077-16.174-10.7055-6.4997,7.0801-14.8749,10.5334-24.8403,10.5334-13.142,0-20.9404-7.9436-20.9404-20.8935,0-20.5497,16.7521-32.6363,50.8351-37.99.4329-1.7265.722-3.2811.722-4.4886,0-5.0079-3.1772-7.0804-9.6755-7.0804-8.6657,0-14.2982,3.971-16.1752,10.7057h-14.4427l3.6115-19.8582c10.8312-5.3521,22.24-8.1158,34.3708-8.1158M668.7595,574.5403c-11.5525,2.0724-18.34,9.8423-18.34,19.3406,0,4.3168,2.0223,7.0788,4.9105,7.0788,2.31,0,5.7763-1.5531,9.2426-4.8344l4.187-21.585M486.5218,533.0988h.005M216.3411,533.0988l-9.9646,50.9399c-1.0112,4.8343-1.5886,8.1156-1.5886,9.8422,0,2.2444,1.5886,4.3168,3.7546,4.3168,1.8777,0,3.8994-1.2091,6.0654-3.799l6.6435,9.3245c-8.6651,10.016-15.7415,15.3679-25.1288,15.3679-8.6643,0-15.308-3.9708-18.6297-11.0513-7.7979,7.2523-16.4631,11.0513-25.1282,11.0513-14.1523,0-22.962-8.4613-22.962-21.4111,0-2.59.5775-6.389,1.5886-11.5689l5.9209-30.7377c.722-3.4533.8665-6.0432.8665-7.0786,0-3.2814-2.0215-5.3536-5.9208-6.0451l1.8771-9.1509h36.3929l-10.1092,52.6664c-.722,3.971-1.2995,7.0787-1.2995,9.1511,0,3.4534,2.1662,6.0434,5.3434,6.0434,3.7548,0,7.7985-2.59,11.9862-7.7702l11.4095-60.0907h28.8828M170.128,533.0988h.005M575.6179,481.1062c-.0797,0-.1594.0009-.2392.0028l-36.2485.8633c-5.4366.1295-10.1209,4.6139-11.4158,10.9286l-1.8769,9.1525c-.8043,3.9223-.189,8.0684,1.6951,11.4204.8163,1.4525,1.8383,2.6976,3.0062,3.6904l-2.7906,14.3834c-2.4874-5.9432-5.8245-11.3817-10.0006-16.2847-2.3268-2.7319-5.3653-4.1104-8.4092-4.1104-2.8137,0-5.6318,1.1767-7.9003,3.5501l-7.137,7.4668c-2.0938-2.1322-4.8079-3.4189-7.7741-3.4189h-28.0214c-3.3646,0-6.46,1.6715-8.6652,4.4217-2.2517-2.8104-5.3775-4.4217-8.6649-4.4217h-36.3931c-5.5265,0-10.3383,4.5129-11.6546,10.9306l-.0178.0866c-1.0612-1.4288-2.2351-2.7642-3.5172-3.9948-6.1988-5.9498-14.5768-9.0946-24.2283-9.0946-1.4951,0-2.9752.0804-4.4424.242l3.5627-18.1949c.8448-4.314-.0248-8.8529-2.3559-12.297-2.2809-3.37-5.7108-5.3222-9.3279-5.3222-.0797,0-.1593.0009-.2392.0028l-36.2484.8633c-5.4362.1295-10.1201,4.6132-11.4155,10.9272l-1.8777,9.1525c-.8047,3.9226-.1895,8.0689,1.6943,11.4212.8167,1.4531,1.8388,2.6985,3.0071,3.6914l-2.6338,13.5745c-.3367-.3499-.6927-.6805-1.0681-.9902-10.3678-8.551-22.6117-13.0707-35.408-13.0707-14.1148,0-26.5531,4.6928-35.97,13.5709-1.5834,1.4929-3.0533,3.0798-4.4066,4.7526.4301-3.8413-.4575-7.7516-2.492-10.8189-2.2763-3.4318-5.7388-5.4324-9.402-5.4324h-28.8828c-3.3635,0-6.4584,1.6708-8.6635,4.4195-2.1835-2.7238-5.2567-4.4195-8.6618-4.4195h-30.1935c-.505-16.5895-8.2044-25.207-14.6982-29.5426-7.3968-4.9384-17.4526-7.2383-31.6463-7.2383h-59.7886c-5.6245,0-10.4943,4.6711-11.7143,11.2359l-2.3106,12.4341c-.7228,3.8895-.0605,7.9629,1.8283,11.2454.8374,1.4552,1.8823,2.6967,3.0735,3.6788l-12.2839,69.4355c-.0281.1541-.0556.2999-.0823.4378-4.7685.9575-8.6511,5.2828-9.7207,11.0369l-2.3106,12.4322c-.7895,4.2486.0763,8.696,2.3538,12.0908s5.7206,5.3701,9.3605,5.3701h54.3c14.7809,0,30.0652,0,43.0369-7.978,4.1709-2.5573,7.9656-5.8461,11.2733-9.6619,1.8048,4.1248,4.3443,7.7805,7.5487,10.7934,6.2057,5.8346,14.5759,8.9187,24.2057,8.9187,7.9785,0,15.8963-2.4007,23.3332-7.0204,5.5165,4.5524,12.5272,7.0204,20.4246,7.0204,8.8099,0,15.9686-3.3657,22.1701-8.2377,9.0853,5.4074,20.1055,8.2377,32.2675,8.2377,15.3831,0,28.6445-4.4875,38.3508-12.9774.0301-.0263.0598-.0524.0897-.0787.4044,2.0044,1.1702,3.9064,2.2703,5.5618,2.2765,3.4257,5.7358,5.4221,9.3952,5.4221h28.7389c5.5926,0,10.4438-4.6194,11.6956-11.1368l1.1681-6.0817c5.0121,11.7453,15.8135,19.1188,29.5948,19.1188,10.5326,0,18.758-4.6462,25.5324-10.6785,6.2007,6.8362,15.2613,10.8505,26.0162,10.8505,8.4582,0,16.8071-2.6261,24.305-7.5413,6.2324,5.1748,14.1534,7.7151,23.9304,7.7151,16.0152,0,29.1015-5.2924,39.8421-16.1493.0794,3.0558.9748,6.0368,2.599,8.4811,2.2765,3.4257,5.7358,5.4221,9.3953,5.4221h28.7397c5.5926,0,10.4438-4.6194,11.6956-11.1368l1.1678-6.0805c5.0127,11.7437,15.8142,19.1175,29.5944,19.1175,9.5471,0,17.1984-3.8177,23.5924-9.0252,5.7319,5.7473,13.7144,9.0252,23.1917,9.0252,8.5564,0,16.2353-2.0337,22.9514-6.0641,4.8831,4.1461,10.9207,6.2361,18.063,6.2361,11.4354,0,21.6158-4.4711,31.0203-13.6453.6094.6191,1.2405,1.2211,1.892,1.8042,8.7778,7.8572,20.8301,11.8412,35.822,11.8412,10.9141,0,21.3265-2.4701,30.3856-7.1773,2.2767,3.2322,5.6342,5.105,9.1783,5.105h28.306c5.6616,0,10.5211-4.7233,11.7208-11.2698,6.1877,8.6284,14.5217,13.17,24.2386,13.17,13.5353,0,23.0938-7.7572,29.8173-15.8576.9158,1.1285,1.8862,2.205,2.9101,3.2258,8.4017,8.3763,20.1042,12.8038,33.8423,12.8038,12.6002,0,25.4987-3.0221,38.3939-8.9904.2734.5399.5781,1.0613.9131,1.5597,2.2778,3.3878,5.7172,5.3585,9.3528,5.3585h28.739c5.5927,0,10.444-4.6196,11.6954-11.137l8.8329-45.993c.5634.0971,1.1354.1467,1.7123.1467h9.4041c.3384,2.4319.8604,4.7147,1.5643,6.8449-.1418.2535-.2778.5135-.4075.7804l-9.8192,20.2024c-3.1959,6.5752-1.5459,14.9897,3.761,19.1815,9.9778,7.8809,23.0511,12.0464,37.8068,12.0464,15.3834,0,28.6451-4.4875,38.3514-12.9774,10.48-9.1667,16.2516-22.4704,16.2516-37.4603,0-8.8035-1.8585-15.396-4.7367-20.3699l6.9905-13.5314c3.3594-6.5025,1.866-15.0124-3.396-19.3518-10.3687-8.5507-22.6127-13.0703-35.4084-13.0703-12.4823,0-23.6542,3.6707-32.5842,10.6597-1.261-3.8342-3.8845-6.9759-7.3726-8.3675-3.8125-1.5209-7.8114-2.2922-11.8859-2.2922-4.2787,0-8.3329.7442-12.2048,2.2515-1.507-.7933-3.151-1.2161-4.8341-1.2162-.1012,0-.202.0015-.3035.0046l-34.3714,1.037c-4.8704.1468-9.124,3.7867-10.8665,9.0953-.8785-.9059-1.8141-1.7662-2.8043-2.5768-6.8694-5.623-16.2671-8.5953-27.1769-8.5953-15.3047,0-29.4122,5.7263-40.8,16.5593-.35.3289-.6954.6604-1.0384.9966-.494-2.7527-1.6624-5.3173-3.4153-7.3329-5.9827-6.8789-12.908-10.223-21.1722-10.223-6.9176,0-14.3931,2.6597-22.0273,7.6821l5.1056-25.5744c.8626-4.3205.0029-8.875-2.3278-12.3338-2.2803-3.3838-5.7178-5.3458-9.3435-5.3458-.0803,0-.16.0009-.2405.0029l-36.1046.8633c-5.3577.128-9.9949,4.4879-11.3626,10.6831l-2.0208,9.1525c-.8794,3.9824-.2848,8.2247,1.6321,11.647.808,1.4425,1.8182,2.6807,2.9722,3.6712l-2.2177,11.9218c-9.6391-8.3151-20.1285-12.3698-31.9374-12.3698-15.6057,0-29.4675,5.9457-41.2001,17.6719-4.0273,4.0549-7.4948,8.4493-10.3832,13.1348-1.7231-8.4311-5.8419-15.6959-12.0133-20.9925-7.4551-6.3982-17.3952-9.6424-29.5444-9.6424-13.489,0-26.5949,3.0965-38.954,9.2035-3.6374,1.7973-6.3065,5.6133-7.1428,10.2117l-1.4623,8.0408c-1.4346-7.3168-4.7929-13.7261-9.8013-18.5332-6.1989-5.9498-14.5766-9.0946-24.2275-9.0946-1.4957,0-2.976.0804-4.4438.2421l3.5627-18.195c.8448-4.314-.0247-8.8529-2.3558-12.297-2.2808-3.37-5.7108-5.3222-9.3279-5.3222h0ZM842.1904,509.8028h.0051-.0051ZM575.6177,509.8028h.0051-.0051ZM352.8008,509.8028h.0051-.0051ZM216.3411,547.4471h.0051-.0051ZM757.1082,586.7848c-.1236-.6858-.2487-1.7876-.2487-3.4375,0-5.3708.707-9.537,1.6225-12.6181.999,1.5418,2.2738,2.8588,3.7861,3.8344l2.2327,1.4404c-1.9389,1.5896-3.4882,3.8592-4.3855,6.5951-1.3728,4.1858-2.2266,4.1858-2.9799,4.1858-.0092,0-.0182,0-.0273,0h0ZM73.0988,576.6283h2.9189c-.1562,1.535-.4924,2.4512-.8125,2.827-.3653.4288-1.2897.9095-2.8228,1.1433l.7165-3.9703h0Z">
                </path>
                <path style="fill: #fff;"
                    d="M842.1904,495.4545l-13.7201,68.7258c15.4532-22.2747,31.0504-33.1539,42.3138-33.1539,5.1994,0,9.0987,1.8986,12.8541,6.2169l-5.3447,27.8003h-10.8306c.2891-2.9358.5783-5.1799.5783-6.9067,0-4.1448-1.4442-6.2171-3.8993-6.2171-2.8881,0-6.0654,2.59-10.1099,7.0804,3.8992,24.347,7.6545,36.2615,14.0092,36.2615,2.0209,0,4.043-1.209,6.2091-3.7989l6.6436,9.6702c-8.0876,12.0867-16.03,17.7859-25.8509,17.7859-13.4308,0-21.3733-12.7778-24.2614-38.3338-6.2107,8.8052-9.5317,20.7199-11.6979,36.4335h-28.306l18.6304-100.1514c.2891-1.7265.433-3.6268.433-5.5256,0-3.9725-1.4442-5.1816-5.7763-5.8713l2.0209-9.1527,36.1046-.8633M575.6177,495.4545l-8.5206,43.5156c6.9326-5.3537,13.72-7.9436,21.0856-7.9436,14.1517,0,22.8176,8.6332,22.8176,21.585,0,2.2443-.433,6.2153-1.5894,11.5689l-3.8993,19.5125c-1.0096,4.6625-1.5879,7.9436-1.5879,9.6704,0,2.59,1.5879,4.4887,3.6102,4.4887,1.877,0,3.8993-1.209,6.0654-3.7991l6.6436,9.4984c-8.6658,10.188-15.8861,15.3679-25.5617,15.3679-12.709,0-20.6514-8.2892-20.6514-20.5495,0-3.2796.7222-8.6334,2.1661-15.8856l3.3212-17.4403c.722-3.7991,1.1562-6.7347,1.1562-8.6334,0-3.7989-2.0221-6.5626-5.1994-6.5626-3.8993,0-7.9424,2.59-11.8417,7.7699l-11.4087,59.4012h-28.7396l19.0626-98.2528c.5783-3.2811.8674-5.5255.8674-6.9065,0-3.4535-2.0223-5.6994-5.9216-6.3891l1.877-9.1527,36.2484-.8633M352.8008,495.4545l-8.5206,43.5156c6.932-5.3537,13.7195-7.9436,21.0843-7.9436,14.153,0,22.8181,8.6332,22.8181,21.585,0,2.2443-.4337,6.2153-1.5886,11.5689l-3.8993,19.5125c-1.0111,4.6625-1.5887,7.9436-1.5887,9.6704,0,2.59,1.5887,4.4887,3.6103,4.4887,1.8777,0,3.8991-1.209,6.0653-3.7991l6.6436,9.4984c-8.6652,10.188-15.8861,15.3679-25.5617,15.3679-12.709,0-20.6513-8.2892-20.6513-20.5495,0-3.2796.722-8.6334,2.166-15.8856l3.3218-17.4403c.722-3.7991,1.155-6.7347,1.155-8.6334,0-3.7989-2.0215-6.5626-5.1989-6.5626-3.8993,0-7.943,2.59-11.8423,7.7699l-11.4087,59.4012h-28.739l19.0634-98.2528c.5774-3.2811.8659-5.5255.8659-6.9065,0-3.4535-2.0216-5.6994-5.9209-6.3891l1.8777-9.1527,36.2484-.8633M93.595,496.3178c22.962,0,34.3707,6.3891,34.3707,24.175,0,13.6413-9.3871,26.4193-24.9836,30.7359,12.8529,2.9356,19.6403,11.9147,19.6403,25.212,0,13.1235-7.5094,27.2826-18.7744,34.1893-10.1084,6.2169-22.5283,6.3889-37.5479,6.3889H12.0002l2.3106-12.4323c6.21-.3457,8.376-3.6268,9.8201-11.5688l12.7083-71.8337c.4336-2.7636.7227-5.0079.7227-6.5626,0-2.9356-2.1669-5.1799-6.0661-5.8696l2.3107-12.434h59.7886M67.1667,541.732h11.5533c3.0327,0,5.6324-.172,7.7986-1.0353,5.0541-2.0723,8.9534-8.807,8.9534-15.1959,0-7.4261-3.8993-9.4967-12.2753-9.4967h-11.4087l-4.6213,25.7278M57.4912,595.09h12.8527c11.6979,0,17.7633-7.5981,17.7633-20.3761,0-8.2892-3.6101-12.434-10.9759-12.434h-13.7193l-5.9209,32.8101M509.34,525.5008c7.9423,9.3247,11.8416,20.8935,11.8416,35.0525,0,16.233-5.4879,31.9466-14.4414,42.6523-9.2426,11.0512-20.3629,16.0591-35.0927,16.0591-10.6874,0-17.9077-3.6268-22.529-11.9163-7.5101,7.7717-16.6083,11.7426-25.7063,11.7426-14.0086,0-22.962-8.4612-22.962-21.4112,0-2.7636.5774-6.5626,1.5886-11.569l5.6324-29.5286c.5774-3.2813,1.155-5.8712,1.155-7.9435,0-3.4535-2.0216-5.6978-5.9209-6.3891l1.877-9.1509h36.393l-10.3976,52.6666c-1.0111,4.8344-1.3003,8.1155-1.3003,9.8423,0,2.9357,2.3107,5.3521,5.6324,5.3521,3.8993,0,7.7986-2.59,11.9863-7.7701l11.4094-60.0908h28.0161l-9.6754,53.0121c-.2892,1.7268-.4337,3.1077-.4337,4.4888,0,4.4903,2.3107,6.7347,6.7874,6.7347,9.9653,0,18.4853-13.1238,18.4853-30.2184,0-7.5979-2.0215-11.5689-4.6213-11.5689-.866,0-1.588,0-2.5991.5177l-5.9209-8.8069,20.796-21.757M1081.6141,531.0265c10.3977,0,20.2185,3.6253,28.5952,10.5335l-9.0988,17.6123-10.1085-4.1446c.1438-.5178.1438-1.0355.1438-1.3811,0-4.4887-4.1885-8.2877-10.9757-8.2877s-10.9758,3.1076-10.9758,7.0786c0,4.8361,5.1993,6.0449,15.5972,8.2894,14.4419,3.1076,21.3733,7.4242,21.3733,22.2745,0,20.8936-16.03,36.0895-42.6029,36.0895-12.8528,0-23.5394-3.6252-31.1927-9.6702l9.8193-20.2022,9.8208,4.3166c-.1451.5176-.1451,1.0353-.1451,1.5547,0,5.3519,4.9104,9.3245,13.5762,9.3245,7.5095,0,12.1307-4.1446,12.1307-8.4612,0-3.6271-3.3225-5.1818-9.9646-6.3891-16.7522-3.2813-25.418-6.2169-25.418-22.2762,0-20.3759,15.8862-36.2615,39.4257-36.2615M1029.7715,531.0265c2.7443,0,5.4886.5176,8.0876,1.5547l-5.1981,27.4544h-11.4087c.1438-1.0353.1438-1.8986.1438-2.5898,0-4.1448-1.3003-6.2171-3.8993-6.2171-5.3433,0-7.2203,6.9084-9.5316,19.1686l-8.9535,46.6215h-28.739l11.4087-61.991c.433-2.4163.5781-4.3166.5781-5.8697,0-4.4903-1.3003-6.045-5.7762-6.9084l1.877-9.1509,34.3714-1.037-1.1564,7.0804c5.6324-5.5258,11.2649-8.1156,18.1962-8.1156M937.21,531.0265c17.6179,0,27.5826,8.979,27.5826,21.757,0,17.4401-16.1739,29.8726-47.3682,31.7729v1.5546c0,8.9791,4.4776,14.159,12.9982,14.159,9.6754,0,16.3177-4.1446,20.217-12.778h12.276l-4.1884,22.1026c-12.7089,6.389-25.2726,9.4966-37.1143,9.4966-22.3844,0-35.5264-13.6411-35.5264-34.8805,0-14.1588,6.3546-29.0091,17.7633-39.7148,9.2426-8.807,20.6513-13.4693,33.3603-13.4693M918.8686,570.7413c13.2857-2.0723,20.5076-8.979,20.5076-17.2666,0-4.1446-2.3114-6.9084-5.3434-6.9084-6.9326,0-13.1418,8.6351-15.1641,24.175M762.9118,531.0265c10.5416,0,19.3511,3.9709,27.7278,12.2603l-13.5747,24.519-9.0989-5.8696c.5783-2.0723,1.0112-3.6271,1.0112-5.0081,0-4.3166-2.7443-7.4259-6.9327-7.4259-9.5303,0-17.185,14.3326-17.185,33.8452,0,11.7427,4.1884,17.7859,12.276,17.7859,6.6422,0,11.2636-4.4903,14.1517-13.2956h13.1418l-4.4761,23.4835c-8.0876,5.008-17.9084,7.7699-28.7388,7.7699-25.1289,0-38.4146-12.7778-38.4146-33.4995,0-15.3681,5.6324-29.1814,16.6082-40.2326,9.6757-9.6702,20.6514-14.3326,33.5042-14.3326M268.6117,531.0265c10.3983,0,20.2184,3.6253,28.5945,10.5335l-9.0981,17.6123-10.1092-4.1446c.1446-.5178.1446-1.0355.1446-1.3811,0-4.4887-4.1884-8.2877-10.9759-8.2877s-10.9757,3.1076-10.9757,7.0786c0,4.8361,5.1994,6.0449,15.597,8.2894,14.4414,3.1076,21.3734,7.4242,21.3734,22.2745,0,20.8936-16.03,36.0895-42.6022,36.0895-12.8535,0-23.5403-3.6252-31.1941-9.6702l9.82-20.2022,9.8208,4.3166c-.1446.5176-.1446,1.0353-.1446,1.5547,0,5.3519,4.9104,9.3245,13.5749,9.3245,7.5101,0,12.1314-4.1446,12.1314-8.4612,0-3.6271-3.3217-5.1818-9.9647-6.3891-16.7527-3.2813-25.4179-6.2169-25.4179-22.2762,0-20.3759,15.8862-36.2615,39.4257-36.2615M669.7708,531.1985c19.4963,0,30.472,10.0159,30.472,25.5558,0,2.7637-.722,6.3891-1.5878,11.397l-3.3224,18.1316c-.5768,2.762-.8658,4.8344-.8658,6.3891,0,3.7989,1.2987,6.0433,3.4648,6.0433,1.1564,0,2.6004-.6897,4.0446-2.0725l6.0654,9.8424c-7.7987,8.4612-16.0302,12.6058-25.5618,12.6058-7.6533,0-12.7089-3.1076-16.1739-10.7055-6.4997,7.0804-14.8751,10.5335-24.8404,10.5335-13.1419,0-20.9404-7.9435-20.9404-20.8935,0-20.5497,16.7521-32.6362,50.8351-37.99.4329-1.7265.722-3.2813.722-4.4886,0-5.0079-3.1773-7.0804-9.6756-7.0804-8.6658,0-14.2983,3.971-16.1753,10.7057h-14.4427l3.6116-19.8584c10.8311-5.3519,22.2399-8.1155,34.3707-8.1155M668.7595,574.5403c-11.5524,2.0723-18.3398,9.8423-18.3398,19.3405,0,4.3168,2.0223,7.0788,4.9104,7.0788,2.3099,0,5.7763-1.5531,9.2426-4.8344l4.1869-21.585M486.5217,533.0988h.005M216.341,533.0988l-9.9647,50.9398c-1.0112,4.8344-1.5886,8.1156-1.5886,9.8423,0,2.2445,1.5886,4.3168,3.7547,4.3168,1.8777,0,3.8993-1.209,6.0654-3.7991l6.6436,9.3247c-8.6651,10.0159-15.7417,15.3679-25.1289,15.3679-8.6644,0-15.308-3.9709-18.6297-11.0512-7.7979,7.2524-16.463,11.0512-25.1281,11.0512-14.1523,0-22.962-8.4612-22.962-21.4112,0-2.5899.5776-6.389,1.5886-11.569l5.9209-30.7374c.7221-3.4535.8666-6.0434.8666-7.0788,0-3.2811-2.0216-5.3536-5.9207-6.0449l1.877-9.1509h36.3929l-10.1091,52.6666c-.722,3.9709-1.2996,7.0787-1.2996,9.1509,0,3.4534,2.1662,6.0434,5.3434,6.0434,3.7547,0,7.7986-2.59,11.9861-7.7701l11.4094-60.0908h28.8829M170.1279,533.0988h.005M842.1908,489.4761c-.0334,0-.0668.0004-.1003.0012l-36.1046.8633c-2.2323.0533-4.1644,1.8699-4.7344,4.4512l-2.0209,9.1527c-.3663,1.6595-.1186,3.427.6802,4.853.7987,1.4259,2.0715,2.3728,3.4943,2.5993.6423.1022,1.1048.2019,1.4343.2881-.0157,1.3947-.1271,2.7539-.3247,3.9541l-18.6175,100.0819c-.3293,1.7703.0313,3.6236.9802,5.0385.949,1.4146,2.3839,2.238,3.9006,2.238h28.306c2.4476,0,4.5355-2.1186,4.9335-5.0062,1.1666-8.4626,2.634-15.3487,4.5211-21.0344,1.6251,6.4508,3.7562,11.7374,6.427,15.9763,5.0021,7.9392,11.7573,11.9646,20.0777,11.9646,11.1566,0,20.6115-6.3645,29.755-20.0293.1538-.2299.2914-.4699.4128-.718,1.7881,3.792,4.1442,7.1675,7.0425,10.0572,7.1277,7.106,17.28,10.8621,29.3594,10.8621,12.7616,0,25.9006-3.3524,39.0522-9.9638,1.4875-.7478,2.5818-2.3083,2.9385-4.1901l4.1884-22.1027c.3359-1.7727-.021-3.632-.9697-5.0523-.9489-1.4201-2.3865-2.2472-3.9067-2.2472h-10.4892c1.0045-.5888,1.9689-1.2048,2.8945-1.8488,6.602-4.5928,14.4717-12.9848,14.4717-26.8813,0-16.8487-12.7894-27.7354-32.5826-27.7354-13.7209,0-26.3343,5.1082-36.4764,14.7722-12.2914,11.534-19.6472,28.1389-19.6472,44.3904,0,3.0656.2384,6.0101.7086,8.8155l-3.681-5.3579c-.8956-1.3036-2.2101-2.0941-3.6193-2.1765-.0817-.0047-.1633-.0072-.2448-.0072-1.3225,0-2.5951.6272-3.535,1.7508-1.0886,1.3016-2.0632,2.048-2.6737,2.048-.6703,0-1.9661-1.6803-3.3503-5.434-1.7405-4.72-3.4075-11.9647-5.202-22.6427,1.665-1.6634,2.7936-2.5148,3.5513-2.9338-.0137.9553-.165,2.4076-.3391,4.0767-.0654.6278-.1346,1.2919-.2039,1.995-.167,1.6956.2803,3.3957,1.2291,4.6717.9489,1.2758,2.3086,2.0059,3.7366,2.0059h10.8306c2.3299,0,4.351-1.9241,4.8729-4.6391l5.3447-27.8003c.3937-2.0477-.1404-4.1921-1.407-5.6484-4.679-5.3805-9.8649-7.8863-16.32-7.8863-9.9954,0-21.6036,6.786-33.173,19.0944l9.4427-47.2999c.3593-1.8002.0011-3.6979-.97-5.139-.9501-1.41-2.3823-2.2274-3.8931-2.2274h0ZM842.1904,501.433h.005-.005ZM925.7282,562.7972c2.0254-6.3051,5.0769-10.2524,8.3046-10.2524.1083,0,.1656.0222.1772.0301.031.0323.1663.301.1663.8998,0,3.7494-3.2808,7.1361-8.648,9.3225h0ZM922.9544,590.0964c8.9708-.927,16.7695-2.7761,23.3228-5.5257-.0125.0266-.0248.0535-.037.0804-3.0113,6.6672-7.8896,9.6404-15.8176,9.6404-4.6553,0-6.6503-1.8043-7.4683-4.1951h0ZM575.6179,489.4761c-.0333,0-.0663.0004-.0997.0012l-36.2485.8633c-2.2653.054-4.217,1.9223-4.7565,4.5535l-1.877,9.1527c-.3351,1.6344-.0787,3.3618.7063,4.7585.785,1.3965,2.0258,2.3329,3.4182,2.5792.8928.1579,1.4134.4024,1.6525.5586-.0105.5695-.1297,2.01-.7487,5.5303l-19.0513,98.1945c-.3445,1.7759.0074,3.6428.956,5.0703.9486,1.4273,2.39,2.2591,3.9147,2.2591h28.7396c2.3303,0,4.3516-1.9248,4.8732-4.6403l11.1052-57.8207c1.9478-2.3486,4.5766-4.7101,7.2721-4.7101.0577,0,.1032.0039.1377.0087.029.1074.0617.2972.0617.5755,0,1.2464-.3471,3.7054-1.032,7.3086l-3.3207,17.4379c-1.5379,7.7225-2.2909,13.3716-2.2909,17.2129,0,15.8671,10.3086,26.5279,25.6514,26.5279,10.2551,0,17.9134-5.2911,24.4396-11.968,4.2779,7.5471,12.1428,11.968,22.3446,11.968,9.2021,0,17.181-2.6735,23.7968-7.9609,4.1599,5.461,9.8409,8.1329,17.2175,8.1329,10.6812,0,20.1415-4.6307,28.9217-14.1568,1.0031-1.0883,1.5566-2.5627,1.6315-4.0754,1.7584,3.0272,3.949,5.7286,6.5543,8.0605,7.5403,6.7493,18.1812,10.1716,31.627,10.1716,11.389,0,22.1218-2.9184,31.0383-8.4397,1.3064-.809,2.2485-2.265,2.5756-3.9803l4.4761-23.4836c.338-1.7735-.0176-3.6347-.9663-5.0567-.9489-1.4219-2.3874-2.2501-3.9087-2.2501h-13.1418c-2.0569,0-3.9039,1.5061-4.6548,3.7956-2.7619,8.4202-6.526,9.4999-9.4969,9.4999-2.5428,0-7.276,0-7.276-11.8074,0-13.4018,4.6588-27.8668,12.185-27.8668,1.9327,0,1.9327,1.0516,1.9327,1.4475-.0149.4665-.4247,1.9355-.7542,3.1158-.769,2.7561.2304,5.7743,2.3688,7.1538l9.0989,5.8696c.7526.4855,1.5667.7176,2.3707.7176,1.6287,0,3.2166-.952,4.1727-2.6791l13.5747-24.5189c1.4105-2.5478.9872-5.9577-.9814-7.9058-9.399-9.3011-19.2227-13.6331-30.9157-13.6331-14.116,0-26.1241,5.1434-36.7109,15.724-12.0432,12.126-18.4014,27.6196-18.4014,44.8196,0,4.8483.6364,9.3629,1.882,13.4766l-3.6802-5.9718c-.8073-1.31-2.0262-2.17-3.3757-2.3813-.2167-.0339-.4338-.0507-.6499-.0507-.8486,0-1.6825.2584-2.423.7491.0942-.8269.2808-2.0066.6307-3.6821.0117-.0562.0228-.1124.0331-.1689l3.3224-18.1316c.0043-.0231.0083-.0461.0123-.0692.1271-.7353.2511-1.4405.3701-2.1172.7382-4.1983,1.3213-7.5143,1.3213-10.4902,0-15.2447-9.3185-31.5343-35.472-31.5343-12.567,0-24.7736,2.883-36.2803,8.5687-1.5157.749-2.6277,2.3389-2.9763,4.2549l-3.6116,19.8584c-.3214,1.7673.0436,3.6136.9927,5.0218.9493,1.4084,2.3806,2.227,3.8931,2.227h3.4717c-1.6884.9795-3.265,2.0123-4.7324,3.0996-7.459,5.5265-12.163,12.5357-14.0529,20.9116-.7729-.6496-1.6918-1.0305-2.6533-1.0816-.0743-.0039-.1487-.0059-.2227-.0059-1.3229,0-2.5953.6273-3.5351,1.7509-.2953.3531-.5645.6455-.8074.8874.2103-1.2347.5499-3.0008,1.0958-5.5216.0078-.0362.0154-.0725.0227-.109l3.8891-19.4616c1.12-5.1971,1.7365-9.8151,1.7365-13.0093,0-16.4865-11.179-27.5634-27.8176-27.5634-4.7243,0-9.293.9524-13.79,2.8887l6.0933-31.1193c.352-1.7976-.0103-3.6887-.9816-5.1239-.9503-1.404-2.3795-2.2175-3.8866-2.2175h0ZM575.6177,501.433h.005-.005ZM652.5364,558.0406c2.554-3.0594,7.043-3.5955,9.8701-3.5955,1.9076,0,3.0951.2108,3.8088.4246-4.9531.9039-9.5058,1.9586-13.6789,3.1709h0ZM655.5385,594.9688c-.0556-.2018-.1189-.5498-.1189-1.088,0-4.471,2.3853-8.2439,6.5366-10.7285l-1.834,9.4551c-2.0003,1.5839-3.7011,2.264-4.5837,2.3614h0ZM352.8009,489.4761c-.0333,0-.0663.0004-.0997.0012l-36.2484.8633c-2.265.054-4.2167,1.9222-4.7564,4.553l-1.8777,9.1527c-.3353,1.6344-.079,3.3619.706,4.7589.785,1.3967,2.026,2.3331,3.4183,2.5794.8924.1579,1.4128.4023,1.6518.5584-.0104.57-.1294,2.0113-.7468,5.5288l-19.0524,98.1961c-.3446,1.7759.0074,3.6429.956,5.0702.9485,1.4275,2.39,2.2594,3.9147,2.2594h28.739c2.3303,0,4.3516-1.9248,4.8732-4.6403l11.1052-57.8207c1.9478-2.3486,4.5768-4.7101,7.2727-4.7101.0575,0,.1028.0038.1372.0086.029.1076.0616.2975.0616.5756,0,.8601-.1788,2.8261-1.0307,7.3086l-3.3213,17.4376c-1.5378,7.7223-2.2909,13.3714-2.2909,17.2132,0,15.8671,10.3084,26.5279,25.6513,26.5279,11.3289,0,19.4875-6.4553,26.4521-14.1041,4.3521,8.8721,13.3767,14.2761,25.0966,14.2761,8.8092,0,17.4983-3.3246,24.9348-9.4577,5.4536,6.4698,13.1309,9.6314,23.3004,9.6314,16.1916,0,28.466-5.6594,38.6283-17.8101,9.9597-11.9089,15.9058-29.4339,15.9058-46.8798,0-15.6984-4.4877-28.927-13.3384-39.3184-.9695-1.1383-2.2355-1.7126-3.5038-1.7126-1.1724,0-2.3466.4903-3.2917,1.4792l-15.0798,15.7766.3986-2.1838c.1031-.478.1579-.9791.1579-1.4956,0-3.3018-2.2361-5.9785-4.9976-5.9785h-28.0211c-2.335,0-4.359,1.9323-4.8759,4.6548l-11.0885,58.4008c-2.7986,3.1901-5.2947,4.8053-7.4313,4.8053-.2674,0-.4677-.039-.6103-.0846.0618-1.1735.2914-3.6778,1.1287-7.6808.0054-.0256.0106-.0514.0157-.077l10.3976-52.6666c.351-1.7783.0027-3.6509-.9456-5.0837-.9484-1.4326-2.3925-2.2682-3.9207-2.2682h-36.393c-2.3027,0-4.3076,1.8803-4.8561,4.5544l-1.877,9.1509c-.3351,1.634-.0789,3.3613.7057,4.758.7847,1.3965,2.0251,2.3331,3.4171,2.58.8932.1583,1.4141.4028,1.6534.5592-.0176,1.0046-.3399,2.7554-.6805,4.606-.1156.6281-.2364,1.2842-.3573,1.9697l-5.6176,29.4507c-.5784,2.8665-.9977,5.2486-1.2774,7.2919l-1.2756-1.8237c-.9001-1.2871-2.2115-2.0626-3.6133-2.137-.0742-.0039-.1487-.0059-.2227-.0059-1.3228,0-2.5953.6273-3.535,1.7509-.2956.3534-.5648.6459-.8078.8878.2102-1.2346.5501-3.0005,1.0965-5.5197.008-.0369.0157-.074.0232-.1112l3.8895-19.4633c1.1191-5.2003,1.7352-9.818,1.7352-13.0075,0-16.4865-11.1793-27.5634-27.8181-27.5634-4.7237,0-9.2923.9525-13.7887,2.8884l6.0933-31.119c.352-1.7976-.0103-3.6887-.9816-5.1239-.9503-1.404-2.3795-2.2175-3.8866-2.2175h0ZM352.8008,501.433h.005-.005ZM481.7414,587.3301l5.8349-31.9695,2.9916,4.4498c.9716,1.4452,2.4174,2.2332,3.8986,2.2332.5406,0,1.0859-.1049,1.6146-.3212.2662.8613.6042,2.5211.6042,5.3936,0,13.1395-6.1755,24.2399-13.4853,24.2399-.9974,0-1.5263-.1584-1.761-.2585-.0139-.1113-.0264-.2738-.0264-.4977,0-.9055.0984-1.8855.3288-3.2696h0ZM93.595,490.3393h-59.7886c-2.3436,0-4.3726,1.9463-4.881,4.6816l-2.3107,12.434c-.3011,1.6205-.0251,3.3179.7617,4.6856.787,1.3675,2.0141,2.2824,3.3876,2.5253.8885.1571,1.4592.4037,1.7744.5914-.0957,1.5021-.4589,3.8386-.6034,4.7596l-12.6959,71.7637c-1.2027,6.6137-2.2806,6.6737-5.161,6.8341-2.2543.1255-4.1589,2.0411-4.6484,4.675l-2.3106,12.4323c-.329,1.7703.0319,3.6233.9809,5.0378.9489,1.4146,2.3836,2.2376,3.9001,2.2376h54.3c14.5897,0,28.3703,0,39.8349-7.051,8.4678-5.1917,15.2277-14.1886,18.7716-24.2207-.3488,2.4343-.5039,4.322-.5039,5.9543,0,16.3827,11.237,27.3897,27.962,27.3897,8.262,0,16.4976-3.0333,24.0728-8.8229,4.6321,5.6713,11.5374,8.8229,19.685,8.8229,8.4777,0,15.1905-3.7042,21.6803-9.7513,8.6827,6.3849,19.9707,9.7513,32.7573,9.7513,28.4723,0,47.6022-16.9059,47.6022-42.068,0-9.4144-2.5489-15.4954-6.528-19.5899.2731-.325.5181-.6918.7277-1.0976l9.0981-17.6123c1.3996-2.7094.7773-6.2548-1.415-8.063-9.1938-7.5828-20.0633-11.5907-31.4334-11.5907-12.3477,0-23.583,4.1813-31.636,11.7737-8.2476,7.7756-12.7897,18.5955-12.7897,30.4663,0,7.1061,1.5181,12.2529,4.0562,16.0594-1.3807.318-2.6305,1.3271-3.3791,2.8672l-3.86,7.941-2.5891-3.634c-.9048-1.27-2.2124-2.0301-3.6067-2.0967-.0666-.0032-.1334-.0048-.1998-.0048-1.3233,0-2.5956.6278-3.5352,1.751-.355.4245-.6721.7611-.9514,1.0279.217-1.2887.5639-3.118,1.106-5.7099.0063-.0297.0123-.0593.018-.089l9.9647-50.9398c.3477-1.777-.0026-3.6465-.951-5.0766-.9486-1.4299-2.3913-2.2634-3.9176-2.2634h-28.8829c-2.335,0-4.359,1.9323-4.8759,4.6548l-11.088,58.3981c-2.7748,3.1518-5.3275,4.808-7.4317,4.808-.16,0-.2734-.0234-.3433-.0463-.0001-.0059-.0002-.0121-.0002-.0186,0-1.3646.543-4.3494,1.1179-7.5094l.0613-.3371,10.0606-52.4135c.1119-.4967.1716-1.0186.1716-1.5575,0-3.3018-2.2361-5.9785-4.9976-5.9785h-36.3979c-.4857,0-.9583.0837-1.4067.2408.4198-2.2315.6374-4.5276.6374-6.8684,0-10.9763-3.747-19.0433-11.137-23.977-6.3114-4.2138-15.283-6.1764-28.2337-6.1764h0ZM75.8282,521.9826h7.3685c4.258,0,6.0003.6067,6.7121,1.1159.1969.1408.5631.4026.5631,2.4023,0,3.8646-2.6053,8.3228-5.5753,9.5406-1.5657.6238-3.8969.7121-6.1767.7121h-5.3654l2.4736-13.7709h0ZM216.341,539.0772h.005-.005ZM116.6432,551.2266c4.2026-2.9073,7.7311-6.5459,10.4214-10.7066l-.0627.3056c-.3351,1.634-.0789,3.3613.7057,4.758.7847,1.3965,2.0251,2.3331,3.4171,2.5797.8649.1534,1.3723.3623,1.6435.5086-.0316.7847-.1634,2.6529-.7068,5.2512-.0076.0361-.0147.0722-.0217.1083l-4.4209,22.9504c.0024-.1809.0036-.3605.0036-.5413,0-10.9361-3.8823-19.6326-10.9792-25.214h0ZM262.3573,552.1972c.9753-.4396,2.5286-.8597,4.8103-.8597,4.0925,0,5.829,1.7646,5.9706,2.2878-.087.4292-.1327.8608-.1396,1.2879-.1078-.0234-.2162-.0469-.3241-.0701-3.6334-.7842-7.9449-1.7149-10.3171-2.6459h0ZM67.4483,568.2584h9.683c5.0817,0,5.9759,2.0817,5.9759,6.4555,0,9.8228-4.0556,14.3977-12.7633,14.3977h-6.6587l3.7631-20.8532h0ZM243.8618,594.966c.1161-.5607.1614-1.1256.1419-1.6803,3.1689.8812,6.493,1.5322,9.7919,2.1784.019.0036.038.0072.057.0107,2.4511.4455,3.9594.8696,4.8824,1.2089-1.0658.8175-3.1188,1.7523-6.2978,1.7523-5.9856,0-8.5749-2.2158-8.5749-3.346,0-.0414-.0004-.0828-.0005-.1241h0ZM1081.6141,525.048c-12.3477,0-23.5829,4.1813-31.636,11.7737-5.8781,5.5417-9.8739,12.6295-11.6848,20.5423l4.4424-23.4627c.5673-2.9961-.8567-6.0184-3.2936-6.991-3.0966-1.2357-6.3501-1.8622-9.6707-1.8622-4.7349,0-9.0476,1.0566-13.1467,3.2622-.0243-.0361-.0488-.0717-.0739-.1071-.9513-1.346-2.3494-2.1198-3.8188-2.1198-.0421,0-.0842.0007-.1265.0019l-34.3714,1.037c-2.255.0679-4.1927,1.9331-4.73,4.5525l-1.877,9.1509c-.3324,1.6212-.0829,3.3348.6882,4.7262.771,1.3916,1.9936,2.3342,3.3717,2.6.7615.147,1.2521.2888,1.5585.3981.0083.1616.014.3623.014.6081,0,1.3525-.1528,2.8628-.4671,4.6171l-11.4029,61.9588c-.3256,1.7689.0372,3.6189.9861,5.0306.9492,1.4116,2.3821,2.2327,3.897,2.2327h28.739c2.3303,0,4.3517-1.9249,4.8732-4.6405l8.9534-46.6216c1.0887-5.7748,2.0448-10.1398,3.1862-12.7486.1324-.3026.2529-.5537.3634-.7622-.0092.2744-.0282.5451-.068.8314-.2406,1.733.1682,3.505,1.1182,4.8453.9501,1.3402,2.3451,2.1129,3.8143,2.1129h11.4087c2.3361,0,4.3608-1.9341,4.8766-4.6584l.1494-.7891c-.3303,2.1918-.4985,4.4376-.4985,6.7214,0,7.106,1.5182,12.2528,4.0563,16.0594-1.3809.318-2.6306,1.327-3.3793,2.8673l-9.8193,20.2022c-1.3315,2.7397-.6442,6.2458,1.567,7.9924,8.8296,6.9741,20.5687,10.6604,33.9487,10.6604,28.4727,0,47.6029-16.9059,47.6029-42.068,0-9.4145-2.5488-15.4954-6.528-19.5899.2731-.3249.5181-.6917.7277-1.0974l9.0986-17.6123c1.3998-2.7095.7775-6.2552-1.4149-8.0634-9.1946-7.5826-20.0643-11.5905-31.4341-11.5905h0ZM1075.3599,552.1973c.9753-.4397,2.5286-.8598,4.8103-.8598,4.0959,0,5.8319,1.7677,5.9708,2.2891-.0869.4288-.1324.8598-.1393,1.2867-.1086-.0236-.2161-.0469-.3247-.0703-3.6334-.7842-7.9448-1.7149-10.3171-2.6458h0ZM1056.8637,594.9687c.1166-.5616.162-1.1274.1425-1.6831,3.1689.8812,6.493,1.5323,9.7921,2.1785.0188.0036.0378.0072.0568.0106,2.4515.4457,3.9595.8698,4.8824,1.2091-1.0657.8174-3.1184,1.7522-6.2971,1.7522-5.9865,0-8.5762-2.2158-8.5762-3.346,0-.0405-.0004-.0809-.0005-.1213h0Z">
                </path>
            </g>
            <g>
                <path style="fill: #bf203c;"
                    d="M205.6714,505.2674c-.9317,0-1.6639-.8758-1.6639-2.0695,0-.7958.2662-2.3073.7322-4.456l1.7971-8.9932c.5323-2.4674.7322-4.2974.7322-5.3326,0-5.9683-3.9935-9.9471-10.5163-9.9471-1.2728,0-2.5083.1679-3.7238.5077-.8104.2266-1.6119.5297-2.4098.9104-1.1968.5711-2.3855,1.3171-3.5836,2.2421l3.9269-20.0543-16.7059.3979-.8654,4.2182c1.7971.3178,2.7291,1.3522,2.7291,2.9445,0,.6365-.1332,1.6708-.3994,3.1831l-8.7858,45.2824h13.245l5.258-27.3767c1.7971-2.3873,3.6608-3.5809,5.4578-3.5809,1.4643,0,2.396,1.2729,2.396,3.0237,0,.8758-.1995,2.2288-.5323,3.9796l-1.5309,8.0381c-.6655,3.3424-.9983,5.809-.9983,7.3213,0,5.6504,3.6605,9.47,9.5176,9.47,4.4592,0,7.7872-2.3874,11.7807-7.0827l-3.0618-4.3767c-.9983,1.1936-1.93,1.7508-2.7953,1.7508Z">
                </path>
                <path style="fill: #bf203c;"
                    d="M159.7006,504.1852c-.3917.9289-.837,1.6171-1.3467,2.0731-.5098.456-1.0838.6798-1.7327.6798-1.0649,0-1.7971-.7958-1.7971-2.3073,0-.5373.1124-1.1639.2528-1.9137.0468-.25.0967-.5136.1465-.7922l3.9269-20.692h7.9871l1.0649-5.8089h-7.9871l2.6625-14.2454-13.3782,4.2174-.9317,5.2526c-.7321,3.8996-1.6638,5.0932-5.1251,5.0932l-1.0649,5.4911h3.3946l-3.5275,19.339c-.3328,1.9102-.5326,3.7403-.5326,5.3319,0,6.0483,3.3946,9.1521,10.2498,9.1521,1.3728,0,2.783-.1567,4.2307-.4575,2.4127-.5014,4.9294-1.403,7.55-2.6463l1.8637-9.9479h-5.1913c-.2163.8356-.4535,1.5618-.7145,2.1811Z">
                </path>
                <path style="fill: #bf203c;"
                    d="M235.8849,474.4689c-4.3927,0-8.4485,1.2086-11.9988,3.525-1.1835.7721-2.3107,1.6673-3.3757,2.6818-.9859.9253-1.89,1.9177-2.7081,2.9624-.2727.3483-.5359.7024-.7894,1.0617-.507.7187-.9752,1.4586-1.4036,2.2153-.2142.3783-.4183.7608-.6124,1.147-.3881.7723-.7358,1.5593-1.0417,2.3566-1.0709,2.7903-1.6313,5.7062-1.6313,8.5617,0,9.7886,6.0567,16.0755,16.3728,16.0755,5.4578,0,11.2484-1.4322,17.1053-4.3767l1.9303-10.1865h-5.6573c-1.7971,3.9789-4.8589,5.8891-9.3181,5.8891-3.9269,0-5.9901-2.3881-5.9901-6.5263v-.7157c14.3762-.8758,21.8306-6.6059,21.8306-14.6436,0-5.8891-4.5924-10.0272-12.7123-10.0272ZM227.4321,492.7724c.9317-7.1619,3.7937-11.1415,6.9884-11.1415,1.3977,0,2.4626,1.2736,2.4626,3.1839,0,3.8195-3.3277,7.0026-9.451,7.9576Z">
                </path>
                <path style="fill: #132448;"
                    d="M258.5972,484.4961c0-6.8738-2.7927-13.1023-7.6621-17.0883-3.9686-3.2486-9.0323-4.8958-15.0502-4.8958-8.0711,0-15.5319,3.0379-21.5783,8.7857-.1628.1532-.3251.3087-.485.4649-2.9913-4.7652-7.7427-8.0179-13.5135-8.965l.391-1.997c.704-3.5951-.0206-7.3774-1.9632-10.2476-1.9006-2.8082-4.7589-4.4351-7.7731-4.4351-.0665,0-.1329.0008-.1996.0023l-16.7059.3979c-2.7556.0657-5.2789,1.4735-7.0762,3.7509-1.1827-.6365-2.4874-1.0058-3.8611-1.044-.0809-.0023-.1617-.0035-.2427-.0035-.1588,0-.3174.0045-.4765.0136-.7917.0444-1.5594.1991-2.2925.4512l-13.1581,4.148c-3.6517,1.1512-6.4495,4.6638-7.233,9.0811l-.337,1.8999c-2.798,1.4889-4.9523,4.4791-5.6789,8.2257l-1.0649,5.491c-.6531,3.3673-.054,6.8981,1.6265,9.6882l-1.7883,9.8039c-.0067.0366-.0132.0731-.0195.1098-.4929,2.8291-.7427,5.4434-.7427,7.77,0,6.7855,2.3254,12.6112,6.5479,16.404,3.4756,3.122,8.0856,4.705,13.7018,4.705,3.4518,0,7.0318-.6645,10.8461-2.0207,1.2806.6938,2.685,1.0656,4.1267,1.0656h13.245c2.7775,0,5.3354-1.3671,7.1699-3.6214,3.3013,2.8517,7.5669,4.4965,12.3981,4.4965,5.3279,0,9.6009-2.0926,13.0687-4.8364,4.3438,3.2271,9.7674,4.9164,15.88,4.9164,6.9118,0,13.9709-1.787,20.9813-5.3113,2.9752-1.4957,5.1636-4.6164,5.8768-8.38l1.9303-10.1865c.5472-2.8877.1752-5.8904-1.0068-8.4397,1.8154-4.1767,2.1191-8.0773,2.1191-10.1991ZM248.3846,495.774c.9676.1912,1.8514.8034,2.473,1.7338.759,1.1362,1.0445,2.6236.7758,4.0419l-1.9303,10.1865c-.2853,1.5054-1.1606,2.7537-2.3507,3.352-6.2701,3.1523-12.5468,4.7506-18.6557,4.7506-6.8195,0-12.3089-2.4854-15.8638-6.8376-3.4095,3.687-7.4367,6.7576-13.0849,6.7576-7.959,0-13.5176-5.861-13.5176-14.2528,0-.6221.0376-1.33.1132-2.1273l-2.2649,11.7927c-.4172,2.1725-2.0343,3.7123-3.8985,3.7123h-13.2451c-1.2198,0-2.3729-.6655-3.1317-1.8074-.0059-.0088-.0116-.0175-.0174-.0263-4.3029,1.875-8.1834,2.7888-11.8237,2.7888-12.8613,0-14.2498-9.7451-14.2498-13.9349,0-1.8362.2075-3.9583.6245-6.351l2.5336-13.8898c-.6292-.3061-1.1909-.8028-1.6241-1.4546-.7589-1.1418-1.0405-2.6351-.765-4.0559l1.0649-5.4911c.4204-2.1677,2.0356-3.7024,3.8966-3.7024.4371,0,.7338-.0255.9269-.0531.0717-.243.1696-.6346.2852-1.2497l.9317-5.2526c.3134-1.7669,1.4326-3.172,2.8932-3.6325l13.2905-4.1897c.2902-.0998.5938-.1613.9069-.1797.0669-.004.1336-.006.2004-.006.0204,0,.0408.0001.0612.0005,2.1832.0359,3.9415,2.1632,3.9415,4.7823,0,.4256-.0466.8384-.1339,1.2312l-1.5385,8.2315h2.9995c1.0858,0,2.0701.5174,2.7902,1.3572l.8173-4.2127c.0419-.2392.0781-.4535.1093-.6453-.7479-.3525-1.3968-.97-1.8531-1.7819-.6281-1.1175-.8331-2.4996-.5648-3.8071l.8654-4.2182c.4318-2.1047,1.9931-3.5992,3.8052-3.6424l16.7059-.3979c.0267-.0006.0532-.0009.0798-.0009,1.2056,0,2.3489.6508,3.1092,1.7741.777,1.1481,1.0668,2.661.7853,4.099l-2.1545,11.0028c1.3275-.3221,2.6748-.4817,4.05-.4817,8.6826,0,14.5163,5.9195,14.5163,14.7299,0,.6091-.042,1.3114-.1231,2.0849,1.6545-3.5741,3.9885-6.8598,6.8719-9.5658,4.9779-4.7423,11.1562-7.2489,17.8671-7.2489,12.3354,0,16.7123,7.9781,16.7123,14.8099,0,2.7032-.6332,7.2497-4.2126,11.2778Z">
                </path>
                <path style="fill: #132448;"
                    d="M167.1375,486.0157h-4.7931l-2.1279,11.2116c.066-.0039.1321-.0058.1987-.0058h5.1913c.1649,0,.3286.0122.4902.0361l2.2225-11.4547c-.3753.1388-.7725.213-1.1818.213Z">
                </path>
                <path style="fill: #fff;"
                    d="M252.5972,484.4961c0-6.8319-4.3769-14.8099-16.7123-14.8099-6.7109,0-12.8892,2.5067-17.8671,7.2489-2.8835,2.706-5.2174,5.9917-6.8719,9.5658.0811-.7735.1231-1.4758.1231-2.0849,0-8.8104-5.8337-14.7299-14.5163-14.7299-1.3752,0-2.7226.1596-4.05.4817l2.1545-11.0028c.2816-1.4381-.0082-2.9509-.7853-4.099-.7603-1.1233-1.9036-1.7741-3.1092-1.7741-.0267,0-.0532.0004-.0798.0009l-16.7059.3979c-1.8121.0432-3.3734,1.5377-3.8052,3.6424l-.8654,4.2182c-.2682,1.3075-.0632,2.6896.5648,3.8071.4563.8119,1.1052,1.4294,1.8531,1.7819-.0312.1918-.0674.4061-.1093.6453l-.8173,4.2127c-.7202-.8398-1.7044-1.3572-2.7902-1.3572h-2.9995l1.5385-8.2315c.0873-.3928.1339-.8055.1339-1.2312,0-2.6191-1.7582-4.7464-3.9415-4.7823-.0204-.0004-.0408-.0005-.0612-.0005-.0668,0-.1335.002-.2004.006-.3132.0185-.6168.08-.9069.1797l-13.2905,4.1897c-1.4606.4605-2.5798,1.8656-2.8932,3.6325l-.9317,5.2526c-.1156.6151-.2134,1.0067-.2852,1.2497-.1932.0276-.4899.0531-.9269.0531-1.861,0-3.4762,1.5347-3.8966,3.7024l-1.0649,5.4911c-.2755,1.4208.0061,2.9141.765,4.0559.4332.6518.9949,1.1485,1.6241,1.4546l-2.5336,13.8898c-.417,2.3927-.6245,4.5148-.6245,6.351,0,4.1898,1.3885,13.9349,14.2498,13.9349,3.6403,0,7.5209-.9138,11.8237-2.7888.0058.0088.0115.0175.0174.0263.7588,1.1419,1.9119,1.8074,3.1317,1.8074h13.2451c1.8642,0,3.4813-1.5398,3.8985-3.7123l2.2649-11.7927c-.0756.7974-.1132,1.5053-.1132,2.1273,0,8.3918,5.5587,14.2528,13.5176,14.2528,5.6482,0,9.6754-3.0706,13.0849-6.7576,3.5549,4.3522,9.0443,6.8376,15.8638,6.8376,6.1089,0,12.3856-1.5983,18.6557-4.7506,1.1901-.5983,2.0654-1.8466,2.3507-3.352l1.9303-10.1865c.2687-1.4183-.0167-2.9057-.7758-4.0419-.6216-.9304-1.5054-1.5426-2.473-1.7338,3.5795-4.0282,4.2126-8.5746,4.2126-11.2778ZM190.9674,462.8576h-.005.005ZM163.7428,511.9521c-2.6206,1.2433-5.1373,2.1449-7.55,2.6463-1.4476.3008-2.8578.4575-4.2307.4575-6.8552,0-10.2498-3.1038-10.2498-9.1521,0-1.5915.1998-3.4217.5326-5.3319l3.5275-19.339h-3.3946l1.0649-5.4911c3.4612,0,4.3929-1.1936,5.1251-5.0932l.9317-5.2526,13.3782-4.2174h.005-.005l-2.6625,14.2454h7.9921-.005l-1.0649,5.8089h-7.9871l-3.9269,20.692c-.0499.2786-.0998.5422-.1466.7922-.1404.7499-.2528,1.3764-.2528,1.9137,0,1.5115.7322,2.3073,1.7971,2.3073.6489,0,1.223-.2238,1.7327-.6798.5097-.456.9551-1.1442,1.3467-2.0731.261-.6192.4982-1.3454.7145-2.1811h5.1913l-1.8637,9.9479ZM162.8828,465.9614h-.005.005ZM166.0968,497.2575c-.1616-.0239-.3254-.0361-.4902-.0361h-5.1913c-.0666,0-.1328.002-.1987.0058l2.1279-11.2116h4.7931c.4093,0,.8065-.0741,1.1818-.213l-2.2225,11.4547ZM199.7479,514.9759c-5.8572,0-9.5176-3.8196-9.5176-9.47,0-1.5123.3328-3.9789.9983-7.3213l1.5309-8.0381c.3328-1.7508.5323-3.1038.5323-3.9796,0-1.7508-.9317-3.0237-2.396-3.0237-1.7971,0-3.6608,1.1936-5.4578,3.5809l-5.2579,27.3767h-13.2451l8.7858-45.2824c.2662-1.5123.3994-2.5466.3994-3.1831,0-1.5923-.932-2.6267-2.7291-2.9445l.8654-4.2182,16.7059-.3979h0l-3.9269,20.0543c1.1981-.9249,2.3867-1.6709,3.5836-2.2421.7979-.3807,1.5994-.6838,2.4098-.9104,1.2156-.3399,2.451-.5077,3.7238-.5077,6.5228,0,10.5163,3.9788,10.5163,9.9471,0,1.0351-.1999,2.8652-.7322,5.3326l-1.7971,8.9932c-.466,2.1487-.7322,3.6603-.7322,4.456,0,1.1936.7322,2.0695,1.6639,2.0695.8654,0,1.7971-.5572,2.7953-1.7508l3.0618,4.3767c-3.9935,4.6953-7.3215,7.0827-11.7807,7.0827ZM226.7666,499.1398v.7157c0,4.1382,2.0632,6.5263,5.9901,6.5263,4.4592,0,7.5211-1.9102,9.3181-5.8891h5.6573l-1.9303,10.1865c-5.8569,2.9445-11.6475,4.3767-17.1053,4.3767-10.3161,0-16.3728-6.2869-16.3728-16.0755,0-2.8555.5604-5.7714,1.6313-8.5617.306-.7972.6536-1.5842,1.0417-2.3566.1941-.3862.3983-.7687.6124-1.147.4283-.7566.8966-1.4966,1.4036-2.2153.2535-.3593.5167-.7134.7894-1.0617.8182-1.0448,1.7222-2.0371,2.7081-2.9624,1.0649-1.0146,2.1923-1.9097,3.3757-2.6818,3.5504-2.3164,7.6061-3.525,11.9988-3.525,8.1199,0,12.7123,4.1381,12.7123,10.0272,0,8.0377-7.4544,13.7678-21.8306,14.6436Z">
                </path>
                <path style="fill: #fff;"
                    d="M234.4205,481.6309c-3.1947,0-6.0567,3.9796-6.9884,11.1415,6.1234-.9551,9.451-4.1381,9.451-7.9576,0-1.9102-1.0649-3.1839-2.4626-3.1839Z">
                </path>
            </g>
        </g>
        <g data-name="kqAsL4" id="uuid-1cce3277-aae0-4780-95f9-edd189f0a032">
            <g>
                <path style="fill: #132448;"
                    d="M553.5867,459.1871c-.7441.5701-3.7061.9153-4.2892.2242l-2.4711-2.9286-18.1232,12.5104c-.9808.6771-3.7537.7849-4.7103.4104-1.0923-.4277-1.8685-2.5887-1.9958-3.9363l-.3683-3.8991c-3.6974,3.3976-2.9189,7.3015-5.922,9.1542-6.3797,3.936-25.1474-19.7843-29.2085-24.2653-1.1026,1.9283-2.6444,3.8073-3.9935,4.0063-1.7611.2597-4.0003-1.1167-4.8593-2.7081-5.1991-9.6323-11.3055-17.586-19.9481-25.1297l-1.4184,5.3206c-3.4248,7.994-29.7873-26.1052-32.5583-29.6074-19.0205-24.0391-10.8288-8.4721-24.5434-18.8393-13.1286-9.9241-22.2768-22.5526-29.3015-37.6246l-1.9664,6.2065c-.487,1.537-2.0848,3.4116-3.5872,3.5029-1.2932.0785-3.9074-1.278-4.6709-2.7083-8.4111-15.7566-10.8511-33.6919-7.211-51.1868-1.5963.2166-3.3294.4441-4.2198.2882-1.0387-.1819-2.2669-2.549-2.2703-3.7145-.0554-18.6856,9.7051-35.9469,19.2426-50.7963l-4.1384-1.9838c-.9708-.4654-1.5669-3.8002-.7822-4.6906,9.5214-10.8024,20.9061-18.2163,27.0641-31.4283-6.4179-3.7778-11.9864-6.7615-17.115-11.1767-11.7216-10.0911-19.1983-28.4452-6.9773-40.9403,4.4752-4.5756,9.3115-8.3203,14.6789-12.0239,16.1616-11.1517,31.441-22.8151,46.1231-35.7735,8.4478-7.456,13.7806-15.8793,17.1213-26.6425l11.5406-37.1822c3.2062-10.3299,10.6569-18.9268,20.7635-22.9816,5.1453-2.0643,10.9574-2.0978,16.5922-2.1875,44.6692-.7109,68.9604-17.328,98.503-16.4197,19.8229.6095,38.2077,7.3372,54.4683,18.3752,9.8803,6.7069,19.2671,12.7677,29.832,18.2614l31.1039,16.1738c13.9661,7.2623,17.534,16.5231,17.9559,32.0146.5187,19.047,1.501,37.3701,5.5536,56.0779.5402,2.4935,1.7384,7.4618,3.857,8.758,7.4647,4.5668,10.6308,11.4802,14.6998,18.6206,6.867,12.0506,16.5563,22.0792,24.8663,33.077,4.2064,5.5669,6.4665,11.3863,4.8137,18.7337-2.92,12.9806-13.0994,15.4744-23.8195,19.4418l15.5086,16.0039c.6327.6529,1.3171,2.6586,1.5086,3.5355.2233,1.0222-1.0141,3.4645-2.0305,3.634l-5.8827.9805c3.2613,5.4073,6.6065,10.5584,9.3737,16.2804,3.8648,7.9916,10.709,33.1973-1.4367,27.0927l-1.181-.5936c-.3189-.1603-.3292,1.3369-.2474,1.8207,2.3867,14.1274,1.8219,29.6472-4.8832,42.5477-.5816,1.1189-2.0647,2.5141-2.9534,2.7718-1.0151.2943-3.1829-1.167-3.5438-2.2038l-3.2916-9.4569c-3.3826,9.1736-5.5154,16.8001-10.3947,24.5113-2.8225,4.4606-21.8476,29.6111-26.323,24.2468-.7294-.8743-1.1874-2.3377-2.1873-4.8558-3.0836,4.6699-33.6234,42.3345-38.4568,29.0092-7.7814,5.5286-18.2796,15.4464-28.0032,13.3998-.7599-.1599-2.8102-1.0989-2.7715-1.8432l.2184-4.2026c-16.4105,12.0201-37.9091,25.7543-58.7442,26.9493-1.1595.0665-4.3905-1.1787-4.4889-2.3662-.1557-1.8788.6346-4.6268,1.1925-7.2337-6.5806,3.1453-12.2828,6.5567-17.7892,10.7756l-11.5032,8.8137ZM454.4712,92.6468c19.3064-3.6539,38.0705-7.2464,58.4507-6.9261,22.0713.3468,43.9791-.0218,65.9876,4.5254,17.1742,3.5483,34.1281,7.8749,51.5161,12.5771,17.1326,4.6331,32.9741,11.4498,49.8824,18.4525-.1595-18.865,10.2352-45.4734,1.3462-61.034-1.2622-2.8348-1.365-7.179-3.6411-10.1999-12.7064-6.868-25.4977-13.1543-37.1528-21.6961-7.2655-5.3247-14.1614-9.2252-22.4116-12.8314-17.6344-7.7081-36.8081-8.8137-55.8001-3.3223l-25.6819,7.4258c-15.2252,4.4023-30.9589,4.9182-46.9288,5.0954-12.5394.1391-23.3518,6.4279-28.3163,18.2784-2.528,6.0344-4.1576,12.5871-6.1795,19.0167l-10.6469,33.8558c3.7036-.8256,6.9209-1.758,9.5762-3.2174ZM687.8142,64.9068c3.785,21.474-3.2842,36.7786-3.6302,58.1513l33.9731,16.4801-3.4528-30.4293-1.035-27.391c-.6609-17.4899-15.8326-22.6734-29.9685-29.1145,1.1633,4.998,3.4186,8.3617,4.1133,12.3034ZM465.4659,97.3367c-9.1219,2.0209-18.7216,3.6855-27.4486,7.9553-4.8102,2.3535-8.3993,7.4537-12.4349,10.8636-10.7411,9.0757-17.1869,13.2264-27.9363,21.7742l23.717-5.0966c10.8096-2.3229,56.0883,2.6295,72.5883,2.1655,32.3312-.9092,49.9318-8.3516,86.7387-5.2187,15.2221,1.2957,28.8927,6.7388,42.6714,13.1364l18.8692,8.7611c15.4606,7.1784,20.0396,11.2818,42.3091,14.2844,9.7049-11.3649,22.1439-16.2761,37.066-18.3278-9.0691-6.8352-17.9285-11.0944-27.2791-15.3714l-23.782-10.8779c-9.4354-4.3158-18.6832-6.4764-28.4587-9.9888-17.0957-6.1426-34.0534-11.372-52.5309-14.6176-39.5924-6.9544-84.4266-6.7849-124.0893.5583ZM390.7508,145.9081l-.7796.3321-1.6832.6357c-4.4191.8301-7.9166,3.5989-11.5261,6.0112-6.4602,4.3174-16.3761,10.7573-10.0552,21.4617.5158-6.5118,3.8999-11.7253,9.5628-15.2646,18.5251-11.5779,40.4355-16.6862,62.4888-15.9498,9.0079.3008,17.299,1.0854,26.1195,1.9542,17.1994,1.6941,33.6578,1.0501,50.6903-1.6097,20.9034-3.2642,56.0886-7.4704,75.9011-1.8786,30.3143,8.5558,50.2602,26.0226,81.4354,32.859,2.6537.5819,5.6211-2.434,6.8395-4.2522-12.4234-1.9525-23.5772-5.834-34.7759-11.2536l-37.6515-18.2212c-24.9714-12.0847-57.8113-7.901-84.5271-3.6906-50.2919,7.926-74.0028-2.96-101.3124.4508-10.8269,1.3522-21.2473,4.3343-30.7263,8.4157ZM402.5106,186.4315c-.0231.1697-.006.5061.0248.6659-.5706.7403-1.3882,2.538-1.6392,3.8154-3.1291,15.9252-11.9186,28.2829-23.5202,38.7117-1.6734,1.5042-4.5613,2.141-6.1148,4.6355,2.6555-.221,4.9342-.7447,7.0639-1.6433l2.684.9413c.6375.2236-.3662,2.2285-1.0667,2.9909-12.3456,13.4369-23.0875,30.1301-26.769,49.1914l7.5028-8.7002,2.6344.1137c.0143.7842-.0719,2.4456-.3264,3.2895-5.4652,18.1293-7.4665,37.0267-2.2832,54.7878.357,1.2234.8224,2.1193,1.9903,3.4925l4.2853-13.2679c.1991-.6165.9965-1.5227,1.3989-1.8596.4041-.3384,2.0151.8921,2.2281,1.4684l3.4376,9.3009c2.4706,6.6844,5.3704,12.4577,9.5207,18.1959,5.4224,7.4969,11.0634,14.7259,18.3276,19.8896l1.5133-2.9423c.3149-.6123,2.3777.1597,2.9587.584,8.2108,5.9967,15.1483,13.0313,21.1713,21.286l13.9873,19.1698c2.658,3.6428,5.2033,6.6106,9.2589,9.6853,2.322-4.9607-3.7329-12.2105.0238-12.6792,11.6559,8.522,21.692,19.7854,29.2607,32.0019l3.1679-4.8136c.4543-.6904,2.9792.7905,3.4872,1.5903,6.6576,10.4834,15.3627,20.1693,25.3226,28.2713,4.5686-3.5338,6.6122-12.0469,12.0451-17.3238,4.2839.5562,1.8368,9.2306,3.7118,14.2329,8.0078-4.5217,14.4461-9.7642,21.1857-15.2453.5347-.4348,2.2556-1.0156,2.8924-.8284,2.3405.6882-.1362,7.4468,4.0493,3.8478,11.7147-10.0732,27.5734-19.2107,42.9115-23.8521.6625-.2005,2.2315.14,2.5349.609,1.9175,2.9645-8.6778,10.6629-10.7045,15.7087,15.5176-2.5374,38.4959-17.5169,51.4667-26.0238,5.7278-3.7566,11.5091-8.3321,16.3422-12.5589.6653-.5818,2.5358-.6862,3.1828-.3147s1.2833,2.6205.8912,3.25l-8.9142,14.3109c15.6757-5.9655,28.7409-22.6965,35.1801-34.934.6481-1.2318,2.456-1.3925,2.732-.9122.2751.4789.9127,2.0825.6551,2.7476l-7.5129,19.3995c12.3507-8.5544,21.2789-20.3503,27.9696-33.1395,3.1893-6.0964,5.7959-12.9082,8.3006-19.0726.2575-.6336,1.3608-1.6233,1.8337-1.9637,4.8748-3.5098-1.0661,25.4994-1.0158,27.6998,18.3883-18.208,24.6913-36.3019,24.6401-61.0939-.0017-.8289,1.8776-1.9217,2.4168-1.5944.5479.3326,1.7242,1.3382,1.962,1.9513l7.8282,20.1852c3.5087-6.7592,2.2659-13.5265,1.9487-20.3089-.5099-10.9034-3.0061-20.8392-7.1253-30.9568-.2931-.72-.0099-2.6621.5714-3.1776,4.0539-3.5951,10.8313,9.9576,13.8366,12.4421-1.2882-13.9878-8.7506-25.9986-18.1985-36.0773-2.8992-3.0927-8.029-8.0389-6.3352-11.5713,1.4732-3.072,9.8941,5.556,14.3713,3.601l-14.5756-13.193c-8.6908-7.8664-14.9413-17.1008-19.07-28.5389-9.6319,3.5785-19.3594,2.8657-27.0346-3.3108-1.8257-1.4692-2.5691-4.388-.6562-6.1129,6.4375,4.1487,13.558,4.481,20.3474,2.6954,7.9263-2.0846,12.1619-7.7117,16.6545-13.2382,6.5206-8.0212,8.8109-18.0293,2.5418-26.8602-6.0674-8.5468-16.4779-11.2109-26.6481-6.9175-15.3424,6.4769-22.1523,17.4439-29.5314,22.1502-1.7337,1.1057-6.1083,2.2267-8.2777,1.7175-17.9831-4.2214-34.0565-11.2394-50.0541-20.1179-18.5443-10.2919-38.3437-15.2965-59.6856-14.5407-15.1184.5354-29.4606,2.0311-44.4282,3.8543-14.6742,1.7874-28.9787,2.7899-43.7981,1.812l-27.3931-1.8077c-11.4743-.7572-22.2701-.8892-33.8552,1.7541-4.5528,8.204-8.5427,24.7885-9.7202,33.445ZM755.4908,194.1341l-8.6118-13.0309-1.96,5.7845,10.5718,7.2464ZM767.0222,217.6167c4.8321-9.47-8.4437-18.8818-15.3716-22.4673l-8.1897-4.2386-3.3328,5.9939c11.6383,4.8619,22.7375,7.1311,26.8941,20.712Z">
                </path>
                <path style="fill: #a0683f;"
                    d="M568.7709,162.6514c-17.0066,8.7761-32.4126,25.5941-42.7169,30.1935-6.6413,2.9643-13.6279-.3316-17.176-6.1468-.9138,5.4072,4.0253,8.3352,5.7465,12.1157,2.7699,6.0837,8.7267,9.637,14.3402,13.9114,3.7151,2.8288,6.9514,6.0174,10.6551,9.234l1.9949-2.9805c3.3449,4.5139,9.0102,4.8935,13.0018,6.7873,7.9084,3.7521,16.0154,8.504,25.4156,3.0597l-4.2037-1.5047c3.4559-1.9015,6.7761-4.0226,9.9634-6.8077l14.7165-12.8596c-.8087-.5062-2.6455-1.745-2.3866-2.3683.6354-1.5068,3.5749-3.5914,4.9749-4.1493l18.9402-7.5481c6.3171-2.5175-2.7829-6.9916.0236-9.7906,2.7674-.6993,6.2303.1112,8.9584,1.0726,14.202,5.0054,28.133,7.4358,43.0681,8.8208,2.2355.2073,5.0703,2.4261,6.156,3.8799,1.2055,1.6142,1.3947,5.6889.2871,7.2341l-11.5208,1.1206c-.8155.0793-2.5058,2.2143-2.0108,2.8314.3962.4939,1.5122,1.4751,2.2923,1.7054,6.376,1.8819,13.2703,4.1381,19.6387,7.0208,2.4881,1.1263,4.2091,3.8717,6.3088,5.3876,7.6975,5.5574,19.4319,7.474,20.634,14.0391l-8.1842-2.0645c-.5092-.1285-2.0755.4012-2.5313.5583-.4577.1578.4259,1.8948.9512,2.3059l13.8489,10.8362c2.4559,1.9217,1.8453,4.3288,2.9278,6.6264,3.4498,7.3223,16.3756,29.4725,11.4086,36.5009-.9924-1.3582-8.0913-20.0521-10.6078-15.3223-2.1044,3.9553,9.0032,16.2913,4.9821,35.6014-1.8594,8.9294-5.8083-7.3106-10.9795-2.6968-.1147,10.0648-.4834,20.7173-6.6119,29.1893-2.5724-4.64.1126-8.3748-1.6404-12.0481-1.5664,5.7499-3.5472,11.3208-6.9901,15.599-.8289,1.03-4.251,1.5311-4.9958.6236l-3.1328-3.8172-5.221,8.0294c-2.0207,3.1076-3.973,6.7456-7.6712,7.7958.8174-3.5311,4.4333-25.3873.5315-23.0904-.4586.27-1.736,1.1345-1.9643,1.623l-6.4915,13.886c-4.7592,10.1805-13.3163,18.8795-22.9655,24.5928,5.2982-11.245,9.9904-20.9846,7.8323-32.5629-3.1962,3.6213-3.4132,7.5391-5.7034,10.7728-5.8551,8.2672-14.0654,14.7686-23.895,17.8854l-10.1418-.3248c-4.3999,2.8693-13.9804,11.6436-19.4033,9.7801l7.226-7.9208c.3372-.3696.7472-2.1608.3148-2.0595-4.3503,1.0189-13.873,9.4481-26.7648,8.0702l-.0686-2.1195c10.8176-.6862,19.7124-9.2806,22.5002-19.8216,2.2117-8.3627,2.9537-18.4138-3.7753-25.1104,2.6893,13.5138,1.1093,26.3529-9.5345,34.5536-5.0634,3.9012-12.8861,4.5677-18.8517,2.7112l-20.7503-6.4575c2.9746,4.1576,6.6568,5.8965,10.5127,8.3801-.0546.1292-1.5243.6277-2.0339.5522l-9.2666-1.3738c1.9997,3.114,3.715,4.4915,2.4254,6.4076l-21.978-8.2109,4.3297,8.7127c-16.8804-5.9969-21.6819-6.139-37.9372-8.5238,1.7018-4.2729,2.7855-8.9338,3.3757-13.7988l2.0651-17.0217c21.8031.3742,38.0725,5.9803,58.0285,12.9136,8.6906,3.0194,23.1618,4.265,27.3652-6.1562,5.663-14.0402-3.6768-31.4255-13.0674-41.71-4.8693-5.3327-10.5487-8.6906-17.2088-11.7222,5.5154-1.2548,10.6356.1054,15.6059,2.1115,6.37,2.571,10.8033,7.605,17.1483,11.2389-6.012-10.8828-16.9046-17.7793-28.742-18.782-7.1759-.6079-13.6956,2.974-19.1186,7.3115-12.3159,9.8508-29.736,24.9467-46.132,20.4815-12.9112-3.5161-24.3541-10.3518-33.5739-20.2583-1.184-4.1295-1.874-9.979-2.2727-14.2658-.0594-.6389,1.2378-1.3503,1.7086-1.6349,4.473,10.7714,17.7641,20.1289,28.7419,24.9356,9.112,3.9898,18.7312,3.2251,27.2352-2.1718,7.8166-4.9606,15.4304-10.0376,22.999-15.5319,8.4264-6.117,17.8309-12.7291,27.4752-3.2124.0537-3.986.1778-8.3589-1.648-11.8599-2.5545-4.8985-7.859-9.6737-13.2058-10.7044-3.2961-.6354-5.3694-.7188-7.4855-3.1772-9.7363-11.3114-22.6218-20.3765-36.9819-23.1851-1.459-3.4344-4.4702-6.9243-7.8274-9.1446-16.2434-10.7426-35.7477-14.1895-54.7283-10.2964-7.034,1.4427-12.8313,4.1051-18.5895,8.2057-3.7788,2.6911-5.8124,6.8058-8.8552,10.0519-3.5182,3.7533-8.6219,5.9168-11.6087,10.4571-12.6142,19.1746-16.6043,39.9504-6.1386,61.1479,3.7157,7.5258,9.9278,12.7368,17.2785,16.3939-.0006,3.9991.1761,8.4471,3.0248,11.173,3.5393,3.3866,8.7275,2.9004,13.7073,2.8367,3.463,10.9971,6.1305,26.9667,14.1005,34.7814-3.505,4.1831-31.5057-16.4274-35.5548-19.5953-2.5807-2.0191-4.1247-3.983-7.7951-4.0725-11.8354-.2887-19.8811-9.6513-24.6659-19.527-8.2562.6007-6.3166-5.2776-10.1852-11.238l-4.6213,2.408-1.25-9.198-3.1863,2.2315c-.0289-8.6472,1.778-17.2431,3.5903-26.1333.0862-.4227.1398-2.0266-.2578-2.0755-.2644-.0325-.6753-.0172-1.0104-.0317l-2.6344-.1137c-.5419-5.3179,13.0316-22.5205,17.0389-27.3364l12.4231-14.9303c.6231-.7488,1.5678-3.0656.8441-3.4481l-2.7758-1.4674c-.545-.2881-1.585-.9743-2.0087-1.2816-1.3647-.9897,20.598-19.4199,16.3376-41.4789-.0308-.1597-.0479-.4961-.0248-.6659l3.3899-.9724c1.3223-.3793,3.304-.5683,5.0552-.3329l2.2778,15.8093c.4893,3.3959.5346,6.6677.3565,9.7641l-5.4381-2.0383c1.4952,3.9377,5.8065,6.5275,10.3919,6.3093,8.2185-.3909,15.4622-5.6039,19.6307-12.6791l5.0744-8.6128c5.2415-.6957,8.8527-3.4277,12.3731-7.1517,1.4911-1.5773,3.3276-3.4647,2.7038-5.2348-3.7854,1.5232-6.9466,3.1854-9.9204,2.7342-8.0524-9.1941-16.0661-20.909-27.6896-25.2564,4.5665-4.4491,18.486-2.7861,25.3264-.0596,28.8499,11.4995,59.1664,10.2777,88.5201,1.1747,8.1091-2.5148,29.7211-4.7235,34.2087,2.7662ZM548.3283,366.3179c0-.2176-.1764-.3939-.3939-.3939s-.3939.1764-.3939.3939.1764.3939.3939.3939.3939-.1764.3939-.3939Z">
                </path>
                <path style="fill: #724631;"
                    d="M679.7228,180.3149l-2.3646,8.3491c5.1498.0903,9.1007-.4824,13.44-1.5004l-4.0173,5.5054c2.4173,1.3234,4.0514.9684,6.8564.479l7.0342,3.6527c6.5764,3.415,15.0316,3.8143,20.7141-1.663-8.7823,1.2545-16.4867.9727-23.195-5.3499,5.0226-4.5564,23.9916-21.6677,30.4299-16.8733,4.3338,3.2273-.7609,12.6137,1.7272,13.3847-.4408,2.4747.4862,5.0844,3.0128,5.6431-4.4926,5.5265-8.7282,11.1536-16.6545,13.2382-6.7894,1.7856-13.91,1.4533-20.3474-2.6954-1.913,1.7248-1.1695,4.6437.6562,6.1129,7.6751,6.1765,17.4026,6.8893,27.0346,3.3108,4.1287,11.4381,10.3793,20.6725,19.07,28.5389l14.5756,13.193c-4.4773,1.9551-12.8982-6.673-14.3713-3.601-1.6939,3.5323,3.436,8.4785,6.3352,11.5713,9.4478,10.0787,16.9103,22.0895,18.1985,36.0773-3.0052-2.4845-9.7827-16.0371-13.8366-12.4421-.5814.5156-.8646,2.4576-.5714,3.1776,4.1192,10.1175,6.6154,20.0534,7.1253,30.9568.3172,6.7825,1.56,13.5498-1.9487,20.3089l-7.8282-20.1852c-.2378-.6131-1.4141-1.6187-1.962-1.9513-.5393-.3274-2.4186.7655-2.4168,1.5944.0511,24.792-6.2519,42.8859-24.6401,61.0939-.0503-2.2004,5.8906-31.2096,1.0158-27.6998-.4729.3405-1.5762,1.3301-1.8337,1.9637-2.5048,6.1645-5.1113,12.9762-8.3006,19.0726-6.6907,12.7892-15.6188,24.5851-27.9696,33.1395l7.5129-19.3995c.2576-.6651-.38-2.2687-.6551-2.7476-.276-.4803-2.0839-.3196-2.732.9122-6.4392,12.2375-19.5044,28.9684-35.1801,34.934l8.9142-14.3109c.3921-.6295-.2445-2.8787-.8912-3.25-.6471-.3715-2.5176-.2671-3.1828.3147-4.8331,4.2267-10.6144,8.8023-16.3422,12.5589-12.9707,8.5069-35.9491,23.4865-51.4667,26.0238,2.0267-5.0458,12.622-12.7442,10.7045-15.7087-.3034-.469-1.8724-.8095-2.5349-.609-15.3382,4.6413-31.1969,13.7789-42.9115,23.8521-4.1855,3.599-1.7088-3.1596-4.0493-3.8478-.6368-.1872-2.3577.3936-2.8924.8284-6.7396,5.4811-13.1779,10.7235-21.1857,15.2453-1.875-5.0022.572-13.6767-3.7118-14.2329-5.4328,5.2769-7.4765,13.79-12.0451,17.3238-9.9598-8.102-18.665-17.7879-25.3226-28.2713-.508-.7999-3.0328-2.2807-3.4872-1.5903l-3.1679,4.8136c-7.5687-12.2165-17.6048-23.4799-29.2607-32.0019-3.7567.4687,2.2982,7.7186-.0238,12.6792-4.0556-3.0747-6.6009-6.0425-9.2589-9.6853l-13.9873-19.1698c-6.0231-8.2547-12.9605-15.2893-21.1713-21.286-.581-.4243-2.6438-1.1963-2.9587-.584l-1.5133,2.9423c-7.2642-5.1637-12.9052-12.3927-18.3276-19.8896-4.1503-5.7381-7.0502-11.5115-9.5207-18.1959l-3.4376-9.3009c-.213-.5762-1.8239-1.8068-2.2281-1.4684-.4024.3369-1.1998,1.2432-1.3989,1.8596l-4.2853,13.2679c-1.1679-1.3732-1.6333-2.2691-1.9903-3.4925l.8924-.8285-.5502-12.5736-.0549-16.4347,3.1863-2.2315,1.25,9.198,4.6213-2.408c3.8685,5.9603,1.929,11.8387,10.1852,11.238,4.7849,9.8756,12.8305,19.2383,24.6659,19.527,3.6704.0895,5.2143,2.0534,7.7951,4.0725,4.0491,3.1679,32.0498,23.7784,35.5548,19.5953,9.8315,5.8337,37.8917,7.5047,47.3245.5935,16.2553,2.3848,21.0568,2.5269,37.9372,8.5238l-4.3297-8.7127,21.978,8.2109c1.2896-1.9161-.4257-3.2937-2.4254-6.4076l9.2666,1.3738c.5096.0755,1.9793-.423,2.0339-.5522,6.2458,2.8504,12.8574,6.1911,19.8988,5.7444l.0686,2.1195c12.8919,1.3779,22.4145-7.0513,26.7648-8.0702.4324-.1013.0223,1.69-.3148,2.0595l-7.226,7.9208c5.4229,1.8636,15.0035-6.9108,19.4033-9.7801l10.1418.3248c9.8296-3.1168,18.0398-9.6182,23.895-17.8854,2.2903-3.2338,2.5072-7.1515,5.7034-10.7728,2.1581,11.5783-2.534,21.3179-7.8323,32.5629,9.6493-5.7133,18.2063-14.4123,22.9655-24.5928l6.4915-13.886c.2284-.4885,1.5057-1.3531,1.9643-1.623,3.9018-2.2969.2859,19.5593-.5315,23.0904,3.6982-1.0503,5.6506-4.6882,7.6712-7.7958l5.221-8.0294,3.1328,3.8172c.7448.9075,4.1669.4064,4.9958-.6236,3.4429-4.2782,5.4237-9.8491,6.9901-15.599,1.753,3.6733-.932,7.4081,1.6404,12.0481,6.1285-8.472,6.4972-19.1245,6.6119-29.1893,5.1712-4.6138,9.12,11.6263,10.9795,2.6968,4.0211-19.3101-7.0865-31.6461-4.9821-35.6014,2.5165-4.7299,9.6154,13.964,10.6078,15.3223,4.9671-7.0284-7.9587-29.1786-11.4086-36.5009-1.0825-2.2976-.4719-4.7047-2.9278-6.6264l-13.8489-10.8362c-.5253-.411-1.409-2.1481-.9512-2.3059.4557-.1571,2.022-.6867,2.5313-.5583l8.1842,2.0645c-1.2021-6.565-12.9365-8.4817-20.634-14.0391-2.0997-1.5159-3.8206-4.2613-6.3088-5.3876-6.3684-2.8827-13.2627-5.139-19.6387-7.0208-.7801-.2302-1.8961-1.2114-2.2923-1.7054-.495-.6171,1.1952-2.7521,2.0108-2.8314l11.5208-1.1206c1.1076-1.5451.9184-5.6198-.2871-7.2341-1.0856-1.4538-3.9205-3.6726-6.156-3.8799-14.9351-1.385-28.8661-3.8154-43.0681-8.8208-2.7281-.9615-6.191-1.772-8.9584-1.0726-2.8064,2.799,6.2935,7.2731-.0236,9.7906l-18.9402,7.5481c-1.4.5579-4.3395,2.6425-4.9749,4.1493-.2588.6233,1.5779,1.8621,2.3866,2.3683l-14.7165,12.8596c-3.1873,2.7851-6.5075,4.9063-9.9634,6.8077-7.9507.4887-16.4183-2.2577-22.1112-9.5883,12.6028,2.3323,24.2703-.7198,34.0544-8.6615,2.637-2.1405,6.1978-2.202,7.3783-7.032l-4.9241,1.837c-.5064-13.3597-.4045-21.8234-10.9072-32.3987,6.1427-2.4335,12.3166-3.9642,18.6464-3.1665,4.0612.5118,7.7433,2.7769,12.156,4.1221-5.6446-17.5413-29.5988-15.8457-41.3501-9.7816-4.4876-7.4897-26.0995-5.281-34.2087-2.7662-29.3537,9.103-59.6702,10.3248-88.5201-1.1747-6.8404-2.7266-20.7598-4.3895-25.3264.0596-5.421.0964-10.3908,3.4782-11.265,9.3789,5.5142-1.4346,11.08-1.917,14.063,3.1182-10.7733,7.3376-13.2762,21.8604-5.7266,32.2091,1.4731,2.0192,4.0338,3.242,6.4618,4.855-3.0389,2.3743-6.9749,3.7492-10.659,2.3684.1781-3.0964.1328-6.3682-.3565-9.7641l-2.2778-15.8093c-1.7512-.2354-3.7329-.0464-5.0552.3329l-3.3899.9724c1.1775-8.6565,5.1674-25.241,9.7202-33.445,11.5851-2.6433,22.3809-2.5113,33.8552-1.7541l27.3931,1.8077c14.8194.9779,29.1238-.0245,43.7981-1.812,14.9676-1.8232,29.3098-3.3189,44.4282-3.8543,21.3419-.7558,41.1413,4.2488,59.6856,14.5407,15.9975,8.8785,32.0709,15.8965,50.0541,20.1179,2.1694.5092,6.5441-.6118,8.2777-1.7175Z">
                </path>
                <path style="fill: #bf203c;"
                    d="M618.4486,15.5144c8.2502,3.6062,15.1461,7.5066,22.4116,12.8314,11.6551,8.5418,24.4464,14.8281,37.1528,21.6961,2.2761,3.0208,2.3789,7.365,3.6411,10.1999-10.2051-3.2033-20.1702-11.6406-32.6219-14.3412l5.64,12.6613c2.9291,6.5756,3.1915,13.4183,1.3871,20.3013-2.93,11.1767-12.6356,2.968-18.2623,14.145-1.8417,3.6584-5.0358,5.1479-9.2,4.3034-15.6573-3.1753-30.9064-5.8094-46.7225-7.6662-1.0397-.1221-2.6159.1596-2.9649.6007-22.0085-4.5471-43.9163-4.1785-65.9876-4.5254-20.3802-.3203-39.1443,3.2722-58.4507,6.9261,1.2002-4.2899,3.7264-8.2731,5.3769-12.8284,3.3273-9.1831,5.4954-18.4948,7.4173-28.0283,2.2629-11.2257,10.8678-18.7266,22.1814-19.9885l31.8904-3.5568c17.1405-1.9117,50.0351-13.7816,73.4614-13.2586l23.6501.5281Z">
                </path>
                <path style="fill: #bf203c;"
                    d="M642.0861,111.3959c.0772,2.8223,6.6392,3.671,9.3714,9.3922,3.8054,7.9686,2.5708,16.5205-1.1994,24.0851-1.8183,3.6482-4.2329,5.9275-8.0273,6.8041l-18.8692-8.7611c-13.7788-6.3975-27.4493-11.8407-42.6714-13.1364-36.807-3.1329-54.4076,4.3095-86.7387,5.2187-16.5001.464-61.7787-4.4884-72.5883-2.1655.1014-.9441.9331-2.4934,1.8294-3.1223l18.5422-13.0109c8.5345-5.9886,16.2691-12.6687,23.7312-19.3632,39.6627-7.3432,84.497-7.5127,124.0893-.5583,18.4775,3.2456,35.4352,8.4749,52.5309,14.6176Z">
                </path>
                <path style="fill: #951930;"
                    d="M681.6541,60.2418c8.889,15.5605-1.5056,42.169-1.3462,61.034-16.9083-7.0027-32.7498-13.8194-49.8824-18.4525-17.388-4.7022-34.3418-9.0288-51.5161-12.5771.349-.441,1.9252-.7227,2.9649-.6007,15.8161,1.8569,31.0652,4.4909,46.7225,7.6662,4.1643.8445,7.3583-.645,9.2-4.3034,5.6267-11.177,15.3323-2.9684,18.2623-14.145,1.8044-6.883,1.5421-13.7257-1.3871-20.3013l-5.64-12.6613c12.4518,2.7006,22.4168,11.1379,32.6219,14.3412ZM679.2312,71.661c-.6751-3.7837-3.6805-5.9226-6.7407-5.5405-3.2247.4027-5.201,3.2195-5.1435,6.7085.0667,4.0517,3.0782,7.1851,6.6327,6.7782,3.6758-.4209,6.0155-3.6645,5.2516-7.9462Z">
                </path>
                <path style="fill: #951930;"
                    d="M642.2308,151.6774c3.7943-.8766,6.209-3.1559,8.0273-6.8041,3.7702-7.5646,5.0048-16.1165,1.1994-24.0851-2.7321-5.7212-9.2942-6.57-9.3714-9.3922,9.7755,3.5124,19.0233,5.673,28.4587,9.9888l23.782,10.8779c9.3506,4.277,18.21,8.5362,27.2791,15.3714-14.922,2.0517-27.3611,6.9629-37.066,18.3278-22.2695-3.0026-26.8485-7.106-42.3091-14.2844Z">
                </path>
                <path style="fill: #951930;"
                    d="M714.7044,109.1089l3.4528,30.4293-33.9731-16.4801c.3459-21.3727,7.4151-36.6773,3.6302-58.1513,14.0839,3.7048,20.2186,12.1492,23.2091,26.5168l3.6811,17.6853ZM702.6716,93.5331c-2.0805-1.5155-3.3345-3.1878-3.6233-5.5114-.2662-2.1417,1.1843-3.4587,2.9031-5.2947.6049-1.1242-1.9003-3.093-3.5064-2.9775-4.4952.3233-4.5352,9.6045.2487,14.8963.4674.517,2.0874.9381,2.5686.6582.4789-.2786,1.2755-1.3665,1.4094-1.7709Z">
                </path>
                <path style="fill: #951930;"
                    d="M618.4486,15.5144l-23.6501-.5281c-23.4263-.5231-56.321,11.3469-73.4614,13.2586l-31.8904,3.5568c-11.3136,1.2618-19.9185,8.7628-22.1814,19.9885-1.9218,9.5336-4.0899,18.8452-7.4173,28.0283-1.6505,4.5553-4.1767,8.5385-5.3769,12.8284-2.6553,1.4594-5.8727,2.3917-9.5762,3.2174l10.6469-33.8558c2.022-6.4295,3.6515-12.9822,6.1795-19.0167,4.9646-11.8505,15.777-18.1392,28.3163-18.2784,15.9699-.1772,31.7036-.6931,46.9288-5.0954l25.6819-7.4258c18.992-5.4915,38.1657-4.3858,55.8001,3.3223Z">
                </path>
                <path style="fill: #a0683f;"
                    d="M733.3604,191.9423c-2.5266-.5587-3.4536-3.1684-3.0128-5.6431,2.2793-5.8854,3.5629-17.5783-4.9751-19.2954-15.1028-3.0375-24.8526,12.1938-34.5743,20.1598-4.3393,1.018-8.2901,1.5907-13.44,1.5004l2.3646-8.3491c7.379-4.7063,14.189-15.6733,29.5314-22.1502,10.1702-4.2934,20.5807-1.6293,26.6481,6.9175,6.269,8.8308,3.9788,18.839-2.5418,26.8602Z">
                </path>
                <path style="fill: #951930;"
                    d="M465.4659,97.3367c-7.4621,6.6945-15.1966,13.3746-23.7312,19.3632l-18.5422,13.0109c-.8964.629-1.7281,2.1782-1.8294,3.1223l-23.717,5.0966c10.7494-8.5478,17.1953-12.6985,27.9363-21.7742,4.0356-3.4099,7.6247-8.51,12.4349-10.8636,8.727-4.2699,18.3267-5.9345,27.4486-7.9553Z">
                </path>
                <path style="fill: #bf203c;"
                    d="M714.7044,109.1089l-3.6811-17.6853c-2.9905-14.3676-9.1252-22.812-23.2091-26.5168-.6948-3.9418-2.9501-7.3054-4.1133-12.3034,14.1359,6.4411,29.3077,11.6246,29.9685,29.1145l1.035,27.391Z">
                </path>
                <path style="fill: #951930;"
                    d="M767.0222,217.6167c-4.1565-13.5809-15.2558-15.8501-26.8941-20.712l3.3328-5.9939,8.1897,4.2386c6.9279,3.5855,20.2037,12.9973,15.3716,22.4673Z">
                </path>
                <path style="fill: #b17c4f;"
                    d="M360.9884,305.3942l.0549,16.4347.5502,12.5736-.8924.8285c-5.1833-17.7611-3.182-36.6585,2.2832-54.7878.2544-.8439.3406-2.5053.3264-3.2895.3351.0145.7459-.0009,1.0104.0317.3975.0489.3439,1.6528.2578,2.0755-1.8123,8.8902-3.6192,17.4861-3.5903,26.1333Z">
                </path>
                <polygon style="fill: #951930;"
                    points="755.4908 194.1341 744.919 186.8877 746.879 181.1032 755.4908 194.1341"></polygon>
                <path style="fill: #b17c4f;"
                    d="M390.9823,231.3252l-2.7758-1.4674c-.545-.2881-1.585-.9743-2.0087-1.2815-1.3647-.9897,20.598-19.4199,16.3376-41.4789-.5705.7403-1.3882,2.538-1.6392,3.8155-3.1291,15.9251-11.9186,28.2829-23.5202,38.7117-1.6734,1.5042-4.5613,2.1409-6.1148,4.6355,2.6555-.221,4.9342-.7447,7.0639-1.6433l2.684.9413c.6375.2236-.3662,2.2285-1.0667,2.9909-12.3456,13.4369-23.0875,30.1302-26.769,49.1914l7.5028-8.7002c-.5419-5.3179,13.0316-22.5205,17.0389-27.3364l12.4231-14.9303c.6231-.7488,1.5678-3.0656.8442-3.4481Z">
                </path>
                <path style="fill: #951930;"
                    d="M644.9681,158.9535l-37.6515-18.2212c-24.9714-12.0847-57.8113-7.9011-84.5271-3.6906-50.2919,7.926-74.0028-2.96-101.3124.4508-10.8269,1.3522-21.2472,4.3343-30.7263,8.4157l-.7796.3321-1.6832.6356c-4.4191.8301-7.9166,3.5989-11.5261,6.0112-6.4602,4.3174-16.3761,10.7572-10.0552,21.4617.5158-6.5118,3.8999-11.7253,9.5629-15.2646,18.5251-11.5779,40.4355-16.6862,62.4888-15.9497,9.0079.3008,17.299,1.0854,26.1195,1.9542,17.1994,1.6941,33.6577,1.05,50.6903-1.6097,20.9035-3.2642,56.0886-7.4704,75.9011-1.8786,30.3143,8.5558,50.2602,26.0226,81.4354,32.859,2.6537.5819,5.6211-2.4341,6.8395-4.2522-12.4234-1.9524-23.5772-5.834-34.7759-11.2535Z">
                </path>
                <path style="fill: #c49669;"
                    d="M460.7533,273.686c4.2153-2.5478,12.0686-8.0237,15.1779-12.5352,6.8101-1.9144,12.2216-7.8739,18.7367-10.3392,9.0527-3.4255,14.3568-11.8834,13.2155-22.0328,14.3601,2.8086,27.2456,11.8737,36.9819,23.1851,2.1161,2.4584,4.1894,2.5418,7.4855,3.1772,5.3467,1.0307,10.6512,5.8059,13.2058,10.7044,1.8258,3.5011,1.7016,7.8739,1.648,11.8599-9.6443-9.5166-19.0489-2.9046-27.4752,3.2124-7.5685,5.4943-15.1824,10.5712-22.999,15.5319-8.5041,5.3969-18.1232,6.1616-27.2352,2.1718-10.9778-4.8067-24.2689-14.1642-28.7419-24.9356Z">
                </path>
                <g>
                    <path style="fill: #fff;"
                        d="M565.8199,179.3425c-8.2513,4.1129-15.0891,10.0517-21.7372,16.2753.7368,8.4222,11.92,18.0125,17.3673,13.653.7999-.6401,1.5245-2.8657,1.5875-4.267l.332-7.3824c5.5841-2.229,7.2028-7.5326,6.9991-13.0269-.0703-1.8965-2.1092-6.4678-4.5488-5.2518Z">
                    </path>
                    <path style="fill: #132448;"
                        d="M568.7709,162.6514c-17.0066,8.7761-32.4126,25.5942-42.7169,30.1935-6.6413,2.9643-13.6279-.3317-17.176-6.1468-.9138,5.4072,4.0253,8.3352,5.7465,12.1157,6.947,4.3436,15.2263,4.8947,23.2669-.1577,2.8694,11.0228,9.05,19.5045,16.725,27.1099,7.9084,3.7521,16.0154,8.504,25.4156,3.0598l-4.2037-1.5048c-7.9507.4886-16.4183-2.2576-22.1113-9.5883,12.6028,2.3323,24.2703-.7198,34.0544-8.6615,2.6371-2.1404,6.1978-2.202,7.3784-7.032l-4.9241,1.837c-.5064-13.3597-.4045-21.8234-10.9072-32.3987,6.1426-2.4335,12.3165-3.9642,18.6464-3.1666,4.0612.5118,7.7433,2.7769,12.156,4.1221-5.6446-17.5414-29.5988-15.8458-41.3502-9.7816ZM563.3695,197.6212l-.332,7.3824c-.063,1.4013-.7877,3.6269-1.5875,4.267-5.4473,4.3596-16.6306-5.2308-17.3673-13.653,6.6481-6.2236,13.4858-12.1624,21.7372-16.2753,2.4396-1.2159,4.4785,3.3553,4.5488,5.2518.2037,5.4943-1.415,10.7979-6.9991,13.0269Z">
                    </path>
                </g>
                <g>
                    <path style="fill: #fff;"
                        d="M430.9691,178.0022c-.8362-1.3889-3.7838-3.5053-5.1685-2.5498-9.0151,6.2209-8.6664,21.9779-1.1536,24.6659-.0728-5.576-.2423-10.1491,3.298-13.9052.4734.7793,1.9089,2.7052,2.4721,2.1772.7177-.6729,1.5994-1.8607,1.8328-2.6041.1943-.6191-1.1794-1.7939-1.7141-2.3802.5555-1.667,1.2073-4.1179.4332-5.4038Z">
                    </path>
                    <path style="fill: #132448;"
                        d="M458.3258,181.2923c-3.7854,1.5231-6.9466,3.1854-9.9203,2.7341-8.0524-9.1941-16.0661-20.909-27.6896-25.2564-5.421.0964-10.3907,3.4783-11.265,9.379,5.5142-1.4347,11.08-1.917,14.063,3.1181-10.7733,7.3376-13.2762,21.8604-5.7266,32.2092,1.473,2.0192,4.0338,3.242,6.4618,4.855-3.0389,2.3743-6.9749,3.7492-10.659,2.3683l-5.4382-2.0383c1.4952,3.9377,5.8066,6.5275,10.3919,6.3094,8.2184-.3909,15.4622-5.6039,19.6307-12.6791l5.0743-8.6128c5.2415-.6957,8.8527-3.4277,12.3732-7.1517,1.4911-1.5773,3.3275-3.4647,2.7038-5.2348ZM425.8006,175.4523c1.3846-.9555,4.3323,1.1609,5.1685,2.5498.7742,1.2859.1224,3.7368-.4332,5.4038.5346.5864,1.9084,1.7611,1.7141,2.3802-.2334.7433-1.1152,1.9312-1.8328,2.6041-.5632.528-1.9987-1.3979-2.4721-2.1772-3.5403,3.756-3.3708,8.3291-3.298,13.9052-7.5128-2.688-7.8615-18.445,1.1536-24.6659Z">
                    </path>
                </g>
                <path style="fill: #132448;"
                    d="M579.931,373.1593c-7.0414.4466-13.653-2.894-19.8988-5.7444-3.8559-2.4836-7.5381-4.2225-10.5127-8.3801l20.7503,6.4575c5.9656,1.8565,13.7882,1.19,18.8517-2.7112,10.6438-8.2007,12.2237-21.0398,9.5345-34.5536,6.729,6.6966,5.987,16.7477,3.7753,25.1104-2.7878,10.5409-11.6826,19.1354-22.5002,19.8216Z">
                </path>
                <path style="fill: #724631;"
                    d="M554.6165,225.7659c-3.9917-1.8938-9.6569-2.2734-13.0018-6.7873l-1.9949,2.9805c-3.7037-3.2166-6.94-6.4051-10.6551-9.234-5.6135-4.2744-11.5703-7.8277-14.3402-13.9114,6.947,4.3436,15.2263,4.8947,23.267-.1577,2.8694,11.0228,9.0499,19.5045,16.725,27.1099Z">
                </path>
                <circle style="fill: #81352e;" r=".3939" cy="366.3179" cx="547.9343"></circle>
                <path style="fill: #132448;"
                    d="M730.3476,186.2992c-2.4881-.771,2.6066-10.1574-1.7272-13.3847-6.4383-4.7944-25.4073,12.3168-30.4299,16.8733,6.7082,6.3225,14.4126,6.6044,23.195,5.3499-5.6825,5.4773-14.1377,5.078-20.7141,1.663l-7.0342-3.6527c-2.805.4893-4.439.8444-6.8564-.479l4.0173-5.5054c9.7218-7.966,19.4715-23.1973,34.5743-20.1598,8.538,1.7172,7.2545,13.41,4.9751,19.2954Z">
                </path>
                <path style="fill: #132448;"
                    d="M679.2312,71.661c.7639,4.2817-1.5758,7.5253-5.2516,7.9462-3.5545.407-6.5659-2.7265-6.6327-6.7782-.0575-3.489,1.9189-6.3058,5.1435-6.7085,3.0603-.3822,6.0656,1.7568,6.7407,5.5405ZM672.6791,76.274c2.1719.6647,3.6088-1.0977,3.6794-2.269.0733-1.216-.7816-3.8886-1.7898-3.7536-1.2983.1738-2.8832,1.4815-3.1906,2.3492-.3071.8667.3788,3.3912,1.301,3.6734Z">
                </path>
                <path style="fill: #132448;"
                    d="M702.6716,93.5331c-.1339.4044-.9305,1.4923-1.4094,1.7709-.4812.2799-2.1012-.1412-2.5686-.6582-4.7838-5.2918-4.7439-14.573-.2487-14.8963,1.6061-.1155,4.1113,1.8533,3.5064,2.9775-1.7188,1.836-3.1693,3.153-2.9031,5.2947.2888,2.3236,1.5428,3.996,3.6233,5.5114Z">
                </path>
                <path style="fill: #a0683f;"
                    d="M494.6679,250.8116c-6.5151,2.4653-11.9266,8.4248-18.7367,10.3392,3.2994-4.7874,7.8564-9.7529,13.4812-12.3918.7606-.3568,3.2045-1.1618,3.6253-.5023l1.6303,2.5549Z">
                </path>
                <path style="fill: #a0683f;"
                    d="M443.9262,259.5703c-2.2619-1.9588-4.5463-4.4866-5.3806-7.309-.9278-3.1386.9267-6.952,4.0801-7.9898,1.598,5.202,1.9577,10.0161,1.3005,15.2988Z">
                </path>
                <path style="fill: #c5c5c5;"
                    d="M425.7132,325.6065c-3.2851-1.6629-4.7726-5.5895-2.2989-8.0865,1.7666,2.7531,2.4072,5.3861,2.2989,8.0865Z">
                </path>
                <path style="fill: #bf203c;"
                    d="M672.6791,76.274c-.9223-.2822-1.6082-2.8067-1.301-3.6734.3075-.8677,1.8924-2.1755,3.1906-2.3492,1.0082-.1349,1.8631,2.5376,1.7898,3.7536-.0706,1.1714-1.5074,2.9337-3.6794,2.269Z">
                </path>
                <g>
                    <path style="fill: none;"
                        d="M455.5211,291.4259l-1.6211-16.9109c-1.1275-.9501-2.8603-2.2819-4.0277-3.0995-3.9111,7.2556-2.9501,11.3138-7.1695,18.8621-3.8395,6.8687-11.5123,10.6407-19.1163,8.9557-7.0736-1.5676-12.4244-5.9391-16.8456-11.5597-1.0736-1.3648-2.5538-2.5164-3.9526-2.9031l-.4308,1.2729-.6989.0021c.1061.3124.4953.8095.7072,1.0939.0131.2477.0131.593.0745.7878l.2481.7878c2.8718,9.1183,15.7773,24.8811,28.7094,20.5288,3.4534-1.1623,6.7723-2.3021,9.6736-4.8965l14.4498-12.9214Z">
                    </path>
                    <path style="fill: none;"
                        d="M425.7132,325.6065c.1083-2.7004-.5323-5.3335-2.2989-8.0865-2.4737,2.497-.9862,6.4236,2.2989,8.0865Z">
                    </path>
                    <path style="fill: none;" d="M414.8,234.5177l1.9844-2.164c-.6779.692-1.3371,1.4184-1.9844,2.164Z">
                    </path>
                    <path style="fill: none;"
                        d="M438.5456,252.2613c.8343,2.8224,3.1187,5.3502,5.3806,7.309.6571-5.2827.2974-10.0967-1.3005-15.2988-3.1534,1.0379-5.0078,4.8512-4.0801,7.9898Z">
                    </path>
                    <path style="fill: #fff;"
                        d="M433.9715,228.12c11.5309-1.956,21.9517-3.1705,33.8959-3.7906,1.8505-.0961,3.473-2.4995,3.3953-3.8969-.0764-1.3731-2.0753-2.6963-3.9277-3.0421-12.0283-2.2457-24.0316-.3212-35.0844,4.9127-1.2011.5688-2.4386,2.6593-2.1643,3.6898.2744,1.0305,2.6899,2.33,3.8851,2.1272Z">
                    </path>
                    <path style="fill: #fff;"
                        d="M541.2749,316.2669l1.5488-1.369,7.414-.0106c1.1583-.0016,2.2006-1.5819,2.7722-2.6197.5692-1.0333,2.0638-3.2062,2.0084-4.451-.2012-4.5193-.7334-8.5065-2.4691-12.4037-1.955-4.3898-14.8031,5.9382-16.174,7.9846.7371,5.0161.9853,8.753,1.0493,12.9004.0596,3.8577,3.3636,7.8813.5378,12.1403l-3.0854-9.0654c-.3591-4.6149.6644-9.7205-.1248-14.3322l-17.0656,10.5413c.4479,2.718.9796,5.2935-.4965,7.9769l-1.4938-7.2356-13.1846,3.0508-.8062,6.832,8.6945.8571c15.0757,1.4861,29.5698,5.132,44.4653,10.9116,2.8886-4.566,2.9888-10.5089,1.2805-15.3693-2.5009-7.1155-11.5911-3.2534-14.8709-6.3385Z">
                    </path>
                    <path style="fill: #d4d4d4;"
                        d="M534.877,319.3728c-7.0803,3.0588-14.8648,5.2352-22.7634,6.5795-.5108.0869-1.8219.971-1.7136,1.1108l-8.6945-.8571.8062-6.832,13.1846-3.0508,1.4938,7.2356c1.4761-2.6835.9445-5.2589.4966-7.977l17.0656-10.5413c.7892,4.6117-.2343,9.7174.1247,14.3322Z">
                    </path>
                    <path style="fill: #d4d4d4;"
                        d="M553.0098,312.2677c-3.3258.1345-7.1342,1.1301-10.1862,2.6303l-1.5488,1.3689-3.8503.031c-.064-4.1474-.3123-7.8842-1.0493-12.9004,1.3708-2.0464,14.2189-12.3744,16.1739-7.9846,1.7356,3.8973,2.2678,7.8844,2.4691,12.4038.0554,1.2449-1.4392,3.4177-2.0083,4.451Z">
                    </path>
                    <path style="fill: #fff;"
                        d="M567.2484,319.0724c-3.1729-.3632-5.3724-.7322-8.1866-2.8536,3.5346-3.0453,6.8903-3.059,11.1835-3.7661-2.9116-6.912-6.4377-13.5933-14.6402-16.2203.4797,8.2881,5.4774,7.3936,1.4661,18.9101-1.7118,4.9145,7.7507,10.4505,2.1684,23.8616l8.9398,2.7003c1.7498.5285,5.579-.7219,5.877-2.9286.9168-6.7898.3796-18.8806-6.8079-19.7034Z">
                    </path>
                    <path style="fill: #fff;"
                        d="M464.7235,318.6428c.2985,10.8098,2.1384,23.6412,3.4564,33.3211.1088.7993-.3824,2.1569-.489,2.5238-1.8431,6.3463-8.6031-26.2115-8.7987-34.4098l-.4531-18.991-19.2717,14.3106c.1179,2.4182.566,5.4566,1.1308,7.8669,1.5906,8.9468,3.6926,17.7792,6.4984,26.8281,1.0296,3.3207,3.2628,7.0652,6.313,8.5614,3.9174,1.9216,8.8974,2.8128,13.0433,1.9783,2.4672-.4966,3.3005-.2382,5.6719.485,5.9057,1.8011,12.6099.6943,18.4705-1.0802l1.4631-22.5852,2.7469-19.7051c-11.8824-2.4266-21.4703-6.882-29.8638-15.4219-.5851,5.769-.0712,10.7743.0819,16.3179Z">
                    </path>
                    <path style="fill: #d4d4d4;"
                        d="M458.8922,320.078c-9.0632,4.2147-8.4269,4.7633-18.594,3.1865-.5647-2.4103-1.0129-5.4487-1.1308-7.8669l19.2718-14.3106.4531,18.9909Z">
                    </path>
                    <path style="fill: #d4d4d4;"
                        d="M491.7584,337.4519c-2.1776,2.4616-2.3972,5.7549-4.0806,9.9005l-1.9394-15.8744c-5.9321-2.7847-11.9455-5.4403-16.8016-9.7998-1.4671-1.3171-2.797-2.3257-4.2132-3.0353-.1531-5.5436-.667-10.5489-.0819-16.318,8.3935,8.5399,17.9814,12.9953,29.8638,15.4219l-2.747,19.7051Z">
                    </path>
                    <path style="fill: #132448;"
                        d="M556.1298,287.4837c5.5154-1.2548,10.6356.1054,15.6058,2.1115,6.3701,2.571,10.8033,7.6049,17.1483,11.2388-6.012-10.8828-16.9046-17.7793-28.742-18.782-7.1758-.6078-13.6957,2.974-19.1187,7.3115-12.3159,9.8508-29.736,24.9467-46.132,20.4816-12.9111-3.5161-24.3541-10.3518-33.5739-20.2584-1.1841-4.1295-1.874-9.979-2.2728-14.2658-.0594-.6389,1.2378-1.3503,1.7086-1.6349,4.2153-2.5478,12.0686-8.0237,15.1779-12.5352,3.2994-4.7874,7.8564-9.7529,13.4812-12.3918.7606-.3569,3.2045-1.1618,3.6252-.5023l1.6302,2.5549c9.0527-3.4255,14.3568-11.8834,13.2156-22.0328-1.459-3.4343-4.4702-6.9243-7.8275-9.1446-16.2433-10.7426-35.7477-14.1895-54.7283-10.2964-7.034,1.4427-12.8313,4.105-18.5895,8.2057-3.7788,2.691-5.8124,6.8058-8.8552,10.0519-3.5182,3.7534-8.6219,5.9169-11.6088,10.4572-12.6142,19.1746-16.6043,39.9504-6.1385,61.1479,3.7157,7.5258,9.9278,12.7368,17.2785,16.3939-.0006,3.9991.1761,8.4471,3.0248,11.173,3.5393,3.3866,8.7275,2.9004,13.7073,2.8367,3.463,10.9971,6.1305,26.9667,14.1005,34.7814,9.8315,5.8337,37.8917,7.5048,47.3245.5935,1.7018-4.2729,2.7855-8.9338,3.3757-13.7988l2.0652-17.0217c21.803.3743,38.0725,5.9803,58.0284,12.9136,8.6907,3.0194,23.1619,4.265,27.3652-6.1562,5.663-14.0402-3.6768-31.4255-13.0674-41.71-4.8693-5.3327-10.5486-8.6906-17.2087-11.7222ZM432.2506,222.303c11.0527-5.2339,23.056-7.1583,35.0844-4.9127,1.8524.3458,3.8513,1.669,3.9277,3.0421.0778,1.3975-1.5447,3.8008-3.3953,3.8969-11.9443.6201-22.365,1.8346-33.8959,3.7906-1.1952.2028-3.6108-1.0967-3.8851-2.1272-.2743-1.0305.9632-3.121,2.1643-3.6898ZM443.9262,259.5703c-2.2619-1.9587-4.5463-4.4866-5.3806-7.309-.9277-3.1386.9267-6.9519,4.0801-7.9898,1.598,5.202,1.9576,10.0161,1.3005,15.2988ZM425.7132,325.6065c-3.2851-1.6629-4.7726-5.5895-2.2989-8.0865,1.7666,2.7531,2.4072,5.3861,2.2989,8.0865ZM431.3977,309.2439c-12.932,4.3523-25.8376-11.4105-28.7094-20.5288l-.2481-.7878c-.0614-.1949-.0614-.5401-.0745-.7878-.2119-.2844-.6011-.7815-.7072-1.0939l-4.7473-12.6457,6.9177-26.9176,10.971-11.9645c.6473-.7456,1.3065-1.472,1.9844-2.164l1.4749,6.7104c2.9607,4.5088,6.3967,8.5758,10.938,11.9887,8.5525,6.4273,9.7939,12.7415,20.675,20.3626,1.1674.8177,2.9002,2.1494,4.0277,3.0995l1.6211,16.9109-14.4498,12.9214c-2.9013,2.5944-6.2202,3.7342-9.6736,4.8965ZM491.7584,337.4519l-1.4631,22.5852c-5.8606,1.7745-12.5648,2.8813-18.4705,1.0802-2.3714-.7233-3.2048-.9816-5.6719-.485-4.1459.8345-9.1259-.0566-13.0433-1.9783-3.0502-1.4962-5.2834-5.2407-6.313-8.5614-2.8058-9.049-4.9077-17.8813-6.4984-26.8281-.5648-2.4103-1.0129-5.4487-1.1308-7.8669l19.2717-14.3106.4531,18.991c.1956,8.1983,6.9556,40.7561,8.7987,34.4098.1066-.3669.5978-1.7245.489-2.5238-1.318-9.6799-3.158-22.5114-3.4564-33.3211-.1531-5.5436-.667-10.5489-.0819-16.3179,8.3935,8.5399,17.9814,12.9952,29.8638,15.4219l-2.7469,19.7051ZM554.8653,337.9747c-14.8954-5.7795-29.3895-9.4254-44.4653-10.9116l-8.6945-.8571.8062-6.832,13.1846-3.0508,1.4938,7.2356c1.4761-2.6835.9445-5.2589.4965-7.9769l17.0656-10.5413c.7892,4.6117-.2343,9.7173.1248,14.3322l3.0854,9.0654c2.8257-4.259-.4783-8.2826-.5378-12.1403-.064-4.1474-.3123-7.8843-1.0493-12.9004,1.3708-2.0464,14.2189-12.3744,16.174-7.9846,1.7357,3.8973,2.2678,7.8844,2.4691,12.4037.0554,1.2449-1.4392,3.4177-2.0084,4.451-.5716,1.0378-1.6139,2.618-2.7722,2.6197l-7.414.0106-1.5488,1.369c3.2798,3.0851,12.37-.777,14.8709,6.3385,1.7083,4.8604,1.6081,10.8032-1.2805,15.3693ZM574.0562,338.7758c-.298,2.2068-4.1271,3.4572-5.877,2.9286l-8.9398-2.7003c5.5823-13.4111-3.8802-18.9471-2.1684-23.8616,4.0114-11.5165-.9863-10.6219-1.4661-18.9101,8.2025,2.6271,11.7286,9.3083,14.6402,16.2203-4.2932.7071-7.6489.7208-11.1835,3.7661,2.8143,2.1213,5.0137,2.4904,8.1866,2.8536,7.1874.8228,7.7247,12.9136,6.8079,19.7034Z">
                    </path>
                    <path style="fill: #c49669;"
                        d="M406.741,287.6736c4.4211,5.6205,9.772,9.9921,16.8456,11.5597,7.604,1.6851,15.2768-2.087,19.1163-8.9557,4.2194-7.5483,3.2584-11.6065,7.1695-18.8621-10.8811-7.6211-12.1226-13.9353-20.675-20.3626-4.5414-3.4129-7.9774-7.4799-10.938-11.9887l-15.4708,45.7064c1.3987.3867,2.879,1.5383,3.9526,2.9031Z">
                    </path>
                    <path style="fill: #b17c4f;"
                        d="M453.9,274.515c-1.1275-.9501-2.8603-2.2819-4.0277-3.0995-3.9111,7.2556-2.9501,11.3138-7.1695,18.8621-3.8395,6.8687-11.5123,10.6407-19.1163,8.9557-7.0736-1.5676-12.4244-5.9391-16.8456-11.5597-1.0736-1.3648-2.5538-2.5164-3.9526-2.9031h0c-.0663-.0183-.1334-.0441-.1993-.0588-1.3182-10.7816,1.1938-21.4194,6.07-31.4565,2.6005-5.3527,4.9935-10.9742,9.6001-14.191l-1.4749-6.7104-1.9844,2.164c-11.8748,13.6791-18.4278,35.9626-13.1414,51.5278.1061.3124.4953.8095.7072,1.0939.0131.2477.0131.593.0745.7878l.2481.7878c2.8718,9.1183,15.7773,24.8811,28.7094,20.5288,3.4534-1.1623,6.7723-2.3021,9.6736-4.8965l14.4498-12.9214-1.6211-16.9109Z">
                    </path>
                    <path style="fill: #132448;"
                        d="M414.8,234.5177l-10.971,11.9645-6.9177,26.9176,4.7473,12.6457c-5.2864-15.5652,1.2666-37.8487,13.1414-51.5278Z">
                    </path>
                    <path style="fill: #c49669;"
                        d="M408.6591,253.2552c-4.8762,10.037-7.3882,20.6749-6.07,31.4565.0659.0148.1329.0405.1993.0588l15.4708-45.7064c-4.6066,3.2169-6.9996,8.8383-9.6001,14.191Z">
                    </path>
                </g>
            </g>
        </g>
    </g>
</svg>