<?xml version="1.0" encoding="UTF-8"?>
<svg id="uuid-68b48c4b-e13f-4da2-a2c4-68fb0bdb1ad4" data-name="Layer 4" xmlns="http://www.w3.org/2000/svg" viewBox="0 0 1017 1017">
  <g id="uuid-f7960a28-67cd-45aa-b48e-cbd020330945" data-name="a8bH7j">
    <g>
      <path d="M225.5814,471.4971l-2.135-17.8627c-7.1813-1.2637-12.9902-1.8516-19.8482-4.6542-32.8394-13.4198-63.1604-57.7928-73.0506-90.9494-3.3511-11.2345-7.8555-38.903,8.5981-41.4693,13.1898-2.0572,38.3744,8.264,53.2498,10.6214,21.503,3.4077,43.7085,1.9335,64.1648,10.825-4.5412-7.0185-11.795-11.831-18.6674-16.3223-25.698-16.7943-55.297-26.7572-80.2081-45.7919-54.8442-41.9066-73.1797-113.4536-34.519-173.3123,11.4046-17.6579,43.0319-54.5896,64.9346-56.084,15.3513-1.0474,21.242,16.0193,16.3879,28.4056-5.1241,13.0754-18.8403,28.6946-25.0882,42.9127-11.9995,27.3065-14.1446,65.6443,10.1706,86.6803,2.8605-20.5421,8.5776-44.1545,22.0404-60.4693,6.3073-7.6434,22.6904-21.3975,32.5805-22.417,19.8326-2.0443,20.7765,15.9381,16.6693,30.6668-1.4549,5.2172-4.4711,9.641-6.2946,14.7054-6.3984,17.7696-8.1305,35.0715-5.8557,53.8861,2.4197,20.0133,13.5103,37.578,28.3998,50.6081l17.4569-18.4931c5.0978-6.0933,16.0311-10.0524,21.0208-14.9792,3.7719-3.7244,8.0419-15.4772,11.1882-20.8118,33.3008-56.4634,80.1521-101.5858,140.1286-128.8714,61.8591-28.142,107.8245-30.5618,156.1905,22.1626,10.8936,11.8753,42.0924,55.2873,58.0569,54.9952,1.2941-.0237,1.8498-.4434,2.2472-1.6665,1.908-5.8725.913-16.3463-.0924-22.5403-1.5815-9.7429-8.2782-20.6543,1.9197-28.6291,17.3781-13.5898,38.6139,7.1832,44.3936,23.3158,7.166,20.0021,6.6546,42.8136,9.9731,63.5365,23.6796-26.6163,28.682-59.836,21.6743-94.184-2.7748-13.6005-13.936-37.9283-11.4612-50.0876,3.2955-16.1917,22.1776-13.002,32.6818-6.1329,23.4902,15.3612,42.3428,55.8605,45.9652,83.0348,6.815,51.1244-13.7796,87.9818-43.3788,126.3651-.7739,1.0036-1.9367,1.2715-1.4886,3.0018,4.7474,1.1198,8.1575.5285,12.7763-.7163,11.1676-3.0098,17.2048-10.9777,29.6288-9.1861,13.019,1.8774,12.5759,18.8471,9.3691,28.1868-9.6843,28.2056-32.088,45.9655-62.2395,47.7528-11.9633.7091-32.5803-6.46-39.8388-16.2945-5.0003-6.7748-2.3659-11.317-13.9352-7.4719-6.328,2.1031-21.8108,12.7131-28.082,16.9182-4.61,3.0913-28.2922,19.4153-28.7007,23.3435-.1261,1.2131,2.8149,12.3337,3.5395,12.4758,14.5083-6.3993,28.9095-13.8599,44.4675-17.513,23.5257-5.524,49.3864-5.4213,73.3681-8.6319,17.8072-2.3839,44.3017-11.3733,61.0776-8.7934,12.1649,1.8708,13.6312,17.4617,12.3055,27.1763-4.1246,30.2247-27.1634,76.7011-47.7143,99.2859-33.1198,36.3977-93.6824,51.8254-139.0213,30.4781-.6279.6988,1.1554,17.4961,1.9252,18.5645,20.6561,14.2233,45.1366,24.984,59.4836,46.5164,6.9404,10.4163,12.9869,25.305,15.4293,37.5888.5283,2.6569-5.6558,1.1035-6.8958.8769-14.4029-2.6316-30.0225-10.9526-44.9277-13.0613,12.4496,15.733,23.0156,33.8848,25.8636,54.1262,2.1525,15.298,1.1133,36.2015-2.5588,51.2085-7.7428,31.6429-15.4764,4.3318-25.3518-6.2979-.9502-1.0227-4.6476-5.4973-5.9628-4.5221-3.7532,29.4521-21.5901,55.0647-40.4964,77.009-17.1251,19.8768-38.007,36.5654-51.6855,59.3145-20.025,33.3043-36.5278,64.3938-73.617,82.383-2.3927,1.1605-13.6801,4.7593-14.209,5.3027-1.7238,1.7712,3.1534,3.0125,4.0397,3.4258,6.3396,2.9563,13.0838,5.2956,19.9542,6.5714,2.0222,2.7695-13.6,13.9053-16.0761,15.4089-28.228,17.1418-63.0485,15.3916-92.9147,3.5845-1.4132,1.4072,13.8283,21.723,2.5011,22.0826-38.3039-6.1572-77.2058-31.9474-89.0025-70.0915-2.8671-9.2706-4.1226-19.0301-6.5978-28.4022-30.0976-14.4159-61.0347-36.1556-57.8901-74.0777,2.0074-24.2076,30.2639-37.7931,52.2402-30.2724,4.1268,1.4123,12.6357,7.2003,15.3769,7.4751,2.0168.2022,5.9104-1.5724,8.8311-1.7532,5.5038-.3407,14.0728,1.8044,18.0343,1.0457,4.7917-.9177,5.667-14.3491,5.5517-18.5382-.6463-23.4803-21.3882-41.5882-31.0634-61.4651l-7.1303,16.349c-6.6482,16.4611-22.2747,27.7747-40.3521,27.7213-5.7022-.0168-11.9678-3.5897-17.2698-3.8201-10.3566-.4501-21.8935,2.6639-32.4558-.537-22.6314-6.8585-34.8518-34.8355-38.7533-56.2467-27.5532-8.8276-49.8358-21.4141-60.0493-49.9507-7.4557-20.8314-6.7605-39.279,6.6075-57.4396,1.3214-1.7951,5.9116-5.3488,6.1732-6.6952.476-2.4501-2.2083-11.8581-1.795-16.9351,1.5804-19.4172,27.3761-43.4537,46.538-43.4537h23.5Z" style="fill: #011700;"/>
      <g>
        <g>
          <path d="M425.5814,357.4971l-4.5045,20.9954c6.5489-8.2393,14.5784-15.5508,22.4904-22.5095,29.6578-26.0846,64.6032-53.6051,97.526-14.4978,11.5339,13.7005,13.17,28.4491,21.2799,42.7202,2.0025,3.5238,5.4419,5.8826,7.2195,9.2829,1.9079.2456.5289-1.8128.3118-2.8062-1.4181-6.4892-4.5076-12.5946-4.3231-19.1851,1.7511-.4242,3.1183,1.124,4.1018,4.6448,12.0253,7.3061,24.8369,13.403,38.4347,18.2905l8.8846,5.7694,1.5788-.7047c1.406,1.0135,5.1187.9995,6.4837,4.0166,1.5134,3.345.3727,12.8785,2.4063,18.5952,1.8753,5.2717,2.7067-3.8779,3.4018-5.8226,7.8794-22.0453,51.9634-48.3092,73.4578-56.5395,33.0967-12.6729,62.5471-7.3376,96.4753-12.5247,13.7157-2.0969,27.1417-6.5544,40.7717-8.718-.6214,1.9735-.719,3.9646-.9966,5.9931l-2.1505,3.1994c-9.6733,51.1966-38.7157,91.6255-84.7644,113.2348l-.0851,2.5658c-25.0851,11.0083-59.1604,8.9493-83.0169-4.4831-1.5952-.8982-9.1545-4.4458-5.2968-6.3309,3.944-1.9273,9.8963-2.4059,14.3137-3.186,1.5618,1.1485,2.7642,3.0446,3.6073,5.6883,23.9359,12.0346,51.4958-1.453,72.5973-14.3223,23.1894-14.1426,48.0992-32.7298,55.6826-59.9315-8.7382,4.8717-18.2403,8.2363-28.5062,10.0939l-2.3809-1.5284c7.3767-5.1332,15.6142-9.5434,20.9999-16.9899-9.5169,1.2492-18.8865,4.3174-28.5103,4.9795-18.7407,1.2893-31.3862-1.4842-49.5295,7.4705-22.7123,11.2099-32.2657,34.2793-50.4898,49.5102-10.2096,8.5327-21.6355,12.8562-34.4629,16.0422l7.4794,4.0005c5.8085,6.2959,6.6914,14.8063,7.5062,22.9836-6.5747-1.7544-13.6597-.5633-20.3731.1232-5.8182.595-14.3365,1.5939-19.839,3.1589-1.7723.5041-9.9069,3.4198-5.3258,4.7508,14.5641,4.2316,26.1949,9.4189,39.5662,16.4491,26.649,14.0111,53.7993,31.6394,72.9735,55.0264-4.8661.007-10.6272-2.1442-15.8036-3.1963-15.4869-3.148-30.3695-4.8086-46.1863-5.3034-.804.6838,3.3287,5.3904,3.995,5.9947.6623,3.2271,1.8426,6.3744,3.5409,9.4419,19.4316,22.2358,31.572,48.2118,37.5048,76.1903l-4.7843-28.8849,1.7386-1.7473c5.111,15.5975,7.3694,32.608,6.9898,48.995l-7.0165-9.4683c-8.4718-10.0873-19.7115-16.7933-29.9733-24.5266-2.8827.5499-5.7853-1.2603-8.7078-5.4308-2.4301,11.5016-4.3857,23.1605-5.8668,34.9765l-23.1574,69.0394-5.268,9.4149c-.5983.7028-1.0596,1.917-2,3-2.4586,1.7916-3.2918-.5792-3.0909-3.0763,2.5757-12.6868,4.7588-25.4702,6.5495-38.3502l-1.4586-.5735c.3576-5.3728,1.6837-11.1477,2.0402-16.4631.0717-1.0688.6878-4.7202-1.0276-4.5295-4.9484,14.9307-11.2426,29.3853-17.0125,43.9926l-1.5312,1.2655c-11.4713,23.7347-23.3355,48.25-35.5926,73.5459-21.3668,41.4969-63.9086,65.0868-103.8762,84.1886-.4372.3666-2.584-.9768-1.9916,1.4865,8.4383,9.8118,17.7967,16.8485,27.9916,24.5135.3047.842.5161,1.8013.0331,2.5206-.6526.9721-7.7641,1.9781-9.2936,2.1439-27.0053,2.9276-55.2803-5.8705-79.7396-16.6646l-13.9961-7.9936c.9264,3.6277,1.0487,7.3648,1.9961,10.9936l.5615,5.7858c5.1403,8.9426-4.3351,8.8823-7.5327,1.465-5.0799-3.671-25.4098-25.6627-24.0329-30.6813.602-2.1941,1.0649-3.6421,3.6115-3.2692,25.3958,4.3489,53.7719.5486,72.3003-18.6725l2.0922-.6279c51.0856-.8035,80.5021-22.6489,107.8165-63.6835,29.1692-43.821,50.784-105.0792,47.1835-158.3165.5864-12.4386-1.3133-25.0599-5.6992-37.8637-2.3614-7.7578-1.4616-11.4699,2.6992-11.1363,4.087,4.1263,8.7128,8.0503,12.99,11.9998-5.6293-26.1938-35.1989-58.451-62.5061-60.9837-30.4189-2.8213-68.6669,21.9076-90.9575,41.0102-12.8518,11.0138-23.7631,24.0637-37.5264,33.9736l-.3676-2.5794c3.1554-3.8297,5.835-8.1752,7.5549-12.8339-37.5261,31.7082-86.8495,47.3888-135.6543,47.3925l.4669,2.0208c-13.3528-1.9027-27.383-7.2689-39.6792-12.8208-3.6974-1.6694-7.1685-4.8989-11.3208-6.1792-1.5661,1.4565-3.9563,2.0023-7.1706,1.6375-23.1338,6.9697-47.1571-2.5067-62.8294-19.6375l-2-1c-7.1183-13.3514-11.6811-35.2104-1.8544-48.3544,12.1281-16.2223,21.7523,13.4232,27.4193,21.2895,21.3752,29.6708,66.2218,30.4133,71.4411-10.9404,23.0421,6.7603,55.5139,13.255,70.4115-11.0773,4.8105-7.857,5.4854-13.1251,3.2922-22.1264-.8109-3.328-5.4204-11.6485-5.5884-13.4716-.2436-2.6434,7.2365-4.6389,9.3305-4.349,3.3008.457,3.2813,4.3121,5.2233,4.9321,1.6612.5303,4.5972-.9118,6.7806-.9453,9.355-.1436,13.458,1.3281,21.5648,5.5223,9.2675,4.7947,20.015,16.8885,9.4157-2.4157-9.2487-11.578-22.7393-14.7156-36.4323-18.0745l34.5155-49.966,15.0432,1.9141c1.7055,7.7227,1.98,16.5146,3.9062,24.0938,5.7043,22.445,25.559,38.0607,44.1005,49.9666,1.4104,2.2264-8.3559,16.1663-7.5642,16.997l13.4671-10.0227c33.6592-25.5398,86.5418-32.432,125.2016-15.1459,3.2199,1.4397,17.4538,10.5637,19.3261,9.1637-4.341-7.869-11.0756-14.8364-18.0812-20.4086-2.2707-1.8061-10.9749-6.2678-11.0143-8.0591,1.2842-4.9029,4.5933-8.8242,6.5633-13.5545,7.2294-17.3589,9.2973-36.2496,8.5375-54.9627,1.111-1.2815,11.9264,9.2523,14.9897,7.9899,1.7936-18.3204-7.8938-28.2979-23.7322-34.7576-5.9309-2.4189-16.1052-5.7857-22.2628-7.2372l-2.6194-1.9887c-11.4549-41.4164-68.7596-47.5785-80.3806-3.0113-8.2502,2.6405-20.2715,2.6994-29.4257,5.0743-13.2623,3.4405-23.0478,12.9195-36.579,11.9305-1.5609-1.5591,3.411-25.9063,1.5098-29.9997-4.6881,6.4664-10.9108,13.2039-15.1336,19.8663-1.9366,3.0554-4.6626,10.6885-5.8636,12.1352-1.7557,2.1148-6.9126.783-9.3513.3343-9.3998-1.7294-20.2979-6.4883-30.1427-8.8547-27.4438-6.5967-54.1211-8.4412-82.358-7.6387-.7598-.2132-1.3541-.7002-1.5762-1.4727-.8939-3.1102,6.1858-17.1609,8.1152-20.6801,1.2689-2.3144,8.0382-13.4941,9.2651-14.7349,6.6466-6.7222,30.5818-3.8949,39.078-.9978,13.9785,4.7665,24.3725,20.0131,39.1308,22.8869,3.8791.7554-2.0658-7.3615-1.6687-8.849-1.7705-1.6958-.0715-2.1358,5.097-1.3198,20.9767-7.2063,41.1137-12.0307,64.3717-10.9544.7583.0351,1.5101.3952,2.2908.787.7953.3992,1.527.9251,2.2405,1.4872Z" style="fill: #b8691a;"/>
          <path d="M229.5814,575.4971c-11.3924.63-21.9226-9.011-27.1686-18.3314-4.3351-7.7021-6.2214-15.314-12.8428-22.1572-2.7532-2.8454-13.5925-8.5191-13.9925-9.2565-2.3741-4.3762-.4825-13.0029,1.23-17.5287,3.1921-8.436,10.7109-14.9849,19.2217-17.7782,13.0578-4.2857,49.7411-.3355,63.8085,3.1157,4.4484,1.0913,11.2227,2.6751,16.9593,4.2207,14.0558,3.7872,29.4252,9.1697,38.7843,20.7156,2.2773,5.8591-7.534,9.8084-12.8545,8.7659-13.532-3.369-27.7727-.0954-41.1908,3.2529-10.8956,2.7189-19.2612,5.2957-22.6548,17.3198.4419,11.1309-4.7252,17.4567-14.459,21.7206,2.9708,1.7764,4.6905,3.7567,5.159,5.9408Z" style="fill: #d21f07;"/>
          <path d="M780.5814,389.4971c6.9019-1.4472,16.3669-4.0674,22.9832-6.5168,2.9782-1.1026,11.5372-8.3206,9.7782-1.2245-8.2659,33.3458-51.5121,60.0427-80.517,73.4857-12.3798,5.7377-28.2508,8.1556-41.6841,5.1954-6.8262-1.5042-11.8213-2.9436-11.5602-10.9398,19.7519-3.4883,38.5895-6.3113,56.9926-15.0126.0714-1.4811-3.5406-1.7375-4.6071-1.8723-9.3328-1.1799-18.9812-1.644-28.3803-2.1202-1.5549-1.5062,6.5525-10.89,7.9681-12.5217,22.0926-25.4639,39.0875-22.1954,69.0267-28.4733Z" style="fill: #964b0a;"/>
          <path d="M542.5866,416.5021c-.2598,1.9776,1.5827,2.585,1.9748,4.5259.8647,4.2804-1.2016,9.8108-3.5416,13.4074-18.5856,19.6879-36.9965,39.8186-56.938,58.0728l49.5063-75.4892c-.3508-1.5838-11.5075-3.8594-13.7757-4.2531-22.124-3.8403-64.924-3.175-84.9098,7.5649-4.0379,2.1699-10.1747,9.43-11.0942,13.8933-2.3114,11.2212.0482,34.1824,4.5954,44.9503,3.5639,8.4393,10.9072,14.0468,14.1724,22.3174-1.8662,1.8941-16.4288-13.4838-17.8328-15.657-7.7724-12.0302-13.7575-42.7867-10.9326-56.6085,1.0158-4.9703,9.9122-14.1712,14.4482-16.5518,9.0509-4.7502,30.2459-7.2553,40.8326-8.1674,21.7786-1.8764,49.2257-.1733,70.6945,4.285,8.1829,1.6993,24.5987,4.9557,26.5637,14.4322,1.2746,6.1469-3.7376,28.7462-5.6401,35.9009-1.7149,6.4492-8.5207,26.7385-14.383,29.6228-1.8295.9002-3.8574.835-3.6285-1.6038.0858-.914,7.7259-12.8307,9.0634-15.9671,4.311-10.1086,9.7391-29.801,5.7179-40.0786-1.1011-2.8143-12.5479-16.8881-14.8931-14.5967Z" style="fill: #17772a;"/>
          <path d="M240.5814,351.4971l-2.6485,2.5745c-12.3728,2.7651-25.7881,6.1913-34.3515,15.4255-.6622-.0414-1.3364.0318-2,0-.3959-.4642-.7292-.4642-1,0-5.3951-.1916-13.4093-.6117-18.5484-.0484-5.0519.5538-2.623,3.5889.3108,6.0666,7.8144,6.5994,20.7576,7.3017,30.2375,9.9818,3.7592,2.2077-1.1208,8.8353-3.8701,11.4239-15.3981,14.4979-37.2819-.5668-46.9657-14.4822l-1.1641,1.0583c-8.7514-14.4743-15.8764-30.9032-17.0029-48.0027,12.4236,1.5097,24.2908,6.5982,36.7947,8.7109,19.7762,3.3414,40.8556,2.0244,60.2082,7.2918Z" style="fill: #b8691a;"/>
          <path d="M442.5814,846.4971c-.0359,1.9739-1.212,2.8109-2.5119,3.9862-20.6414,18.6632-46.8162,21.5549-73.483,17.019-.2805,1.4362.2571,2.4539.7826,3.7076,3.6714,8.7589,15.271,20.6804,22.2644,26.7351,2.1439,1.8561,3.7654,8.1007,6.9393,4.036.6928-1.8684-1.9059-1.296-2.0511-2.1064-.2832-1.5809.7366-3.3237,1.0766-4.864l-3.0182-.5166,3.0012-1.9969c1.8836,7.2145,5.6521,13.9438,7.9952,20.9945-11.7005-1.209-21.9126-9.4413-29.5094-17.9803-12.4985-14.0486-24.1388-33.9344-25.4759-53.0138,11.9113,2.3571,25.3255,3.9684,37.474,2.9835,4.9367-.4002,11.5891-2.968,16.016-2.9694,12.1683-.0038,25.9272,4.2147,40.5001,3.9854Z" style="fill: #964b0a;"/>
          <path d="M355.5689,456.4896c-1.6593.2706-1.0738-2.4239-1.0333-3.5288.5455-14.8631,4.266-24.5444-13.9491-30.4586.6669,4.5227,2.0826,7.8935-.1436,12.3571-2.9266,5.8678-16.9664,16.5543-22.3756,22.6236-7.0477,7.9078-12.4098,17.15-19.4757,25.014.3755-10.0701,4.9139-19.302,9.4684-28.0213,5.8112-11.1251,13.1871-22.901,21.8581-31.8961.6265-.6499,1.2277-1.4766.6643-2.0732-1.421-1.5047-30.4338-5.8856-34.4598-6.0508-7.8402-.3218-26.2314.6133-33.0855,3.9973-15.0498,7.4305-14.0615,37.9013-12.4611,52.0393-1.957,2.3246-6.9051-10.086-7.2748-11.2149-7.0334-21.4745,1.3171-35.1753,13.9895-51.7952,8.3556.4281,16.4777-1.1006,24.8321-1.026,18.2175.1626,58.1558,3.9743,73.3759,13.6238,15.4541,9.7979,4.9507,23.5865.0702,36.4099Z" style="fill: #17772a;"/>
          <path d="M441.5814,825.4971c-.2369-.4479-.58-.4024-1,0-1.4917.0938-2.3564.4553-1.9953-1.4899,7.5865-3.3672,28.8692-34.4396,33.6374-35.3476,5.8499-1.114,13.5636,11.5244,16.1131,15.5509.515.8134.6956,2.7524,2.2419,1.279.4118-.3924-.1953-9.0688.1225-11.3763,3.2813-23.8289,23.4055-28.0617,36.8147-8.9822-15.4454,26.666-45.5455,46.3213-77.3099,43.241-2.5624-.2485-6.8198-.8247-8.6244-2.875Z" style="fill: #faefbf;"/>
          <path d="M611.5814,716.4971c-12.1311,30.7113-26.0165,68.3264-43.1921,96.3079-17.4045,28.3543-53.1495,61.273-87.8079,62.6921-2.2478-.798-4.7551-.8381-7,0h-3c8.7244-7.3148,24.7485-14.278,34.9641-20.5359,17.2472-10.5653,32.4737-20.3259,46.5498-35.4502,26.4114-28.378,36.674-68.7267,56.2682-101.7319.9699-1.6337,1.2145-2.9726,3.2179-1.282Z" style="fill: #964b0a;"/>
          <path d="M160.5814,383.4971c-.1581-.5029-1.677-5.3162-.0113-4.9912,11.6319,15.1364,33.5642,33.6393,50.0381,13.5226l1.9732-6.5314c9.3218,2.6354,19.5854,4.8327,26.9801,11.5003-13.7777,6.9926-27.1068,16.4004-26.9699,33.4995.448.621,11.0918-9.6138,13.2797-4.7827,4.6838,10.3428-10.4654,8.0755-16.4998,6.4927-17.7252-4.6492-43.3905-31.5366-48.79-48.7099Z" style="fill: #964b0a;"/>
          <path d="M627.5814,732.4971l26.502-78.998c3.2986-12.169,1.6774-25.3741,6.5122-36.9991,1.4605-1.0551,5.1947,3.9977,6.4958,5.0257,1.2795,1.0109,3.2583,2.7967,3.4899,2.9713-2.171,3.7479.6991,9.3793.9839,13.5162,2.6722,38.8071-20.613,67.0296-43.9839,94.4838Z" style="fill: #964b0a;"/>
          <path d="M261.5868,645.502c15.032,4.8009,29.5363,9.0573,45.4532,10.0364,2.5489.1568,12.0319-.9423,12.5507-.588,2.0169,1.3776-.1305,8.085-.7289,10.3267-4.2568,15.9467-12.9587,25.9035-30.7156,23.156-12.0078-1.858-27.0774-30.9933-26.5594-42.9311Z" style="fill: #faefbf;"/>
          <path d="M549.5814,393.4971c-9.3189-2.1967-22.8653-4.0191-32.5054-4.9946-8.0612-.8157-16.3893-.978-24.4943-1.0154,8.6286-11.3204,24.2665-10.3366,36.9947-9.0002l-10.6228-7.862c-13.0464-5.2664-27.2337-4.5497-38.384,4.3605-4.1309,3.301-10.1634,12.2876-13.9883,13.5117-3.5352-1.1811-.9909-5.1381.1811-7.3212,12.6734-23.6058,30.9025-32.1593,56.4853-20.8453,14.8452,6.5653,22.3301,17.6125,26.3336,33.1664Z" style="fill: #964b0a;"/>
          <path d="M315.5814,518.4971c.8139,1.0041,2.1795,1.1496,3.2136,3.2786,3.8715,7.9703.7504,18.0583-5.867,23.568-4.4556,3.7098-17.3329,7.8123-22.6854,5.9837-5.2823-1.8046-1.5869-11.2823,1.4397-14.2296,2.0401-1.9867,5.3684-2.5107,6.8941-4.5906-4.3827.0645-5.8025-2.6172-10.4478-3.0582-16.0041-1.5194-36.1062,6.2736-41.8283,22.267-3.8817,10.8495-1.2602,22.9261-16.719,23.781-14.3101-7.4659-4.5451-7.2672,1.3453-12.1547,8.4253-6.9909,3.7494-13.2104,7.4306-20.566.2699-.5393,7.3534-8.813,7.8481-9.1579,6.0625-4.2258,34.7842-9.4025,43.001-9.9875,10.3744-.7386,19.3496,7.0044,26.375-5.1339Z" style="fill: #a41501;"/>
          <path d="M416.5814,601.4971c-.3256.3424-.6541.6778-1,1-2.5277,1.375-4.947,2.9687-7,5-.2502.1424-.7398-.1399-1,0l-8,5c-1.0595.4894-2.23.6355-3,1-5.2573,3.6291-10.924,6.6291-17,9-22.4421,11.1046-67.4225,21.3609-91,13-2.5389-.9003-6.0831-1.8943-7.9997-3.99,52.5219,1.6677,108.9789-15.7561,147.5095-51.99-1.6268,7.3733-6.2792,16.4792-11.5098,21.98Z" style="fill: #964b0a;"/>
          <path d="M258.5814,645.4971c.0173,5.7177-.7058,11.6102.1032,17.3962.5817,4.1608,6.3735,20.1845,5.8263,21.9867-.5383,1.7731-6.5948,2.6713-8.4345,2.693-17.5397.207-31.3387-24.4114-31.5012-40.0755,3.1563-.0306,6.9497-.3323,10.0063-1.0004,4.5946.502,9.3988-.2038,14.4125-2.1173,4.4637-1.4377,7.6595-1.0652,9.5875,1.1173Z" style="fill: #faefbf;"/>
          <path d="M351.5814,367.4971c-1.1455-.6574-8.7887-9.2397-7.9951-9.9947,14.186-2.7648,28.1688-7.3563,42.6234-8.8769,9.7968-1.0306,32.6064-2.5273,41.6215-.8575,1.1477.2126,3.289.4086,2.6517,2.1154-.6879,1.8424-3.7499,5.5873-4.9015,7.6137-10.779-.8083-21.5669-.4777-32.3817,1.1183-4.9926.7368-11.6924,2.1518-16.627,3.373-4.5541,1.1271-20.6675,7.9248-23.7978,6.226-.291-.1579-.1954-1.3211-.4272-1.5054-.3151-.2506-.7186.8154-.7663.7881Z" style="fill: #964b0a;"/>
          <path d="M240.5814,351.4971c3.9203,1.067,7.6505,2.404,11.0783,4.5975-3.6632,9.2614-8.0947,18.0441-7.0835,28.3975-.5686.6611-7.9067-5.3565-9.3258-6.1639-9.9114-5.6387-20.3278-8.1216-31.6689-8.8311-1.0798-5.2241,9.2206-9.363,13.3196-11.1804,7.6699-3.4005,15.4834-5.207,23.6804-6.8196Z" style="fill: #964b0a;"/>
          <path d="M167.5814,598.4971c2.8443.0768,13.7591,9.5996,17.6731,11.8269,8.9696,5.1043,19.3776,8.2765,29.8271,8.2671,7.2882-.0066,15.8066-4.1578,22.4998-2.094,2.0429,1.2163,4.4835,6.4092,4.08,8.3842-14.4251,8.7528-35.5445,6.51-50.2889-.6753-8.788-4.2826-22.3872-15.9037-23.7911-25.7089-.3639-.0098-1.6969,1.3309-1.9913,1.0073-.251-.2758.2129-1.5917-.0087-2.0073l1.99-.9977c.0797.6497-.0812,1.3607.01,1.9977Z" style="fill: #964b0a;"/>
          <path d="M840.5814,344.4971c-5.8071,42.4377-41.4654,109.6396-87,119-.1017.0209-.5142-.8122-1.9773-.6349-1.8127.2197-6.3146,3.8848-4.5453-.3874l33.4573-19.5431c15.8352-13.4329,31.6993-29.3976,40.5679-48.4321,7.2368-15.5322,11.3132-34.6966,17.0137-50.987l2.4837.9844Z" style="fill: #964b0a;"/>
          <path d="M698.5814,604.4971c-.3424,2.2754.1429,3.8663,1,3,.1167.3269.6344.8843,1,2l5.036,30.5027-.0412,2.5004-3.8823-.1215c-4.2357-18.4248-9.4532-36.9266-19.2892-53.205-5.1332-8.4954-14.5039-17.7056-19.0265-25.9741-1.3076-2.3906-3.231-6.2957-.7968-8.7026,15.3344,13.9077,28.2187,30.1296,36,50Z" style="fill: #964b0a;"/>
          <path d="M496.5814,901.4971c1.24.9323,4.4634.6358,2.5292,3.0286-4.4488,5.5037-37.4242,5.5994-44.9077,4.8498-14.9754-1.5-34.372-11.3675-46.6216-19.8784,27.1173,7.2709,55.5814,19.7604,84.3526,13.8525,1.6816-.3453,3.4561-.3605,4.6474-1.8525Z" style="fill: #964b0a;"/>
          <path d="M594.5814,575.4971c-1.5683,1.0399-2.0132,2.421-1.8153,4.2533,1.3192,12.2116,7.8424,26.7866,6.8481,40.2572-.1302,1.7637-.3752,3.4542-2.0328,4.4895-1.7444-25.7924-14.2159-49.6173-29.9917-69.5134-.3795-1.2792.2148-1.98,1.4755-1.4755,4.9311,1.9732,17.3317,12.3977,21.5588,16.4425,1.6936,1.6206,2.5883,4.1643,3.9574,5.5465Z" style="fill: #964b0a;"/>
          <path d="M618.5814,399.4971c1.1128,7.0963-8.099-1.5959-9.9422-2.5578-8.3989-4.3831-17.6185-6.929-25.937-11.063-2.4731-1.2291-13.4499-7.2852-14.8514-8.6295-.297-.2849-1.9348-4.7218-2.2695-5.7497-.2302-.7071-2.6941-6.2505.4839-4.989,2.3392.9286,7.0278,4.7489,9.8467,6.1584,13.4617,6.7314,27.7493,12.9148,39.6043,22.3914,1.407,1.1248,1.4821,3.2981,3.0651,4.4392Z" style="fill: #964b0a;"/>
          <path d="M399.5811,678.507l-15.5,20.9701-12.4786-20.4909c9.142,3.0435,18.7476,1.1956,27.9786-.4792Z" style="fill: #a41501;"/>
          <path d="M625.5814,735.4971c-2.8538,3.2867-4.9419,7.2743-8.5049,9.9951.6408-10.204,4.721-20.7015,7.0389-30.9611,1.5336-6.7882,1.6852-14.3921,3.466-21.034.0317-.1183,1.1812-.8127,1.5623-1.8859.6139-1.7291-.3737-4.9965,1.4276-5.109.9752,14.8462-3.5601,29.2414-5.7264,43.7782-.2376,1.5944-1.0505,4.2178.7365,5.2167Z" style="fill: #964b0a;"/>
          <path d="M640.5814,376.4971c-6.205,6.8947-10.3251,8.0263-12.3604,3.3946,3.4652-5.6622,7.252-11.127,11.3604-16.3946,1.5514-3.1089,2.1879-4.6926,5.99-5.9997-.45,7.9521,3.7351,14.2567-4.99,18.9997Z" style="fill: #dbcd90;"/>
          <path d="M639.5814,363.4971c-1.281,2.567-2.0065,5.3634-3.4829,8.0175-1.7851,3.2092-12.1428,14.9011-1.9835,9.9848,2.7686-1.3398,5.3506-6.7617,6.4664-5.0023l-8.4837,8.0643-11.5114-10.5692c7.9663-.7309,13.4881-5.192,18.9951-10.4951Z" style="fill: #faefbf;"/>
          <path d="M441.5814,825.4971c-.2453.0825-.651-.0219-1,0,1.3254-5.214,7.4052-7.0486,10.5098-10.98-1.9882,4.1434-4.8738,9.4204-9.5098,10.98Z" style="fill: #dbcd90;"/>
          <path d="M350.0916,755.5069c2.9977-.7793,4.3727,2.3582,1.9796,2.9803-2.9977.7793-4.3727-2.3582-1.9796-2.9803Z" style="fill: #dbcd90;"/>
          <path d="M396.5814,613.4971c.4698,2.118-3.8337,3.4511-5.3422,4.1606-3.7598,1.7682-7.764,3.3861-11.6578,4.8394,5.7207-2.8307,10.9472-6.1346,17-9Z" style="fill: #b8691a;"/>
          <path d="M480.5814,875.4971c-2.3182.0949-4.677,0-7,0,1.2636-1.6544,5.7364-1.6544,7,0Z" style="fill: #b8691a;"/>
          <path d="M407.5814,607.4971c-2.2232,2.3013-5.1503,3.6836-8,5,1.6408-2.7674,5.3548-3.5776,8-5Z" style="fill: #b8691a;"/>
          <path d="M415.5814,602.4971c-1.9665,1.8317-4.6637,3.6706-7,5,1.3794-2.4684,4.2488-4.3322,7-5Z" style="fill: #b8691a;"/>
          <path d="M699.5814,607.4971l-.9881.9981-.8212-3.3875.8093-.6106c.3609.9216.6491,2.017,1,3Z" style="fill: #b8691a;"/>
          <path d="M444.0814,501.4971c.6494.3333.6494.6667,0,1v-1Z" style="fill: #17772a;"/>
          <path d="M201.5814,369.4971c-.3324-.0159-.6671.0118-1,0l.5-.98.5.98Z" style="fill: #964b0a;"/>
          <g>
            <path d="M471.5814,577.4971c6.431-5.306,12.1494-11.3097,19.2213-16.2516,10.6487-7.4413,26.5512-18.6851,39.7511-14.2143,2.5513.8641,10.4717,5.5891,12.5643,7.4182,1.126.9842,1.3149,1.6183,1.4633,3.0477,5.9773,4.0188,13.4596,13.103,14.7624,20.7385,5.3799,31.531-24.9368,23.6942-32.2575,2.2665-6.5334,16.1921-13.487,41.6934-35.0525,42.0203-13.9076.2108-17.4838-11.6626-26.4426-19.0252-1.3123,22.7039-11.313,44.6325-37.5,41.9908-10.0732-1.0162-14.6754-6.8715-23.501-9.9919-1.0751,5.7454-2.2207,11.8234-5.0088,17.0011-3.1813-.4875-4.2228.3153-3,4-7.8963,8.8409-29.5988,7.9535-38.9363,1.4363-1.1282-.7874-8.2654-7.5585-7.577-8.4398,21.7821-7.2487,44.0313-14.3169,63.8211-26.1886,20.4751-12.2828,39.4076-30.722,57.6921-45.8079,1.2205,1.2679.9229,3.2178-.8928,5.8497l34.6908-13.0679c13.6211-3.1137,26.6884-7.3743,39.202-12.7818l-2.5412.7006c-15.5494-12.2903-26.0691-8.8837-41.6294,1.0556-8.9269,6.6879-17.8753,13.138-26.8451,19.3504l-1.9843-1.1066Z" style="fill: #faefbf;"/>
            <path d="M396.5814,656.4971c-.8691-1.7078-3.3621,1.6379-4.5195,1.9856-4.2898,1.2886,1.9428-4.9814,2.3551-5.6503,1.1081-1.7981,3.8139-8.9747,4.1799-9.3317,4.1223-4.0196-.6156,9.2724.9846,8.9964-1.1973,2.2234-1.4908,2.3103-3,4Z" style="fill: #dbcd90;"/>
            <path d="M544.5814,557.4971c.1086,1.046.2862,1.3642-.6227,2.0798-1.088.8566-8.289,3.9868-10.1142,4.6832-8.3557,3.1882-17.2955,4.4487-25.7829,7.217-10.5021,3.4255-33.1951,13.746-41.9754,15.0309-.5927.0867-1.645.2667-1.4998-.5059,3.834-1.3176,5.3405-6.8151,6.995-8.5051.8637-.8822,3.6583-1.4377,4.9415-2.5611,9.2852-8.1299,28.287-22.8943,40.0361-25.9588,11.378-2.9677,18.9116,2.3942,28.0225,8.5199Z" style="fill: #dbcd90;"/>
            <path d="M401.0814,640.4971c.6494.3333.6494.6667,0,1v-1Z" style="fill: #dbcd90;"/>
          </g>
          <g>
            <path d="M234.5814,646.4971c7.9367-1.7347,15.6365-6.0257,23.9816-3.9701.118.9831.0154,1.9789.0184,2.9701-6.3469-.9313-13.6994,2.2819-19.8044,2.7901-1.9288.1605-3.4296.5824-4.1956-1.7901Z" style="fill: #dbcd90;"/>
            <path d="M237.0814,646.4971c.6494.3333.6494.6667,0,1v-1Z" style="fill: #faefbf;"/>
          </g>
          <g>
            <path d="M557.5814,725.4971c-3.0937-.4901-3.3837-3.7728-.8699-9.848.389-3.0124-13.4631-9.8686-16.7037-10.7748-27.2171-7.6107-54.9654,8.5159-68.4452,32.2169-17.2054,33.4489-31.9548,60.4755-68.963,75.4276-22.5325,9.1036-46.9545,9.3025-70.6309,5.89,33.4672,14.2145,75.5752,8.5405,103.1586-15.2304l2.4542,1.3186c-31.7439,30.1756-84.2609,33.64-120.9086,9.4086-18.5641-12.2745-46.8809-52.2534-12.1109-61.9256,21.9442-6.1043,25.2918,10.1391,35.6065,23.43,10.175,13.1109,21.7382,18.8723,38.6544,16.8299,1.5146-.1829,6.1717-1.0225,6.7539-2.7331-5.278.7958-24.5882-9.147-26.5498-13.0097-1.4631-2.8811,6.4698-6.2885,8.5545-8.0002,1.6775.6357,1.8813,1.8534.6112,3.653,3.7011.085,5.8307,1.2006,6.3888,3.347,39.7126,7.4584,57.5667-42.6699,78.9736-66.5264,19.4386-21.663,46.2859-34.6234,75.5643-24.5115,9.9567,3.4388,27.3312,17.1284,30.9403,27.0901,1.3354,3.6859-1.3226,10.0291-2.4782,13.9479Z" style="fill: #ee3e2c;"/>
            <path d="M557.5814,725.4971c-1.4178,4.8076-3.1141,9.3761-5,14l-2.3075-1.4095c4.4707-9.9904,1.0681-15.7848-8.8553-19.214l-.8371-2.3764c-29.7598-9.5067-47.4335,8.9716-65,29-8.1576,14.351-16.1576,28.6843-24,43-.2831.369-.7087.6408-1,1l-7,9c-.3194.348-.6772.6581-1,1l-4,4c-.3367.3298-.6577.6746-1,1-3.2372.535-4.3464,3.0045-6.1388,4.359-25.9922,19.642-66.9945,25.0523-98.1124,12.389-6.7077-2.7297-7.3091-5.8067.6684-4.6659,37.9752,5.4307,70.7608-.1746,100.0566-26.1082,21.1608-18.7323,26.7561-44.9315,43.9995-66.0005,14.5254-17.7481,42.6523-29.3457,64.7662-20.7128,1.7332.6766,14.7955,7.9776,15.2972,8.7005,2.4439,3.5214-2.789,9.3371-.5367,13.039Z" style="fill: #d21f07;"/>
            <path d="M367.5814,768.4971c31.8007-26.1119,31.4062-88.681,80.739-95.761,3.1719-.4552,21.7598-.5291,23.2647.767,1.7075,1.4706-.6619,1.781-1.307,2.2264-11.9346,8.2394-19.2602,12.6794-28.6691,24.2953-16.4784,20.3436-31.428,65.1548-57.2067,72.7936-3.4187,1.013-7.4595-.2146-9.8209,2.6788-1.3858-.2603-8.682-1.6764-9.0045-2.0063-1.7136-1.7529,2.4757-3.406,2.0045-4.9937Z" style="fill: #d21f07;"/>
            <path d="M552.5814,739.4971c-4.391,10.7658-10.2195,20.9652-16.0159,30.9996-.5569.381-7.6706-7.3977-9.0692-8.4145-1.1297-.8213-7.849-4.585-8.415-4.585h-18.5c5.4139-17.1479,11.8519-31.013,29.7258-37.7743,3.396-1.2847,7.2433-1.332,10.2742-3.2257,2.4395.7793,6.0175,1.9595,7.9651,3.5349.5807.4698,5.3456,6.0905,5.5317,6.4881,2.1822,4.6614-3.1794,8.581-1.4968,12.977Z" style="fill: #a41501;"/>
            <path d="M475.5814,745.4971c-9.0498,14.0791-13.6857,29.5568-24,43l7.1959-12.304c3.7839-11.1508,9.8208-22.7339,16.8041-30.696Z" style="fill: #ee3e2c;"/>
            <path d="M443.5814,798.4971c1.3954-3.6705,4.6397-6.0897,7-9-.9581,3.6258-4.5393,6.3186-7,9Z" style="fill: #ee3e2c;"/>
            <path d="M438.5814,803.4971l4-4c-1.3632,1.4438-2.5973,2.6262-4,4Z" style="fill: #ee3e2c;"/>
          </g>
        </g>
        <g>
          <path d="M141.5814,232.4971c-21.4353-29.8548-28.216-53.3619-17.7146-90.2146,6.6066-23.1844,28.5472-55.6209,47.8014-70.1986,4.2184-3.1938,9.4315-6.2848,14.9157-5.5864.3497,2.4485-.224,4.1922-1.1028,6.4004-3.1011,7.7919-11.6848,17.9158-16.071,25.928-14.452,26.3992-22.6402,59.8001-11.5897,88.9322,5.236,13.8034,22.5754,38.1735,37.0252,42.9719,15.5432,5.1615,11.5954-11.142,12.7443-20.7243,2.3065-19.2378,5.4561-38.554,18.0133-53.9867,2.2034-2.7079,16.0994-16.6937,18.9779-14.5119-4.0104,12.6044-10.8126,25.4509-12.895,38.5948-5.3418,33.718-4.3763,65.2683,19.381,91.4094,11.8121,12.9973,31.923,20.0709,26.5142,40.9858l-2.9133-.6611c-3.6879-4.8558-8.5869-8.5455-13.826-11.5827-39.2723-19.7213-78.8837-43.7785-115.427-67.1117l-3.8337-.6445Z" style="fill: #b8691a;"/>
          <path d="M277.5814,312.4971c-.5571,2.1542-4.8118,12.2634-7.3336,11.9036-1.0842-.1547-9.824-7.6557-11.945-9.1251-39.3971-27.2938-84.9416-40.658-114.7215-79.7785l-1-1c-.4158-.5603-.5863-1.4238-1-2,1.815-4.3087,6.1236.7787,8.604,1.8955,11.541,5.1963,19.0039,11.7561,29.6988,18.3017,19.2102,11.7572,39.5341,22.6533,59.0281,33.9719,13.2691,7.7043,29.7988,12.3552,38.6691,25.8309Z" style="fill: #964b0a;"/>
          <path d="M750.5814,302.4971c-.2645-.247-1.6075-.0866-2.8663-1.5915-1.0415-1.2451-5.3049-8.7776-5.0617-9.811,4.417-2.0968,20.9463-14.9164,24.184-14.4254,2.6844.4071,6.7191,3.2689,10.3288,3.7431,8.6922,1.142,18.9805-.5467,27.1083-3.7221,3.9456-1.5415,9.9933-6.3127,12.826-7.1791,1.8165-.5556,1.3766.327,1.5105,1.4962.7122,6.2165-7.1877,21.0976-13.0296,24.4898l-.4898-2.7405c7.3536-11.3457,11.0771-18.9811.9378-2.6863-12.3044,15.2497-38.4469,24.051-55.448,12.4267Z" style="fill: #faefbf;"/>
          <path d="M805.5814,295.4971c-.2735.3713-.6989.6484-1,1-12.0735,10.0847-25.8172,13.7303-41,13-7.5954-1.4924-7.7368-2.0856-13-7l13.4551,4.0357c16.0306.2404,29.7389-4.5767,39.9619-17.1187,4.5786-5.6173,6.8294-13.2864,13.0938-16.896-1.659,7.8745-6.761,16.5319-11.5108,22.979Z" style="fill: #dbcd90;"/>
          <path d="M804.5814,296.4971c-9.0939,10.6173-27.5764,15.6376-41,13,3.9065-2.1008,9.0225-.6,13.3919-1.1082,10.2126-1.1877,18.6822-7.5502,27.6081-11.8918Z" style="fill: #faefbf;"/>
          <path d="M142.5814,234.4971l1.9979.0102-.9979.9898c-.2734-.3592-.7241-.6282-1-1Z" style="fill: #b8691a;"/>
          <g>
            <path d="M683.5814,188.4971c-.914,1.7778-3.0902,1.7552-6.5287-.0677-1.0892,3.9872-8.8121,26.5015-12.3843,27.675-4.8046-.7961-9.2625-3.3459-13.3735-7.6492-4.5615,4.6985-10.6899,2.5001-18.3853-6.595-18.3497-17.5238-37.83-32.7357-58.441-45.6356-3.831,1.7066-7.6554-.0425-11.4733-5.2472,9.0256,29.8014,12.0165,61.4909,10.5522,92.8374,1.4225,1.2333,1.7671,2.4607,1.0338,3.6823-35.3629-13.9438-72.9819-23.8456-111-27l-1-1c-31.0534-2.9898-63.7893-1.192-94.1891,5.3109-9.212,1.9706-18.6535,5.7857-27.8045,6.1955,29.1825-54.7188,76.7146-99.6024,132.6359-126.364,15.2342-7.2905,37.2432-16.5478,53.9866-18.0134,67.3333-5.8941,83.1252,46.9974,125.3568,83.3852,8.8805,7.6516,19.3021,14.1045,31.0415,15.9595,2.0274,1.3563.004,2.2224-.0273,2.5263Z" style="fill: #d21f07;"/>
            <path d="M574.5814,247.4971c-1.1224-1.0682-2.8091-1.6224-3.0043-3.4935.6956-24.753-.0593-48.4853-5.3094-72.6929-1.6704-7.7021-4.8352-14.9447-5.6812-22.8085,4.8153-1.0494,7.8773,7.2826,11.4857,7.0496.4433-.0286.5736-2.0793,1.014-2.1009,1.7648-.0866,18.6152,11.5436,21.426,13.6153,17.5949,12.9681,33.4888,28.9317,50.8159,42.2873,2.9083.7879,3.6502-3.5354,6.5598-2.7558,2.1397.5733,8.7721,8.0347,12.0694,7.8418.9437-.2762,7.5654-15.3087,8.3987-17.6677,1.2755-3.6112,2.3303-7.3848,2.2311-11.2722l8.9943,2.9976c-.101.982.0931,2.0158,0,3l-1,2c.819,11.3084-7.2105,30.5693-13.2034,40.2972-.9817,1.5935-2.265,4.6251-4.2298,4.6865-1.5676.049-28.3301-9.5182-29.563-10.4876-2.1785-1.7129-7.6437-13.4765-9.9757-17.0243-6.7369-10.2494-16.5924-21.4052-29.0069-23.9829,17.6533,25.88,23.1026,56.6392,31.7259,86.18-.1676,3.4387-3.6167,7.6331-7.1768,7.3608-2.8716-.2197-18.7258-14.6144-22.6569-17.4432-7.122-5.125-18.011-9.9688-23.9136-15.5864Z" style="fill: #a41501;"/>
            <path d="M683.5814,191.4971c-.0801.8467-.0165,1.7251-1,2-.0335-.4626-2.9522-2.3998,1-2Z" style="fill: #d21f07;"/>
            <path d="M463.5814,220.4971c-.4519-.0375-.9005-.5305-1-1,.4541.0437.8958.5312,1,1Z" style="fill: #a41501;"/>
          </g>
          <g>
            <path d="M809.5814,126.4971c-.3524,1.5119-1.4959,2.1071-3.4305,1.7856,8.1952,65.2643-42.1098,110.565-92.4709,142.253l-46.9922,30.5279c-15.0464,9.896-28.8553,20.3473-41.2048,33.2882-4.5489,6.608-9.2373,12.8457-15.543,4.699-2.3745-5.7831-3.9827-4.6877-8.3586-1.5537-1.4661-1.5427-1.4835-3.999-2-6,.4454-1.7895.3559-1.9479-1-3-.1142-.6051.0808-1.3568,0-2-.7843-2.5662.5531-4.9722,2-7,2.3752-3.7005,1.2344-3.8765,6-6l1-1c4.5551-5.1881,16.5504-10.2768,22.9086-14.5914,56.6535-38.4451,85.3841-101.2602,68.0951-169.4019,7.5348-.9461,11.1294,3.6585,13.2961,10.1936,5.495,16.5741,8.812,41.7041,9.6872,59.3126.466,9.3753-1.3321,22.3063.0711,30.9291,2.6265,16.1393,23.7563-8.2605,27.9158-12.9681,27.1861-30.7679,38.6871-66.7219,31.7343-107.682-2.705-15.9355-9.1933-30.9621-11.7028-46.7869,3.4023-3.5345,18.8767,16.7915,20.8053,19.6844,8.7042,13.056,16.036,29.9116,19.1894,45.3106Z" style="fill: #b8691a;"/>
            <path d="M601.5814,337.4971c.308-4.2273,3.3332-5.1715,7.3839-4.0622.6245.171,3.7099,10.1685,9.4199,6.8481,3.7206-5.1172,7.9943-10.5408,12.7259-14.7562,58.9982-52.5607,166.3464-85.8611,173.4543-175.5457.9642-12.1665-1.1561-24.3452-.9738-36.479,1.4405-.2358,1.3521,1.7357,1.6918,2.7829.7611,2.3463,1.1448,4.8509,1.8306,7.2301.4777,1.6573-.1882,3.5508,2.4674,2.9819,5.8307,28.4737,3.0824,53.5106-11,79-7.5237,13.8629-16.1903,26.8629-26,39-.3319.3354-.6642.6685-1,1-1.2985.3187-1.6613.7216-2,2-1.5065,1.4302-2.6556,1.6886-3,2l-1,1c-37.7403,33.2599-85.6468,52.2373-123.0142,86.4858-3.4369,3.1501-16.7665,19.4733-18.0073,19.9934-2.1489.9006-8.0289.8448-10.4215.4632-6.9867-1.1142-13.0349-13.3815-12.5569-19.9423Z" style="fill: #964b0a;"/>
            <path d="M772.5814,244.4971c-.4501-2.2531.9302-3.0802,1.9257-4.5702,7.7862-11.6544,17.4433-22.4274,24.0743-34.4298-5.5303,14.9371-14.9579,27.8421-26,39Z" style="fill: #b8691a;"/>
            <path d="M598.5814,326.4971c-.0555-.4417-1.3461-.9895-.8725-3.2197.5307-2.4988,2.2173-2.7595,2.8725-3.7803l-2,7Z" style="fill: #964b0a;"/>
            <path d="M598.5814,328.4971c2.3651-.324,2.2034.1504,1.9895,2.4944l-.9895.5056c-.2422-.9384-.7743-1.8047-1-3Z" style="fill: #964b0a;"/>
            <path d="M771.5814,245.4971c-.6802.6716-1.2903,1.3263-2,2-.2401-2.125-.125-2.2401,2-2Z" style="fill: #b8691a;"/>
            <path d="M765.5814,250.4971l1-1c-.3464.3131-.6439.6861-1,1Z" style="fill: #b8691a;"/>
            <path d="M606.5814,313.4971c.3024-.36.6918-.6489,1-1-.2689.3568-.5927.8185-1,1Z" style="fill: #964b0a;"/>
          </g>
          <g>
            <path d="M302.5814,331.4971l1.9403-2.2159,11.8892-2.5288c47.9713-17.4262,101.0808-17.9717,152.0395-16.3632,3.1624.8701,4.0175,2.1704,1.1309,4.108-4.724,3.0016-16.1934,14.2493-20.5578,14.9425-24.7602-1.0249-49.7675-1.5363-74.4422,1.0575-15.5717,1.0182-31.2181,3.9355-46.9394,8.7518-3.1561-.1027-6.1763-.6867-9.0606-1.7518-5.3111-2.0336-10.6526-4.0598-16-6Z" style="fill: #dbcd90;"/>
            <path d="M374.5814,330.4971c-8.3301.8757-16.938,2.7447-25.1911,4.3089-6.2298,1.1807-18.2654,5.5188-23.4288,5.6393-3.051.0712-5.0178-2.0436-7.3801-2.9482,3.1426-2.756,2.0318,1.4322,6.4275,1.0183,11.0196-1.0377,24.6412-6.1384,36.2073-7.8833,3.7628-.5677,10.1406-1.9294,13.3651-.1349Z" style="fill: #faefbf;"/>
            <path d="M302.5814,331.4971c-1.7682.1436-16.0256.2867-16.0149-.5144,5.3005-14.8905,14.4901-28.2498,26.0099-38.9905-1.6775-.6175-5.6848,2.1159-6.9305,3.0694-3.0674,2.3479-5.6163,5.8762-8.5695,8.4306-6.9994-14.7697-1.7008-23.6272,9.4932-33.5068,49.293-43.505,164.3416-38.3404,223.5489-19.5254,26.8869,8.5442,56.0796,20.1863,74.3893,42.3978l-12.9264,9.6393c-3.7991-1.6338.2935-4.6994,2.8496-6.0428.9117-.9995-5.4735-12.9525-4.9578-5.8463-11.0531,6.6489-22.6863,11.0046-35.8863,12.1571,6.4001,10.7612,12.3805,21.2113,15.653,33.5468,1.711,5.4771,9.212,15.8578,15.1458,15.9837.4078.0087-1.0529-5.4149-1.518-6.9584-5.8335-13.4653-9.7446-24.9754.2979-37.8334,1.9147-2.4514,5.3057-6.4117,8.4159-5.0066-.5815,3.3948-3.9786,4.8458-5.8346,7.6651-11.7736,17.884,1.4075,33.1385,7.3457,50.3137-6.5527-3.6006-14.6099-5.3355-21.1894-8.8004-9.8847-5.2055-8.3174-9.0291-13.5161-17.4838-20.0407-32.5922-56.5282-40.2032-88.8055-19.6945.5583-3.0196-1.5308-1.9361-3.4546-2.0002-37.5352-1.2515-78.8774-1.2056-115.5586,6.487-14.6907,3.0809-34.4028,11.4103-47.9868,12.5132Z" style="fill: #faefbf;"/>
            <path d="M591.5814,302.4971c-2.45,2.484-4.996,3.1589-7.8227,7.6773-8.9344,14.2819-3.9542,20.6348,1.0304,34.6319.4576,1.2849-.1021,2.6535.2806,3.6919.9269,2.5151,4.6427,5.0967,3.0166,7.9939-2.2179-2.6088-6.1995-2.1372-8.771-3.9611-12.8385-9.1066-12.2496-19.5786-18.0022-32.2656-.9937-2.1915-11.5812-19.0323-10.7269-19.7633,7.6155-.8473,15.448-1.0431,22.6832-3.8171,3.4747-1.3322,6.9589-3.9384,10.4435-5.5978,1.1463-.5459,3.1756-.3608,3.6702-.7819.9775-.8323.3037-6.9879,2.6852-5.8002.6379.3181,6.459,9.3628,6.5279,10.5779.2044,3.6093-2.3014,3.2878-3.979,4.9884-.8928.9051-.8768,2.2644-1.0358,2.4256Z" style="fill: #dbcd90;"/>
          </g>
        </g>
      </g>
    </g>
  </g>
</svg>