<svg xmlns="http://www.w3.org/2000/svg" viewBox="0 0 265 265">
  <g style="isolation: isolate;">
    <g id="uuid-e7daa29d-855f-4cfa-889f-735927d4b466" data-name="Layer 1">
      <g>
        <g>
          <path d="M207.457,173.3253c-2.1941.1303-5.7909.416-10.4673,1.038-8.2337,1.0948-21.4089,3.4561-37.4174,8.4892-17.9724,5.6499-35.7558,13.4457-52.8562,23.1711-16.8843,9.6023-35.5449,23.108-52.0116,37.5067,1.6686-.8602,3.2363-1.66,4.5405-2.3122,2.203-1.0985,3.6828-.5412,4.6549.4541l10.4925-5.555c2.5713-1.2862,3.767-.1658,5.1028,1.8946l2.3802-1.3378c11.3056-6.3735,28.3917-16.0066,48.6476-23.5131,23.7879-8.8135,46.2212-12.4828,66.7037-10.9083,1.5414-6.6285,6.2701-21.4256,10.9125-28.968-.2388.0141-.4692.0276-.6809.0407h-.0013Z" style="fill: #25743a;"/>
          <path d="M212.2947,169.1549l-.3319-.0766c-.991-.2284-2.3841-.159-4.7604-.0167-2.265.135-5.9727.4291-10.7756,1.0683-8.4003,1.1167-21.8356,3.5238-38.1353,8.6487-18.2607,5.7401-36.3235,13.6575-53.6867,23.5324-21.4204,12.182-45.6454,30.5457-64.8018,49.1231l-10.7916,10.4651,13.2792-7.0461c.1248-.0662,12.5242-6.6431,18.8109-9.7879l1.2531,2.2575,13.4687-7.1311c.2518.3915.5417.867.7693,1.2393l1.4165,2.3158,5.963-3.3518c11.1888-6.3079,28.0971-15.8408,48.035-23.229,23.6851-8.777,45.9316-12.3269,66.1208-10.5538l2.5067.2221.5039-2.4754c1.2267-6.1431,6.9854-24.1486,11.6479-30.3366.519-.3722.9028-.9192,1.0667-1.5526l.5594-2.0359-2.1177-1.2789ZM130.523,213.1609c-20.2559,7.5065-37.342,17.1395-48.6476,23.5131l-2.3802,1.3378c-1.3357-2.0604-2.5315-3.1808-5.1028-1.8946l-10.4925,5.555c-.9721-.9953-2.4519-1.5526-4.6549-.4541-1.3042.6522-2.8719,1.452-4.5405,2.3122,16.4667-14.3988,35.1273-27.9044,52.0116-37.5067,17.1004-9.7254,34.8839-17.5212,52.8562-23.1711,16.0085-5.0332,29.1836-7.3944,37.4174-8.4892,4.6763-.622,8.2731-.9077,10.4673-1.038h.0013c.2117-.0131.4421-.0266.6809-.0407-4.6424,7.5424-9.3711,22.3395-10.9125,28.968-20.4825-1.5745-42.9158,2.0948-66.7037,10.9083Z" style="fill: #fff;"/>
        </g>
        <g>
          <path d="M189.1009,57.9328c-.074.7562-.1441,1.2912-.2049,1.7539l-.0213.1621c-.1929,1.4369-.3198,2.381-.4491,9.3883-.0605,3.3828.6769,5.6325,2.192,6.6853,1.4199.9872,3.6315.9684,6.2263-.0514,3.9539-1.5528,9.8033-7.0346,12.6999-10.8074-.9726-.4559-1.7426-1.1021-2.3007-1.9332-1.8044-2.6834-.9707-6.5185-.1648-10.2274.22-1.0143.4698-2.1649.6236-3.1821.3092-2.0343-.5127-4.145-2.2541-5.7915-2.2199-2.0992-5.4458-2.9545-8.6292-2.2885-8.0722,1.6905-11.7034.329-14.1066-.5711-.7497-.2812-1.9905-.4718-3.5512-.4718-3.3432,0-8.1563.8738-12.7669,3.601-12.6142,7.4614-26.5883,32.7419-31.1802,41.0491-6.4843,11.7326-25.745,51.1689-1.6876,66.6453,12.9692,8.3448,24.0722,11.583,32.9991,9.6269,9.1639-2.0082,14.6764-9.2212,18.0259-14.4718,2.9978-4.7011,11.8347-27.5541,17.054-41.8825-6.3243,9.3687-16.4842,23.6294-25.5993,31.8089-5.5488,4.9773-10.138,6.8005-14.0328,5.5748-4.548-1.4321-6.4101-6.715-7.1154-9.7368-2.2121-9.0048.3683-25.6631,6.9087-44.5372,4.991-14.4032,12.8076-31.0357,19.7787-34.5225,2.3685-1.1835,4.4683-1.2888,5.9135-.2972.7359.5081,1.9209,1.7606,1.6425,4.4769Z" style="fill: #c8202f;"/>
          <path d="M184.6613,59.1304l-.0206.1577c-.2117,1.5758-.3517,2.6169-.4857,9.8714-.0875,4.8981,1.2667,8.3534,4.0251,10.2702,2.6289,1.8271,6.2604,1.9746,10.2256.4166,5.5516-2.1803,13.3336-9.9472,15.8684-14.1159l2.155-3.5293-4.0751-.7111c-.8034-.1408-1.33-.3897-1.5662-.7414-.7891-1.1736-.0649-4.5053.464-6.939.2335-1.0774.4986-2.2984.6725-3.4483.5221-3.4375-.7692-6.9129-3.5423-9.535-3.2358-3.0598-7.8852-4.3184-12.4387-3.3653-6.8587,1.4363-9.5614.4234-11.736-.3915-3.5955-1.3488-12.1733-1.1686-19.9882,3.4537-5.8634,3.4683-12.5328,10.6348-19.823,21.3002-5.8243,8.521-10.6174,17.1919-12.9288,21.3734-6.9296,12.5383-27.4269,54.8063-.2523,72.289,11.2229,7.2207,21.2994,10.8561,30.0566,10.8557,2.1347,0,4.1927-.2164,6.1679-.6491,10.7167-2.3487,16.9531-10.4542,20.7121-16.3471,2.8615-4.4873,9.8202-22.3426,12.6794-29.811,2.3469-6.1301,4.6544-12.366,6.3305-17.1083,2.9188-8.257,2.8158-8.6104,2.5904-9.3852l-.287-.9538-.8767-.4093c-1.6592-.7747-3.1834-.0735-4.5316,2.0825-.3978.5763-.9953,1.4845-1.8143,2.729l-.0923.1408c-4.8887,7.435-17.8749,27.1855-28.9964,37.1663-4.1484,3.7215-7.6631,5.3861-9.8979,4.6797-2.6214-.8253-3.8377-4.9138-4.2448-6.6577-1.9991-8.1384.6029-24.2868,6.7909-42.1443,5.7432-16.5743,13.0026-29.7746,17.653-32.1006.6486-.324,1.1214-.4575,1.4155-.5041.0031.1153-.0008.2607-.019.4377-.0691.7046-.134,1.1973-.19,1.6235ZM161.7662,88.2756c-6.5404,18.8741-9.1208,35.5324-6.9087,44.5372.7054,3.0218,2.5674,8.3047,7.1154,9.7368,3.8948,1.2257,8.484-.5975,14.0328-5.5748,9.1151-8.1795,19.275-22.4402,25.5993-31.8089-5.2193,14.3284-14.0562,37.1815-17.054,41.8825-3.3494,5.2505-8.862,12.4635-18.0259,14.4718-8.9269,1.9561-20.0299-1.282-32.9991-9.6269-24.0574-15.4764-4.7967-54.9127,1.6876-66.6453,4.5919-8.3073,18.566-33.5877,31.1802-41.0491,4.6106-2.7272,9.4237-3.601,12.7669-3.601,1.5607,0,2.8015.1906,3.5512.4718,2.4032.9001,6.0344,2.2616,14.1066.5711,3.1834-.666,6.4093.1892,8.6292,2.2885,1.7414,1.6464,2.5633,3.7571,2.2541,5.7915-.1538,1.0171-.4035,2.1678-.6236,3.1821-.806,3.7089-1.6396,7.544.1648,10.2274.5581.8311,1.3282,1.4773,2.3007,1.9332-2.8966,3.7728-8.746,9.2546-12.6999,10.8074-2.5948,1.0198-4.8064,1.0385-6.2263.0514-1.5151-1.0529-2.2525-3.3025-2.192-6.6853.1293-7.0073.2562-7.9515.4491-9.3883l.0213-.1621c.0608-.4627.1309-.9976.2049-1.7539.2784-2.7163-.9066-3.9688-1.6425-4.4769-1.4452-.9916-3.545-.8863-5.9135.2972-6.9711,3.4868-14.7877,20.1193-19.7787,34.5225Z" style="fill: #fff;"/>
        </g>
        <g>
          <path d="M95.9314,130.4704c-1.4398-1.2372-2.0708-2.21-2.1102-3.2537-.0435-1.196.714-1.9702,1.3365-2.5917.6215-.6819,20.1738-22.4021,25.9661-37.0514,1.9021-4.8116,5.7224-16.8364.1225-24.5524-3.5974-4.9563-10.4983-7.1611-20.5111-6.5456-12.2646.7513-34.4514,14.0318-47.7078,21.9665-3.6878,2.208-8.032,4.6333-8.9295,5.1325-1.5883,1.228-4.2785,1.6428-5.7477,1.5396-.9864-.0696-1.727-.3574-2.2562-.8782l-.3394,4.3017c-.353,4.2582-.7521,9.075-.511,11.7203.079.8696.4909,3.7929,2.4798,4.9248,1.4139.8039,3.4389.5865,6.017-.647,4.481-2.1428,12.4268-7.2004,19.4372-11.6633l.0646-.0412c5.0707-3.2261,9.4498-6.0125,11.5141-7.0448,3.0961-1.5481,12.5172-6.2599,17.4845.0618,4.4933,5.7192,1.2562,13.3362.1569,15.5348-.1866.3738-1.575,2.918-4.2191,7.7599-4.0569,7.4293-10.828,19.8292-11.4307,21.1472-.4857,1.1783-1.3407,2.1052-2.24,2.4248l-1.8602.6606-.8047-1.8029c-.1874-.4197-.2784-.9129-.2784-1.5072l-.0167-2.32c-.0764-8.5038-.0712-16.7454.3952-20.9193l-13.5268,1.4994c-5.4213.3248-7.6496,2.587-8.515,8.643l-11.31,84.8249,34.9931-10.3635c-.3133-8.4996-1.6785-45.8146-1.6785-50.7904,0-1.173.2127-1.9916.6697-2.5755l.6816-.8711,1.1047.0542c.8889.0433,1.8096.6142,2.8143,1.7445.0821.0923.3168.3446.7062.7638,20.1629,21.7562,34.0742,39.3519,38.6167,48.7962,6.4841-3.5014,23.2965-10.7592,31.0198-13.5515-9.5911-8.7921-48.1828-42.0186-51.4606-44.4283l-.1269-.1012Z" style="fill: #c8202f;"/>
          <path d="M152.2633,173.6047c-5.139-5.139-49.3598-43.2339-53.6026-46.4203-.012-.0104-.0237-.0204-.0354-.0308,2.972-3.3184,20.7908-23.646,26.4702-38.0096,2.1615-5.4674,6.4505-19.202-.3926-28.6315-4.5108-6.2153-12.664-9.0059-24.2287-8.3-13.3036.8152-36.0501,14.4303-49.6405,22.5651-4.0522,2.4261-8.9235,5.1265-8.9722,5.1535l-.201.1124-.1707.1488c-.4059.3543-1.9029.6723-2.6745.6736-1.588-1.8312-2.4811-2.7595-2.521-2.8007l-2.0278-2.1023-1.3881,2.57c-.1713.317-1.0198,2.051-1.0347,5.2758l-.3462,4.3846c-.3665,4.4234-.782,9.437-.507,12.4515.1616,1.782.9356,6.1525,4.6216,8.2504,2.7016,1.5359,6.0571,1.3654,9.9712-.5068,4.7138-2.2538,12.7753-7.3855,19.8876-11.9129l.0644-.0409c4.9709-3.1628,9.264-5.8944,11.1314-6.8282,6.2385-3.119,10.3489-3.4962,12.2159-1.1196,2.9417,3.7446.5104,9.3557-.305,10.9865-.1723.3431-2.1031,3.8789-4.1474,7.6228-3.4112,6.2469-6.5039,11.9166-8.6435,15.882-.0227-6.2125.0378-15.0869.6118-17.0019l1.2252-4.0786-19.518,2.1678c-7.4486.464-11.2834,4.2594-12.4351,12.3191l-12.1833,91.3752,44.4877-13.1757-.0615-1.6563c-.0151-.4108-1.3438-36.2623-1.6665-48.6492,28.5001,30.9247,35.3478,43.4247,36.9732,47.3974l1.2554,3.0655,2.8223-1.7325c5.0605-3.101,27.9696-12.9343,33.8012-14.7163l4.4871-1.3701-3.3229-3.3179ZM116.4991,188.5514c-4.5425-9.4443-18.4538-27.04-38.6167-48.7962-.3894-.4191-.624-.6715-.7062-.7638-1.0047-1.1303-1.9254-1.7012-2.8143-1.7445l-1.1047-.0542-.6816.8711c-.457.584-.6697,1.4025-.6697,2.5755,0,4.9758,1.3652,42.2907,1.6785,50.7904l-34.9931,10.3635,11.31-84.8249c.8654-6.056,3.0937-8.3182,8.515-8.643l13.5268-1.4994c-.4664,4.174-.4716,12.4155-.3952,20.9193l.0167,2.32c0,.5944.091,1.0876.2784,1.5072l.8047,1.8029,1.8602-.6606c.8994-.3196,1.7543-1.2465,2.24-2.4248.6027-1.318,7.3738-13.7179,11.4307-21.1472,2.6441-4.8418,4.0324-7.386,4.2191-7.7599,1.0993-2.1986,4.3364-9.8155-.1569-15.5348-4.9672-6.3217-14.3884-1.61-17.4845-.0618-2.0643,1.0323-6.4434,3.8187-11.5141,7.0448l-.0646.0412c-7.0104,4.4628-14.9561,9.5205-19.4372,11.6633-2.5781,1.2335-4.603,1.4509-6.017.647-1.989-1.1319-2.4008-4.0551-2.4798-4.9248-.2411-2.6453.158-7.4621.511-11.7203l.3394-4.3017c.5292.5208,1.2698.8086,2.2562.8782,1.4691.1033,4.1594-.3115,5.7477-1.5396.8975-.4992,5.2417-2.9245,8.9295-5.1325,13.2565-7.9348,35.4432-21.2152,47.7078-21.9665,10.0129-.6155,16.9138,1.5894,20.5111,6.5456,5.5999,7.716,1.7796,19.7408-.1225,24.5524-5.7923,14.6493-25.3446,36.3695-25.9661,37.0514-.6225.6215-1.38,1.3957-1.3365,2.5917.0394,1.0437.6705,2.0166,2.1102,3.2537l.1269.1012c3.2777,2.4097,41.8695,35.6362,51.4606,44.4283-7.7233,2.7923-24.5357,10.0502-31.0198,13.5515Z" style="fill: #fff;"/>
        </g>
      </g>
      <g>
        <g>
          <path d="M223.9937,91.1848c-4.7883,11.504-10.1692,24.1769-10.1692,24.1769l-4.522-.2875-.0133-.0055s.0594-.1437.159-.4224c.0238-.0576.0535-.1294.0759-.2212.0803-.2698.1977-.5916.3314-.9908,1.0364-3.2244,3.3373-10.9424,4.8883-21.3441.7546-5.0748,1.0618-10.6545,1.2338-16.1722.0185-.8004.0443-1.5808.0568-2.3669.0645-2.8014.1186-5.5398.1891-8.2041.0243-.6633.0293-1.3178.0609-1.9612.055-1.9469.1321-3.834.2404-5.6073-.0014-.0343.0105-.063.009-.0974.0361-.5406.0795-1.0613.1096-1.5876.0539-.5838.1077-1.1675.169-1.7314.0493-.535.1062-1.0502.1762-1.5599.0569-.5152.1343-1.005.2059-1.4804.6649-4.1019.8853-6.9398.563-10.2042-.175-1.8062-.5131-3.7472-1.0392-6.1027-3.4255-15.3717-40.0796-8.2403-43.4226-21.0529.9052-.6021,2.4622-1.911,4.2996-3.4069,1.6281-1.33,3.5056-2.8095,5.3339-4.0566l.0059-.0144c1.999-1.3954,3.9384-2.4957,5.4516-2.8296.2404-.0522.4807-.1042.7284-.1365.7803-.1487,1.5753-.2575,2.3912-.3411,2.8346-.2419,5.8304.071,8.8299,1.2439,11.798,4.6092,21.7993,4.4186,24.9987,6.1286,1.0527.5531,2.0058,1.2335,2.8787,2.0321,13.9836,12.7011,5.2771,53.1046,3.0758,60.544-.464,1.5757-3.7068,9.4934-7.2957,18.0592Z" style="fill: #c8202f;"/>
          <path d="M228.2135,12.5816c-5.4147,1.3803-10.9566,3.9369-16.2313,2.7489-2.177-.4794-4.1442-1.579-6.0848-2.6676-2.7264-1.5314-5.4528-3.0627-8.1924-4.5997-2.0548-1.1526-4.1644-2.3616-5.698-4.2079-.1793-.2088-.3467-.4463-.5008-.6784,2.8346-.2419,5.8304.071,8.8299,1.2439,11.798,4.6092,21.7993,4.4186,24.9987,6.1286,1.0527.5531,2.0058,1.2335,2.8787,2.0321Z" style="fill: #c75728; mix-blend-mode: screen; opacity: .2;"/>
          <path d="M223.9937,91.1848c-4.7883,11.504-10.1692,24.1769-10.1692,24.1769l-4.522-.2875s.0594-.1437.1457-.4279c.0238-.0576.0535-.1294.0759-.2212.0936-.2643.2111-.5861.3314-.9908,1.0498-3.2189,3.3373-10.9424,4.9016-21.3386.7545-5.0749,1.0617-10.6545,1.2204-16.1777.0318-.7949.0443-1.5808.0701-2.3614l-.0133-.0055c.0645-2.8014.1186-5.5398.1891-8.2041.0243-.6633.0293-1.3178.0609-1.9612.055-1.9469.1321-3.834.2404-5.6073-.0014-.0343.0105-.063.009-.0974.0361-.5406.0795-1.0613.1096-1.5876.0539-.5838.1077-1.1675.169-1.7314.0493-.535.1062-1.0502.1762-1.5599.0569-.5152.1343-1.005.2059-1.4804.6649-4.1019.8853-6.9398.563-10.2042-.175-1.8062-.5131-3.7472-1.0392-6.1027-3.4255-15.3717-40.0796-8.2403-43.4226-21.0529.9052-.6021,2.4622-1.911,4.2996-3.4069,1.6281-1.33,3.5056-2.8095,5.3339-4.0566-3.7227,3.5614,2.1763,4.9401,4.8185,6.0326,7.2652,2.9874,12.0849,9.2057,19.7139,9.9531,7.3189.7033,12.651,6.1739,13.5937,5.217,1.149-1.1915-4.1768-5.4305-3.8752-6.0465.3477-.7653,6.3667,4.518,6.8802,5.9592.0748-.7098-1.5188-12.7652,2.5082-11.0158,4.4288,3.6493,4.5684,23.6047,4.4998,25.8489-.0228.6976-.0412,1.3465-.0729,1.99.182,2.4319-.0217,4.8897-.5087,7.3144-.4567,3.5987-1.3509,6.9325-3.2204,11.3779-1.9349,4.6036-4.8453,8.7702-6.4807,13.4808-1.6279,4.7305-1.6578,10.509,1.6425,13.8264.2667.2618.9266.5177,1.5657.7484Z" style="fill: #9d1c26;"/>
        </g>
        <g>
          <path d="M225.801,110.3675c.367.1502,1.536.6829,1.5798,1.1586,1.4462-2.3115.4674-4.9767-.3941-6.2736.2326.2285,1.1461.1236,1.4489.2126.3275-1.9423-.8347-3.6773-2.0474-5.0952.4993.2936.9985.5871,1.4976.8807-1.3627-2.1874-3.996-4.0978-6.6531-4.5628-2.132-.3731-2.2747-.456-3.9735-1.8609-3.3656-2.7516-9.1223-1.6563-12.7167,4.1707,1.3283-.4042,2.5985-1.0702,3.7251-1.9431-3.4269,2.8853-4.8453,8.1812-3.2751,12.2746.7053-.8543,1.3983-1.7167,2.1118-2.5841-1.2796,2.7819-.461,5.1299-.461,5.1299,0,0,.5434-.8684,1.3697-1.2889.1286,1.2952-.9736,2.3025,2.2008,5.4144.5207.5105,3.4113,1.621,6.1617-.0466.1509-.0915.1669,1.6401.3331,1.62,1.5609-.1756,3.1257-.6431,4.4788-1.4962.7112-.6456,1.3385-1.4026,1.8571-2.2317.1475.2281.5685,1.9496.6133,2.7239.6618-.3758,2.5399-3.3777,2.1433-6.2024Z" style="fill: #fff;"/>
          <path d="M224.6225,107.7517c.2671.0901,1.1201.4152,1.172.7473.9254-1.6827.1143-3.5125-.5539-4.3868.1751.1507.8189.0389,1.0378.0888.1475-1.3768-.7532-2.5462-1.676-3.4908.3672.1853.7344.3705,1.1014.5557-1.297-1.8042-3.5172-2.9498-5.1263-3.0388-.6726-.0371-2.6427-.5725-3.91-1.4877-2.5092-1.7909-5.3348-.3214-7.6315,3.9183.9252-.3391,1.7977-.8595,2.5592-1.5191-2.3063,2.1679-3.0816,5.9441-1.7882,8.7516.4632-.629.9175-1.2632,1.386-1.9017-.7867,2.0058-.103,3.6197-.103,3.6197,0,0,.3477-.6321.9159-.9617.1479.9037-.5904,1.6567,1.7987,3.7085.392.3366,2.4923.9955,4.3716-.2896.1031-.0705.1901,1.1442.3071,1.1231,1.1004-.1883,2.1906-.5817,3.1137-1.2369.4766-.4827.8888-1.0402,1.2207-1.6437.1147.154.4887,1.3447.5543,1.8862.4534-.2913,1.6552-2.4766,1.2503-4.4425Z" style="fill: #f3f3f3;"/>
        </g>
        <g>
          <path d="M228.3197,62.6389c6.0843-11.8695,4.188-17.4251,3.4791-20.2581-.1752,1.1201-1.8336,2.1791-2.5985,3.0233.0744-4.5862-1.488-9.1425-4.1792-13.4744-2.6043-4.1922-7.2791-6.8314-11.7894-8.8826,1.0413.9612,2.0086,1.54,2.3462,2.8495-6.6519-5.2767-13.9076-10.1906-21.986-12.9898,1.2447.8205,3.3389,3.2456,3.9331,4.5495-7.3703-4.4079-18.0593-7.4097-26.2497-5.7462,1.2002-.3005,2.5762-.0506,3.6338.6597-3.9312.0966-7.9276.2036-11.5928,1.3613-3.6652,1.1577-7.0183,3.5388-8.2464,6.9837.6825-.6657,1.652-1.0645,2.6634-1.0955-6.6699,4.5335-10.9623,11.9347-11.5098,19.8459.5542-.7614,1.1083-1.5228,1.6624-2.2842-1.171,1.8861-1.1074,4.3466-.2628,6.4934.8447,2.1469,2.3935,4.0222,4.0905,5.7009.5544-1.2112,1.109-2.4224,1.6634-3.6336-.4083.877.7721,1.8885,1.8107,1.8514,1.0387-.0371,1.8744-.6929,2.7049-1.2372,4.0558-2.6582,9.7534-3.0587,14.4919-1.0185.1661-.8766-.3729-1.8684-1.246-2.2932,5.8699.1808,12.3745,1.9009,15.9361,3.9357,1.017.5811,2.9168,2.0988,3.9563,2.6371,1.7908.9273,5.5766,1.6429,7.8454-.6282-.4631,1.5574-1.2509,1.8388-2.1305,2.2858,4.4001,3.5386,8.6753,4.3014,14.2808,4.2289-1.0844.6527-1.517.7534-2.5586.9105.8367,1.4647,2.2139,8.5453,2.3048,9.1188.386,2.4345.6008,3.6336,3.3896,4.5628,6.0357,2.0109,11.8655-2.9862,14.1571-7.4567Z" style="fill: #fff;"/>
          <path d="M230.9619,44.3618c-.1038.8686-2.2653,2.5018-2.8934,3.1291-.1332-3.5837-1.0072-6.7993-3.577-11.021-2.2316-3.6661-6.3475-6.5598-10.3533-8.3585.9459.7967,1.3698,2.3578,1.7195,3.3965-6.0048-4.4136-11.9414-9.9656-19.0784-12.5031,1.1164.6953,2.4627,4.0782,3.0351,5.1235-1.3183-1.6941-7.9456-4.8363-15.161-7.9794-4.524-1.9706-10.5913-1.5738-11.2727-1.4525.5386-.0726,2.0411.3688,2.9461.8644-.7642-.1969-6.6382-.3744-9.7717.3731-3.1334.7473-5.943,2.4651-6.8613,5.1065.5642-.4913,1.389-.7613,2.2661-.742-5.5976,3.258-9.0066,8.8616-9.1411,15.0254.4485-.5716.897-1.1432,1.3454-1.7149-.9357,1.4246-.7743,3.3517.0518,5.0672.8261,1.7154,2.2522,3.2489,3.7984,4.635.4295-.9234.8588-1.8467,1.2882-2.77-.3168.6681.752,1.5102,1.6525,1.5259.9005.0157,1.5981-.461,2.2959-.8509,3.4081-1.9042,8.3394-1.9717,12.5428-.1718.1065-.6784-.4044-1.4773-1.181-1.8472,1.2886.0995,2.5827.3289,3.8651.6382,3.6835,1.1044,11.388,5.9434,14.1299,8.2028.2762.1627-.2922-2.0077-.2922-2.0077l3.3057,2.4728s4.2878.5969,6.1604-1.0815c-.3351,1.1981-1.1706,1.5169-1.8141,2.0147,3.9741,2.9572,8.6532,4.1079,13.5187,4.2929-.9137.4638-1.2851.5239-2.183.6019.7898,1.1815,2.2913,6.7788,2.3949,7.2312.4402,1.9206.6785,2.8677,3.1408,3.7147,5.3289,1.833,9.4988-1.9342,11.2964-5.3318,4.7729-9.0208,3.5644-13.3374,2.8265-15.5838Z" style="fill: #f3f3f3;"/>
        </g>
      </g>
    </g>
  </g>
</svg>